<?xml version="1.0" encoding="utf-8" standalone="no"?>
<!DOCTYPE svg PUBLIC "-//W3C//DTD SVG 1.1//EN"
  "http://www.w3.org/Graphics/SVG/1.1/DTD/svg11.dtd">
<svg xmlns:xlink="http://www.w3.org/1999/xlink" width="936pt" height="288pt" viewBox="0 0 936 288" xmlns="http://www.w3.org/2000/svg" version="1.1">
 <metadata>
  <rdf:RDF xmlns:dc="http://purl.org/dc/elements/1.1/" xmlns:cc="http://creativecommons.org/ns#" xmlns:rdf="http://www.w3.org/1999/02/22-rdf-syntax-ns#">
   <cc:Work>
    <dc:type rdf:resource="http://purl.org/dc/dcmitype/StillImage"/>
    <dc:date>2023-01-13T23:45:17.518268</dc:date>
    <dc:format>image/svg+xml</dc:format>
    <dc:creator>
     <cc:Agent>
      <dc:title>Matplotlib v3.5.2, https://matplotlib.org/</dc:title>
     </cc:Agent>
    </dc:creator>
   </cc:Work>
  </rdf:RDF>
 </metadata>
 <defs>
  <style type="text/css">*{stroke-linejoin: round; stroke-linecap: butt}</style>
 </defs>
 <g id="figure_1">
  <g id="axes_1">
   <g id="patch_1">
    <path d="M 59.42 246.04 
L 925.2 246.04 
L 925.2 14.76 
L 59.42 14.76 
L 59.42 246.04 
z
" style="fill: none"/>
   </g>
   <g id="matplotlib.axis_1">
    <g id="xtick_1">
     <g id="line2d_1">
      <defs>
       <path id="m3232bc51b9" d="M 0 0 
L 0 3.5 
" style="stroke: #585759; stroke-width: 0.8"/>
      </defs>
      <g>
       <use xlink:href="#m3232bc51b9" x="98.773636" y="246.04" style="fill: #585759; stroke: #585759; stroke-width: 0.8"/>
      </g>
     </g>
     <g id="text_1">
      <!-- 0 -->
      <g style="fill: #585759" transform="translate(95.592386 260.638438)scale(0.1 -0.1)">
       <defs>
        <path id="DejaVuSans-30" d="M 2034 4250 
Q 1547 4250 1301 3770 
Q 1056 3291 1056 2328 
Q 1056 1369 1301 889 
Q 1547 409 2034 409 
Q 2525 409 2770 889 
Q 3016 1369 3016 2328 
Q 3016 3291 2770 3770 
Q 2525 4250 2034 4250 
z
M 2034 4750 
Q 2819 4750 3233 4129 
Q 3647 3509 3647 2328 
Q 3647 1150 3233 529 
Q 2819 -91 2034 -91 
Q 1250 -91 836 529 
Q 422 1150 422 2328 
Q 422 3509 836 4129 
Q 1250 4750 2034 4750 
z
" transform="scale(0.015625)"/>
       </defs>
       <use xlink:href="#DejaVuSans-30"/>
      </g>
     </g>
    </g>
    <g id="xtick_2">
     <g id="line2d_2">
      <g>
       <use xlink:href="#m3232bc51b9" x="256.188182" y="246.04" style="fill: #585759; stroke: #585759; stroke-width: 0.8"/>
      </g>
     </g>
     <g id="text_2">
      <!-- 200 -->
      <g style="fill: #585759" transform="translate(246.644432 260.638438)scale(0.1 -0.1)">
       <defs>
        <path id="DejaVuSans-32" d="M 1228 531 
L 3431 531 
L 3431 0 
L 469 0 
L 469 531 
Q 828 903 1448 1529 
Q 2069 2156 2228 2338 
Q 2531 2678 2651 2914 
Q 2772 3150 2772 3378 
Q 2772 3750 2511 3984 
Q 2250 4219 1831 4219 
Q 1534 4219 1204 4116 
Q 875 4013 500 3803 
L 500 4441 
Q 881 4594 1212 4672 
Q 1544 4750 1819 4750 
Q 2544 4750 2975 4387 
Q 3406 4025 3406 3419 
Q 3406 3131 3298 2873 
Q 3191 2616 2906 2266 
Q 2828 2175 2409 1742 
Q 1991 1309 1228 531 
z
" transform="scale(0.015625)"/>
       </defs>
       <use xlink:href="#DejaVuSans-32"/>
       <use xlink:href="#DejaVuSans-30" x="63.623047"/>
       <use xlink:href="#DejaVuSans-30" x="127.246094"/>
      </g>
     </g>
    </g>
    <g id="xtick_3">
     <g id="line2d_3">
      <g>
       <use xlink:href="#m3232bc51b9" x="413.602727" y="246.04" style="fill: #585759; stroke: #585759; stroke-width: 0.8"/>
      </g>
     </g>
     <g id="text_3">
      <!-- 400 -->
      <g style="fill: #585759" transform="translate(404.058977 260.638438)scale(0.1 -0.1)">
       <defs>
        <path id="DejaVuSans-34" d="M 2419 4116 
L 825 1625 
L 2419 1625 
L 2419 4116 
z
M 2253 4666 
L 3047 4666 
L 3047 1625 
L 3713 1625 
L 3713 1100 
L 3047 1100 
L 3047 0 
L 2419 0 
L 2419 1100 
L 313 1100 
L 313 1709 
L 2253 4666 
z
" transform="scale(0.015625)"/>
       </defs>
       <use xlink:href="#DejaVuSans-34"/>
       <use xlink:href="#DejaVuSans-30" x="63.623047"/>
       <use xlink:href="#DejaVuSans-30" x="127.246094"/>
      </g>
     </g>
    </g>
    <g id="xtick_4">
     <g id="line2d_4">
      <g>
       <use xlink:href="#m3232bc51b9" x="571.017273" y="246.04" style="fill: #585759; stroke: #585759; stroke-width: 0.8"/>
      </g>
     </g>
     <g id="text_4">
      <!-- 600 -->
      <g style="fill: #585759" transform="translate(561.473523 260.638438)scale(0.1 -0.1)">
       <defs>
        <path id="DejaVuSans-36" d="M 2113 2584 
Q 1688 2584 1439 2293 
Q 1191 2003 1191 1497 
Q 1191 994 1439 701 
Q 1688 409 2113 409 
Q 2538 409 2786 701 
Q 3034 994 3034 1497 
Q 3034 2003 2786 2293 
Q 2538 2584 2113 2584 
z
M 3366 4563 
L 3366 3988 
Q 3128 4100 2886 4159 
Q 2644 4219 2406 4219 
Q 1781 4219 1451 3797 
Q 1122 3375 1075 2522 
Q 1259 2794 1537 2939 
Q 1816 3084 2150 3084 
Q 2853 3084 3261 2657 
Q 3669 2231 3669 1497 
Q 3669 778 3244 343 
Q 2819 -91 2113 -91 
Q 1303 -91 875 529 
Q 447 1150 447 2328 
Q 447 3434 972 4092 
Q 1497 4750 2381 4750 
Q 2619 4750 2861 4703 
Q 3103 4656 3366 4563 
z
" transform="scale(0.015625)"/>
       </defs>
       <use xlink:href="#DejaVuSans-36"/>
       <use xlink:href="#DejaVuSans-30" x="63.623047"/>
       <use xlink:href="#DejaVuSans-30" x="127.246094"/>
      </g>
     </g>
    </g>
    <g id="xtick_5">
     <g id="line2d_5">
      <g>
       <use xlink:href="#m3232bc51b9" x="728.431818" y="246.04" style="fill: #585759; stroke: #585759; stroke-width: 0.8"/>
      </g>
     </g>
     <g id="text_5">
      <!-- 800 -->
      <g style="fill: #585759" transform="translate(718.888068 260.638438)scale(0.1 -0.1)">
       <defs>
        <path id="DejaVuSans-38" d="M 2034 2216 
Q 1584 2216 1326 1975 
Q 1069 1734 1069 1313 
Q 1069 891 1326 650 
Q 1584 409 2034 409 
Q 2484 409 2743 651 
Q 3003 894 3003 1313 
Q 3003 1734 2745 1975 
Q 2488 2216 2034 2216 
z
M 1403 2484 
Q 997 2584 770 2862 
Q 544 3141 544 3541 
Q 544 4100 942 4425 
Q 1341 4750 2034 4750 
Q 2731 4750 3128 4425 
Q 3525 4100 3525 3541 
Q 3525 3141 3298 2862 
Q 3072 2584 2669 2484 
Q 3125 2378 3379 2068 
Q 3634 1759 3634 1313 
Q 3634 634 3220 271 
Q 2806 -91 2034 -91 
Q 1263 -91 848 271 
Q 434 634 434 1313 
Q 434 1759 690 2068 
Q 947 2378 1403 2484 
z
M 1172 3481 
Q 1172 3119 1398 2916 
Q 1625 2713 2034 2713 
Q 2441 2713 2670 2916 
Q 2900 3119 2900 3481 
Q 2900 3844 2670 4047 
Q 2441 4250 2034 4250 
Q 1625 4250 1398 4047 
Q 1172 3844 1172 3481 
z
" transform="scale(0.015625)"/>
       </defs>
       <use xlink:href="#DejaVuSans-38"/>
       <use xlink:href="#DejaVuSans-30" x="63.623047"/>
       <use xlink:href="#DejaVuSans-30" x="127.246094"/>
      </g>
     </g>
    </g>
    <g id="xtick_6">
     <g id="line2d_6">
      <g>
       <use xlink:href="#m3232bc51b9" x="885.846364" y="246.04" style="fill: #585759; stroke: #585759; stroke-width: 0.8"/>
      </g>
     </g>
     <g id="text_6">
      <!-- 1000 -->
      <g style="fill: #585759" transform="translate(873.121364 260.638438)scale(0.1 -0.1)">
       <defs>
        <path id="DejaVuSans-31" d="M 794 531 
L 1825 531 
L 1825 4091 
L 703 3866 
L 703 4441 
L 1819 4666 
L 2450 4666 
L 2450 531 
L 3481 531 
L 3481 0 
L 794 0 
L 794 531 
z
" transform="scale(0.015625)"/>
       </defs>
       <use xlink:href="#DejaVuSans-31"/>
       <use xlink:href="#DejaVuSans-30" x="63.623047"/>
       <use xlink:href="#DejaVuSans-30" x="127.246094"/>
       <use xlink:href="#DejaVuSans-30" x="190.869141"/>
      </g>
     </g>
    </g>
    <g id="text_7">
     <!-- Time [ms] -->
     <g style="fill: #585759" transform="translate(467.110781 274.316562)scale(0.1 -0.1)">
      <defs>
       <path id="DejaVuSans-54" d="M -19 4666 
L 3928 4666 
L 3928 4134 
L 2272 4134 
L 2272 0 
L 1638 0 
L 1638 4134 
L -19 4134 
L -19 4666 
z
" transform="scale(0.015625)"/>
       <path id="DejaVuSans-69" d="M 603 3500 
L 1178 3500 
L 1178 0 
L 603 0 
L 603 3500 
z
M 603 4863 
L 1178 4863 
L 1178 4134 
L 603 4134 
L 603 4863 
z
" transform="scale(0.015625)"/>
       <path id="DejaVuSans-6d" d="M 3328 2828 
Q 3544 3216 3844 3400 
Q 4144 3584 4550 3584 
Q 5097 3584 5394 3201 
Q 5691 2819 5691 2113 
L 5691 0 
L 5113 0 
L 5113 2094 
Q 5113 2597 4934 2840 
Q 4756 3084 4391 3084 
Q 3944 3084 3684 2787 
Q 3425 2491 3425 1978 
L 3425 0 
L 2847 0 
L 2847 2094 
Q 2847 2600 2669 2842 
Q 2491 3084 2119 3084 
Q 1678 3084 1418 2786 
Q 1159 2488 1159 1978 
L 1159 0 
L 581 0 
L 581 3500 
L 1159 3500 
L 1159 2956 
Q 1356 3278 1631 3431 
Q 1906 3584 2284 3584 
Q 2666 3584 2933 3390 
Q 3200 3197 3328 2828 
z
" transform="scale(0.015625)"/>
       <path id="DejaVuSans-65" d="M 3597 1894 
L 3597 1613 
L 953 1613 
Q 991 1019 1311 708 
Q 1631 397 2203 397 
Q 2534 397 2845 478 
Q 3156 559 3463 722 
L 3463 178 
Q 3153 47 2828 -22 
Q 2503 -91 2169 -91 
Q 1331 -91 842 396 
Q 353 884 353 1716 
Q 353 2575 817 3079 
Q 1281 3584 2069 3584 
Q 2775 3584 3186 3129 
Q 3597 2675 3597 1894 
z
M 3022 2063 
Q 3016 2534 2758 2815 
Q 2500 3097 2075 3097 
Q 1594 3097 1305 2825 
Q 1016 2553 972 2059 
L 3022 2063 
z
" transform="scale(0.015625)"/>
       <path id="DejaVuSans-20" transform="scale(0.015625)"/>
       <path id="DejaVuSans-5b" d="M 550 4863 
L 1875 4863 
L 1875 4416 
L 1125 4416 
L 1125 -397 
L 1875 -397 
L 1875 -844 
L 550 -844 
L 550 4863 
z
" transform="scale(0.015625)"/>
       <path id="DejaVuSans-73" d="M 2834 3397 
L 2834 2853 
Q 2591 2978 2328 3040 
Q 2066 3103 1784 3103 
Q 1356 3103 1142 2972 
Q 928 2841 928 2578 
Q 928 2378 1081 2264 
Q 1234 2150 1697 2047 
L 1894 2003 
Q 2506 1872 2764 1633 
Q 3022 1394 3022 966 
Q 3022 478 2636 193 
Q 2250 -91 1575 -91 
Q 1294 -91 989 -36 
Q 684 19 347 128 
L 347 722 
Q 666 556 975 473 
Q 1284 391 1588 391 
Q 1994 391 2212 530 
Q 2431 669 2431 922 
Q 2431 1156 2273 1281 
Q 2116 1406 1581 1522 
L 1381 1569 
Q 847 1681 609 1914 
Q 372 2147 372 2553 
Q 372 3047 722 3315 
Q 1072 3584 1716 3584 
Q 2034 3584 2315 3537 
Q 2597 3491 2834 3397 
z
" transform="scale(0.015625)"/>
       <path id="DejaVuSans-5d" d="M 1947 4863 
L 1947 -844 
L 622 -844 
L 622 -397 
L 1369 -397 
L 1369 4416 
L 622 4416 
L 622 4863 
L 1947 4863 
z
" transform="scale(0.015625)"/>
      </defs>
      <use xlink:href="#DejaVuSans-54"/>
      <use xlink:href="#DejaVuSans-69" x="57.958984"/>
      <use xlink:href="#DejaVuSans-6d" x="85.742188"/>
      <use xlink:href="#DejaVuSans-65" x="183.154297"/>
      <use xlink:href="#DejaVuSans-20" x="244.677734"/>
      <use xlink:href="#DejaVuSans-5b" x="276.464844"/>
      <use xlink:href="#DejaVuSans-6d" x="315.478516"/>
      <use xlink:href="#DejaVuSans-73" x="412.890625"/>
      <use xlink:href="#DejaVuSans-5d" x="464.990234"/>
     </g>
    </g>
   </g>
   <g id="matplotlib.axis_2">
    <g id="ytick_1">
     <g id="line2d_7">
      <defs>
       <path id="mbdd78b2178" d="M 0 0 
L -3.5 0 
" style="stroke: #585759; stroke-width: 0.8"/>
      </defs>
      <g>
       <use xlink:href="#mbdd78b2178" x="59.42" y="246.04" style="fill: #585759; stroke: #585759; stroke-width: 0.8"/>
      </g>
     </g>
     <g id="text_8">
      <!-- −100 -->
      <g style="fill: #585759" transform="translate(24.952813 249.839219)scale(0.1 -0.1)">
       <defs>
        <path id="DejaVuSans-2212" d="M 678 2272 
L 4684 2272 
L 4684 1741 
L 678 1741 
L 678 2272 
z
" transform="scale(0.015625)"/>
       </defs>
       <use xlink:href="#DejaVuSans-2212"/>
       <use xlink:href="#DejaVuSans-31" x="83.789062"/>
       <use xlink:href="#DejaVuSans-30" x="147.412109"/>
       <use xlink:href="#DejaVuSans-30" x="211.035156"/>
      </g>
     </g>
    </g>
    <g id="ytick_2">
     <g id="line2d_8">
      <g>
       <use xlink:href="#mbdd78b2178" x="59.42" y="217.13" style="fill: #585759; stroke: #585759; stroke-width: 0.8"/>
      </g>
     </g>
     <g id="text_9">
      <!-- −75 -->
      <g style="fill: #585759" transform="translate(31.315313 220.929219)scale(0.1 -0.1)">
       <defs>
        <path id="DejaVuSans-37" d="M 525 4666 
L 3525 4666 
L 3525 4397 
L 1831 0 
L 1172 0 
L 2766 4134 
L 525 4134 
L 525 4666 
z
" transform="scale(0.015625)"/>
        <path id="DejaVuSans-35" d="M 691 4666 
L 3169 4666 
L 3169 4134 
L 1269 4134 
L 1269 2991 
Q 1406 3038 1543 3061 
Q 1681 3084 1819 3084 
Q 2600 3084 3056 2656 
Q 3513 2228 3513 1497 
Q 3513 744 3044 326 
Q 2575 -91 1722 -91 
Q 1428 -91 1123 -41 
Q 819 9 494 109 
L 494 744 
Q 775 591 1075 516 
Q 1375 441 1709 441 
Q 2250 441 2565 725 
Q 2881 1009 2881 1497 
Q 2881 1984 2565 2268 
Q 2250 2553 1709 2553 
Q 1456 2553 1204 2497 
Q 953 2441 691 2322 
L 691 4666 
z
" transform="scale(0.015625)"/>
       </defs>
       <use xlink:href="#DejaVuSans-2212"/>
       <use xlink:href="#DejaVuSans-37" x="83.789062"/>
       <use xlink:href="#DejaVuSans-35" x="147.412109"/>
      </g>
     </g>
    </g>
    <g id="ytick_3">
     <g id="line2d_9">
      <g>
       <use xlink:href="#mbdd78b2178" x="59.42" y="188.22" style="fill: #585759; stroke: #585759; stroke-width: 0.8"/>
      </g>
     </g>
     <g id="text_10">
      <!-- −50 -->
      <g style="fill: #585759" transform="translate(31.315313 192.019219)scale(0.1 -0.1)">
       <use xlink:href="#DejaVuSans-2212"/>
       <use xlink:href="#DejaVuSans-35" x="83.789062"/>
       <use xlink:href="#DejaVuSans-30" x="147.412109"/>
      </g>
     </g>
    </g>
    <g id="ytick_4">
     <g id="line2d_10">
      <g>
       <use xlink:href="#mbdd78b2178" x="59.42" y="159.31" style="fill: #585759; stroke: #585759; stroke-width: 0.8"/>
      </g>
     </g>
     <g id="text_11">
      <!-- −25 -->
      <g style="fill: #585759" transform="translate(31.315313 163.109219)scale(0.1 -0.1)">
       <use xlink:href="#DejaVuSans-2212"/>
       <use xlink:href="#DejaVuSans-32" x="83.789062"/>
       <use xlink:href="#DejaVuSans-35" x="147.412109"/>
      </g>
     </g>
    </g>
    <g id="ytick_5">
     <g id="line2d_11">
      <g>
       <use xlink:href="#mbdd78b2178" x="59.42" y="130.4" style="fill: #585759; stroke: #585759; stroke-width: 0.8"/>
      </g>
     </g>
     <g id="text_12">
      <!-- 0 -->
      <g style="fill: #585759" transform="translate(46.0575 134.199219)scale(0.1 -0.1)">
       <use xlink:href="#DejaVuSans-30"/>
      </g>
     </g>
    </g>
    <g id="ytick_6">
     <g id="line2d_12">
      <g>
       <use xlink:href="#mbdd78b2178" x="59.42" y="101.49" style="fill: #585759; stroke: #585759; stroke-width: 0.8"/>
      </g>
     </g>
     <g id="text_13">
      <!-- 25 -->
      <g style="fill: #585759" transform="translate(39.695 105.289219)scale(0.1 -0.1)">
       <use xlink:href="#DejaVuSans-32"/>
       <use xlink:href="#DejaVuSans-35" x="63.623047"/>
      </g>
     </g>
    </g>
    <g id="ytick_7">
     <g id="line2d_13">
      <g>
       <use xlink:href="#mbdd78b2178" x="59.42" y="72.58" style="fill: #585759; stroke: #585759; stroke-width: 0.8"/>
      </g>
     </g>
     <g id="text_14">
      <!-- 50 -->
      <g style="fill: #585759" transform="translate(39.695 76.379219)scale(0.1 -0.1)">
       <use xlink:href="#DejaVuSans-35"/>
       <use xlink:href="#DejaVuSans-30" x="63.623047"/>
      </g>
     </g>
    </g>
    <g id="ytick_8">
     <g id="line2d_14">
      <g>
       <use xlink:href="#mbdd78b2178" x="59.42" y="43.67" style="fill: #585759; stroke: #585759; stroke-width: 0.8"/>
      </g>
     </g>
     <g id="text_15">
      <!-- 75 -->
      <g style="fill: #585759" transform="translate(39.695 47.469219)scale(0.1 -0.1)">
       <use xlink:href="#DejaVuSans-37"/>
       <use xlink:href="#DejaVuSans-35" x="63.623047"/>
      </g>
     </g>
    </g>
    <g id="ytick_9">
     <g id="line2d_15">
      <g>
       <use xlink:href="#mbdd78b2178" x="59.42" y="14.76" style="fill: #585759; stroke: #585759; stroke-width: 0.8"/>
      </g>
     </g>
     <g id="text_16">
      <!-- 100 -->
      <g style="fill: #585759" transform="translate(33.3325 18.559219)scale(0.1 -0.1)">
       <use xlink:href="#DejaVuSans-31"/>
       <use xlink:href="#DejaVuSans-30" x="63.623047"/>
       <use xlink:href="#DejaVuSans-30" x="127.246094"/>
      </g>
     </g>
    </g>
    <g id="text_17">
     <!-- Angle [degree] -->
     <g style="fill: #585759" transform="translate(18.873125 167.640625)rotate(-90)scale(0.1 -0.1)">
      <defs>
       <path id="DejaVuSans-41" d="M 2188 4044 
L 1331 1722 
L 3047 1722 
L 2188 4044 
z
M 1831 4666 
L 2547 4666 
L 4325 0 
L 3669 0 
L 3244 1197 
L 1141 1197 
L 716 0 
L 50 0 
L 1831 4666 
z
" transform="scale(0.015625)"/>
       <path id="DejaVuSans-6e" d="M 3513 2113 
L 3513 0 
L 2938 0 
L 2938 2094 
Q 2938 2591 2744 2837 
Q 2550 3084 2163 3084 
Q 1697 3084 1428 2787 
Q 1159 2491 1159 1978 
L 1159 0 
L 581 0 
L 581 3500 
L 1159 3500 
L 1159 2956 
Q 1366 3272 1645 3428 
Q 1925 3584 2291 3584 
Q 2894 3584 3203 3211 
Q 3513 2838 3513 2113 
z
" transform="scale(0.015625)"/>
       <path id="DejaVuSans-67" d="M 2906 1791 
Q 2906 2416 2648 2759 
Q 2391 3103 1925 3103 
Q 1463 3103 1205 2759 
Q 947 2416 947 1791 
Q 947 1169 1205 825 
Q 1463 481 1925 481 
Q 2391 481 2648 825 
Q 2906 1169 2906 1791 
z
M 3481 434 
Q 3481 -459 3084 -895 
Q 2688 -1331 1869 -1331 
Q 1566 -1331 1297 -1286 
Q 1028 -1241 775 -1147 
L 775 -588 
Q 1028 -725 1275 -790 
Q 1522 -856 1778 -856 
Q 2344 -856 2625 -561 
Q 2906 -266 2906 331 
L 2906 616 
Q 2728 306 2450 153 
Q 2172 0 1784 0 
Q 1141 0 747 490 
Q 353 981 353 1791 
Q 353 2603 747 3093 
Q 1141 3584 1784 3584 
Q 2172 3584 2450 3431 
Q 2728 3278 2906 2969 
L 2906 3500 
L 3481 3500 
L 3481 434 
z
" transform="scale(0.015625)"/>
       <path id="DejaVuSans-6c" d="M 603 4863 
L 1178 4863 
L 1178 0 
L 603 0 
L 603 4863 
z
" transform="scale(0.015625)"/>
       <path id="DejaVuSans-64" d="M 2906 2969 
L 2906 4863 
L 3481 4863 
L 3481 0 
L 2906 0 
L 2906 525 
Q 2725 213 2448 61 
Q 2172 -91 1784 -91 
Q 1150 -91 751 415 
Q 353 922 353 1747 
Q 353 2572 751 3078 
Q 1150 3584 1784 3584 
Q 2172 3584 2448 3432 
Q 2725 3281 2906 2969 
z
M 947 1747 
Q 947 1113 1208 752 
Q 1469 391 1925 391 
Q 2381 391 2643 752 
Q 2906 1113 2906 1747 
Q 2906 2381 2643 2742 
Q 2381 3103 1925 3103 
Q 1469 3103 1208 2742 
Q 947 2381 947 1747 
z
" transform="scale(0.015625)"/>
       <path id="DejaVuSans-72" d="M 2631 2963 
Q 2534 3019 2420 3045 
Q 2306 3072 2169 3072 
Q 1681 3072 1420 2755 
Q 1159 2438 1159 1844 
L 1159 0 
L 581 0 
L 581 3500 
L 1159 3500 
L 1159 2956 
Q 1341 3275 1631 3429 
Q 1922 3584 2338 3584 
Q 2397 3584 2469 3576 
Q 2541 3569 2628 3553 
L 2631 2963 
z
" transform="scale(0.015625)"/>
      </defs>
      <use xlink:href="#DejaVuSans-41"/>
      <use xlink:href="#DejaVuSans-6e" x="68.408203"/>
      <use xlink:href="#DejaVuSans-67" x="131.787109"/>
      <use xlink:href="#DejaVuSans-6c" x="195.263672"/>
      <use xlink:href="#DejaVuSans-65" x="223.046875"/>
      <use xlink:href="#DejaVuSans-20" x="284.570312"/>
      <use xlink:href="#DejaVuSans-5b" x="316.357422"/>
      <use xlink:href="#DejaVuSans-64" x="355.371094"/>
      <use xlink:href="#DejaVuSans-65" x="418.847656"/>
      <use xlink:href="#DejaVuSans-67" x="480.371094"/>
      <use xlink:href="#DejaVuSans-72" x="543.847656"/>
      <use xlink:href="#DejaVuSans-65" x="582.710938"/>
      <use xlink:href="#DejaVuSans-65" x="644.234375"/>
      <use xlink:href="#DejaVuSans-5d" x="705.757812"/>
     </g>
    </g>
   </g>
   <g id="line2d_16">
    <path d="M 98.773636 130.4 
L 111.359608 130.363232 
L 197.213915 130.397251 
L 271.830747 130.504421 
L 275.426738 130.499521 
L 278.573231 130.404866 
L 289.361207 130.40124 
L 299.250185 130.493477 
L 301.49768 130.695456 
L 303.295676 131.059104 
L 305.093672 131.640166 
L 307.341167 132.595049 
L 310.038161 134.00262 
L 312.735154 135.691797 
L 315.432148 137.616005 
L 319.02814 140.481547 
L 330.265615 149.916015 
L 334.760605 153.880704 
L 342.851587 161.163148 
L 346.447579 164.025668 
L 349.144572 165.908267 
L 351.841566 167.521888 
L 354.089061 168.633669 
L 356.336556 169.502431 
L 358.584051 170.109453 
L 360.831546 170.45904 
L 363.079041 170.559359 
L 365.326536 170.428487 
L 368.02353 170.015206 
L 370.271025 169.462331 
L 372.51852 168.696301 
L 374.766015 167.708778 
L 377.463009 166.27284 
L 380.160003 164.587068 
L 382.856997 162.656265 
L 386.003489 160.10266 
L 389.149982 157.234224 
L 392.745974 153.620363 
L 398.139962 148.133617 
L 400.836956 145.712317 
L 403.53395 143.600534 
L 406.230944 141.778529 
L 408.478439 140.487328 
L 410.725934 139.467638 
L 412.52393 138.910869 
L 414.321926 138.619615 
L 416.119922 138.604479 
L 417.917918 138.854747 
L 419.715914 139.344547 
L 421.513909 140.043633 
L 423.761404 141.17767 
L 426.008899 142.588619 
L 428.256394 144.300507 
L 430.503889 146.336373 
L 432.751384 148.699229 
L 435.448378 151.920838 
L 439.493869 157.004721 
L 440.842366 157.628883 
L 447.584851 160.240159 
L 458.372826 164.678252 
L 462.418317 166.042579 
L 465.56481 166.863681 
L 468.261804 167.352882 
L 470.958798 167.624406 
L 473.655792 167.675085 
L 476.802285 167.485502 
L 480.398277 167.019008 
L 483.994269 166.322687 
L 488.03976 165.302962 
L 493.433747 163.686021 
L 499.726733 161.841773 
L 504.221723 160.754496 
L 508.267214 160.00865 
L 511.413707 159.634456 
L 514.5602 159.487811 
L 518.156192 159.574163 
L 522.201683 159.927602 
L 525.797675 160.450197 
L 529.393666 161.19797 
L 545.57563 164.860717 
L 550.07062 165.536237 
L 553.666612 165.86015 
L 557.262604 165.96261 
L 560.858596 165.854316 
L 564.904086 165.508806 
L 569.399076 164.876263 
L 574.793064 163.856542 
L 580.636551 162.79027 
L 586.480038 161.957635 
L 591.874026 161.390185 
L 596.369016 161.129694 
L 601.313504 161.067984 
L 607.156991 161.222295 
L 612.10148 161.565883 
L 633.677432 163.383247 
L 639.071419 163.566818 
L 645.364405 163.53411 
L 652.10689 163.307473 
L 666.041359 162.675028 
L 678.62733 162.705336 
L 695.708292 162.872937 
L 705.59727 162.826397 
L 728.521718 162.506873 
L 735.713702 162.698921 
L 748.299673 163.257961 
L 759.087649 163.819686 
L 765.380635 163.930571 
L 770.774623 163.797654 
L 778.416106 163.340977 
L 787.406085 162.62234 
L 796.396065 161.900786 
L 802.689051 161.673203 
L 808.982037 161.648633 
L 814.825524 161.882916 
L 844.492457 163.369888 
L 851.684441 163.377374 
L 860.224921 163.148903 
L 870.563398 162.638922 
L 876.406885 162.143258 
L 882.699871 161.386101 
L 885.846364 160.932617 
L 885.846364 160.932617 
" clip-path="url(#p592ec1923e)" style="fill: none; stroke: #19d3c5; stroke-width: 3; stroke-linecap: square"/>
   </g>
   <g id="line2d_17">
    <path d="M 98.773636 130.4 
L 182.829947 130.499263 
L 195.865418 130.991562 
L 205.754395 131.015736 
L 221.037361 130.563018 
L 235.421329 130.657679 
L 239.466819 130.478139 
L 246.658803 129.982882 
L 251.603292 129.760843 
L 255.648783 129.859746 
L 260.143773 130.402381 
L 265.088262 131.443222 
L 270.48225 132.911767 
L 277.224734 135.023608 
L 284.866217 137.273798 
L 292.957199 139.38747 
L 303.745175 142.03962 
L 308.689664 143.34673 
L 319.02814 146.20287 
L 333.412108 149.91754 
L 340.154593 151.893253 
L 347.346577 154.323643 
L 354.988059 157.140582 
L 364.427538 160.866682 
L 372.51852 164.324311 
L 394.094471 174.274011 
L 398.139962 176.378491 
L 400.836956 177.907834 
L 405.781445 180.906154 
L 412.52393 185.28249 
L 419.715914 189.857287 
L 422.862406 191.66001 
L 426.907897 193.717893 
L 431.852386 195.774637 
L 436.796875 197.432124 
L 454.327336 202.809808 
L 461.968818 205.471418 
L 470.509299 208.539965 
L 472.307295 209.048762 
L 476.802285 210.115981 
L 484.893267 211.503795 
L 492.085251 212.52791 
L 496.130741 212.915114 
L 507.368216 213.701432 
L 531.191662 214.899865 
L 550.07062 215.289174 
L 559.959598 215.491195 
L 570.298074 215.898259 
L 579.737553 216.580472 
L 588.727533 217.257965 
L 623.788454 218.897133 
L 630.980438 218.949755 
L 649.409896 218.839364 
L 664.243363 218.508654 
L 681.773823 218.119433 
L 690.314304 218.113923 
L 734.365205 218.331713 
L 749.198671 218.183457 
L 775.719112 217.694352 
L 789.204081 217.226225 
L 812.12853 216.444355 
L 826.961996 216.280373 
L 839.098469 216.281091 
L 846.290453 216.316128 
L 885.846364 216.316128 
L 885.846364 216.316128 
" clip-path="url(#p592ec1923e)" style="fill: none; stroke: #19d3c5; stroke-opacity: 0.3; stroke-width: 6; stroke-linecap: square"/>
   </g>
   <g id="line2d_18">
    <path d="M 98.773636 130.4 
L 127.991071 130.402627 
L 300.598682 130.290947 
L 303.295676 130.00888 
L 305.99267 129.498598 
L 309.588662 128.586077 
L 312.735154 127.551224 
L 315.881647 126.270346 
L 320.376637 124.172195 
L 330.715114 118.990966 
L 334.311106 117.016034 
L 338.356597 114.498724 
L 343.750585 110.866846 
L 351.392067 105.414035 
L 367.124532 93.965397 
L 378.811506 85.921318 
L 382.407498 83.829422 
L 386.452988 81.749596 
L 390.04898 80.152104 
L 394.094471 78.620571 
L 401.286455 75.977115 
L 406.680443 73.653154 
L 411.175433 71.520624 
L 414.321926 69.781885 
L 417.468419 67.759103 
L 421.06441 65.147072 
L 426.008899 61.261487 
L 430.05439 57.821895 
L 433.650382 54.461538 
L 438.145372 49.900492 
L 438.594871 49.449177 
L 456.57483 49.45151 
L 854.381435 49.455037 
L 871.911895 49.561842 
L 877.305883 49.871957 
L 882.250372 50.364392 
L 885.846364 50.855884 
L 885.846364 50.855884 
" clip-path="url(#p592ec1923e)" style="fill: none; stroke: #fa525b; stroke-width: 3; stroke-linecap: square"/>
   </g>
   <g id="line2d_19">
    <path d="M 98.773636 130.4 
L 208.900888 130.498871 
L 212.49688 130.716551 
L 220.138363 131.32743 
L 226.431349 131.713703 
L 229.577842 131.752153 
L 234.072832 131.62084 
L 242.163813 131.052912 
L 253.401288 130.175366 
L 256.098282 129.787869 
L 260.593272 128.904847 
L 266.436759 127.401883 
L 278.573231 124.162554 
L 283.51772 123.198256 
L 288.911708 122.447625 
L 295.204694 121.8026 
L 307.790666 120.764231 
L 311.386657 120.287919 
L 321.725134 118.714575 
L 329.816116 117.356419 
L 340.154593 115.419178 
L 349.144572 113.475714 
L 363.079041 110.149567 
L 373.417518 107.383649 
L 393.644972 101.541069 
L 413.422928 95.6018 
L 442.190863 86.466511 
L 459.721323 80.769927 
L 466.463808 78.491873 
L 475.453788 75.445523 
L 488.489259 71.319545 
L 494.332745 69.48033 
L 506.019719 66.255134 
L 522.201683 62.008666 
L 528.04517 60.586354 
L 533.888656 59.374313 
L 543.328135 57.599623 
L 555.015109 55.809325 
L 568.500078 53.986187 
L 586.929537 51.770499 
L 592.773024 51.307691 
L 609.404486 50.274328 
L 617.495468 50.001359 
L 625.58645 49.93791 
L 646.712902 50.224703 
L 661.995868 50.59956 
L 689.864805 51.346406 
L 716.834744 52.010464 
L 773.921116 53.509319 
L 791.901075 54.483336 
L 833.254982 56.945314 
L 841.795463 57.288467 
L 885.846364 57.288467 
L 885.846364 57.288467 
" clip-path="url(#p592ec1923e)" style="fill: none; stroke: #fa525b; stroke-opacity: 0.3; stroke-width: 6; stroke-linecap: square"/>
   </g>
   <g id="patch_2">
    <path d="M 59.42 246.04 
L 59.42 14.76 
" style="fill: none; stroke: #585759; stroke-width: 0.8; stroke-linejoin: miter; stroke-linecap: square"/>
   </g>
   <g id="patch_3">
    <path d="M 59.42 246.04 
L 925.2 246.04 
" style="fill: none; stroke: #585759; stroke-width: 0.8; stroke-linejoin: miter; stroke-linecap: square"/>
   </g>
   <g id="legend_1">
    <g id="patch_4">
     <path d="M 66.42 81.4725 
L 198.166875 81.4725 
Q 200.166875 81.4725 200.166875 79.4725 
L 200.166875 21.76 
Q 200.166875 19.76 198.166875 19.76 
L 66.42 19.76 
Q 64.42 19.76 64.42 21.76 
L 64.42 79.4725 
Q 64.42 81.4725 66.42 81.4725 
z
" style="fill: #ffffff; opacity: 0.8; stroke: #cccccc; stroke-linejoin: miter"/>
    </g>
    <g id="line2d_20">
     <path d="M 68.42 27.858437 
L 78.42 27.858437 
L 88.42 27.858437 
" style="fill: none; stroke: #19d3c5; stroke-width: 3; stroke-linecap: square"/>
    </g>
    <g id="text_18">
     <!-- Prediction - Knee -->
     <g transform="translate(96.42 31.358437)scale(0.1 -0.1)">
      <defs>
       <path id="DejaVuSans-50" d="M 1259 4147 
L 1259 2394 
L 2053 2394 
Q 2494 2394 2734 2622 
Q 2975 2850 2975 3272 
Q 2975 3691 2734 3919 
Q 2494 4147 2053 4147 
L 1259 4147 
z
M 628 4666 
L 2053 4666 
Q 2838 4666 3239 4311 
Q 3641 3956 3641 3272 
Q 3641 2581 3239 2228 
Q 2838 1875 2053 1875 
L 1259 1875 
L 1259 0 
L 628 0 
L 628 4666 
z
" transform="scale(0.015625)"/>
       <path id="DejaVuSans-63" d="M 3122 3366 
L 3122 2828 
Q 2878 2963 2633 3030 
Q 2388 3097 2138 3097 
Q 1578 3097 1268 2742 
Q 959 2388 959 1747 
Q 959 1106 1268 751 
Q 1578 397 2138 397 
Q 2388 397 2633 464 
Q 2878 531 3122 666 
L 3122 134 
Q 2881 22 2623 -34 
Q 2366 -91 2075 -91 
Q 1284 -91 818 406 
Q 353 903 353 1747 
Q 353 2603 823 3093 
Q 1294 3584 2113 3584 
Q 2378 3584 2631 3529 
Q 2884 3475 3122 3366 
z
" transform="scale(0.015625)"/>
       <path id="DejaVuSans-74" d="M 1172 4494 
L 1172 3500 
L 2356 3500 
L 2356 3053 
L 1172 3053 
L 1172 1153 
Q 1172 725 1289 603 
Q 1406 481 1766 481 
L 2356 481 
L 2356 0 
L 1766 0 
Q 1100 0 847 248 
Q 594 497 594 1153 
L 594 3053 
L 172 3053 
L 172 3500 
L 594 3500 
L 594 4494 
L 1172 4494 
z
" transform="scale(0.015625)"/>
       <path id="DejaVuSans-6f" d="M 1959 3097 
Q 1497 3097 1228 2736 
Q 959 2375 959 1747 
Q 959 1119 1226 758 
Q 1494 397 1959 397 
Q 2419 397 2687 759 
Q 2956 1122 2956 1747 
Q 2956 2369 2687 2733 
Q 2419 3097 1959 3097 
z
M 1959 3584 
Q 2709 3584 3137 3096 
Q 3566 2609 3566 1747 
Q 3566 888 3137 398 
Q 2709 -91 1959 -91 
Q 1206 -91 779 398 
Q 353 888 353 1747 
Q 353 2609 779 3096 
Q 1206 3584 1959 3584 
z
" transform="scale(0.015625)"/>
       <path id="DejaVuSans-2d" d="M 313 2009 
L 1997 2009 
L 1997 1497 
L 313 1497 
L 313 2009 
z
" transform="scale(0.015625)"/>
       <path id="DejaVuSans-4b" d="M 628 4666 
L 1259 4666 
L 1259 2694 
L 3353 4666 
L 4166 4666 
L 1850 2491 
L 4331 0 
L 3500 0 
L 1259 2247 
L 1259 0 
L 628 0 
L 628 4666 
z
" transform="scale(0.015625)"/>
      </defs>
      <use xlink:href="#DejaVuSans-50"/>
      <use xlink:href="#DejaVuSans-72" x="58.552734"/>
      <use xlink:href="#DejaVuSans-65" x="97.416016"/>
      <use xlink:href="#DejaVuSans-64" x="158.939453"/>
      <use xlink:href="#DejaVuSans-69" x="222.416016"/>
      <use xlink:href="#DejaVuSans-63" x="250.199219"/>
      <use xlink:href="#DejaVuSans-74" x="305.179688"/>
      <use xlink:href="#DejaVuSans-69" x="344.388672"/>
      <use xlink:href="#DejaVuSans-6f" x="372.171875"/>
      <use xlink:href="#DejaVuSans-6e" x="433.353516"/>
      <use xlink:href="#DejaVuSans-20" x="496.732422"/>
      <use xlink:href="#DejaVuSans-2d" x="528.519531"/>
      <use xlink:href="#DejaVuSans-20" x="564.603516"/>
      <use xlink:href="#DejaVuSans-4b" x="596.390625"/>
      <use xlink:href="#DejaVuSans-6e" x="661.966797"/>
      <use xlink:href="#DejaVuSans-65" x="725.345703"/>
      <use xlink:href="#DejaVuSans-65" x="786.869141"/>
     </g>
    </g>
    <g id="line2d_21">
     <path d="M 68.42 42.536562 
L 78.42 42.536562 
L 88.42 42.536562 
" style="fill: none; stroke: #19d3c5; stroke-opacity: 0.3; stroke-width: 6; stroke-linecap: square"/>
    </g>
    <g id="text_19">
     <!-- Ground truth - Knee -->
     <g transform="translate(96.42 46.036562)scale(0.1 -0.1)">
      <defs>
       <path id="DejaVuSans-47" d="M 3809 666 
L 3809 1919 
L 2778 1919 
L 2778 2438 
L 4434 2438 
L 4434 434 
Q 4069 175 3628 42 
Q 3188 -91 2688 -91 
Q 1594 -91 976 548 
Q 359 1188 359 2328 
Q 359 3472 976 4111 
Q 1594 4750 2688 4750 
Q 3144 4750 3555 4637 
Q 3966 4525 4313 4306 
L 4313 3634 
Q 3963 3931 3569 4081 
Q 3175 4231 2741 4231 
Q 1884 4231 1454 3753 
Q 1025 3275 1025 2328 
Q 1025 1384 1454 906 
Q 1884 428 2741 428 
Q 3075 428 3337 486 
Q 3600 544 3809 666 
z
" transform="scale(0.015625)"/>
       <path id="DejaVuSans-75" d="M 544 1381 
L 544 3500 
L 1119 3500 
L 1119 1403 
Q 1119 906 1312 657 
Q 1506 409 1894 409 
Q 2359 409 2629 706 
Q 2900 1003 2900 1516 
L 2900 3500 
L 3475 3500 
L 3475 0 
L 2900 0 
L 2900 538 
Q 2691 219 2414 64 
Q 2138 -91 1772 -91 
Q 1169 -91 856 284 
Q 544 659 544 1381 
z
M 1991 3584 
L 1991 3584 
z
" transform="scale(0.015625)"/>
       <path id="DejaVuSans-68" d="M 3513 2113 
L 3513 0 
L 2938 0 
L 2938 2094 
Q 2938 2591 2744 2837 
Q 2550 3084 2163 3084 
Q 1697 3084 1428 2787 
Q 1159 2491 1159 1978 
L 1159 0 
L 581 0 
L 581 4863 
L 1159 4863 
L 1159 2956 
Q 1366 3272 1645 3428 
Q 1925 3584 2291 3584 
Q 2894 3584 3203 3211 
Q 3513 2838 3513 2113 
z
" transform="scale(0.015625)"/>
      </defs>
      <use xlink:href="#DejaVuSans-47"/>
      <use xlink:href="#DejaVuSans-72" x="77.490234"/>
      <use xlink:href="#DejaVuSans-6f" x="116.353516"/>
      <use xlink:href="#DejaVuSans-75" x="177.535156"/>
      <use xlink:href="#DejaVuSans-6e" x="240.914062"/>
      <use xlink:href="#DejaVuSans-64" x="304.292969"/>
      <use xlink:href="#DejaVuSans-20" x="367.769531"/>
      <use xlink:href="#DejaVuSans-74" x="399.556641"/>
      <use xlink:href="#DejaVuSans-72" x="438.765625"/>
      <use xlink:href="#DejaVuSans-75" x="479.878906"/>
      <use xlink:href="#DejaVuSans-74" x="543.257812"/>
      <use xlink:href="#DejaVuSans-68" x="582.466797"/>
      <use xlink:href="#DejaVuSans-20" x="645.845703"/>
      <use xlink:href="#DejaVuSans-2d" x="677.632812"/>
      <use xlink:href="#DejaVuSans-20" x="713.716797"/>
      <use xlink:href="#DejaVuSans-4b" x="745.503906"/>
      <use xlink:href="#DejaVuSans-6e" x="811.080078"/>
      <use xlink:href="#DejaVuSans-65" x="874.458984"/>
      <use xlink:href="#DejaVuSans-65" x="935.982422"/>
     </g>
    </g>
    <g id="line2d_22">
     <path d="M 68.42 57.214687 
L 78.42 57.214687 
L 88.42 57.214687 
" style="fill: none; stroke: #fa525b; stroke-width: 3; stroke-linecap: square"/>
    </g>
    <g id="text_20">
     <!-- Prediction - Hip -->
     <g transform="translate(96.42 60.714687)scale(0.1 -0.1)">
      <defs>
       <path id="DejaVuSans-48" d="M 628 4666 
L 1259 4666 
L 1259 2753 
L 3553 2753 
L 3553 4666 
L 4184 4666 
L 4184 0 
L 3553 0 
L 3553 2222 
L 1259 2222 
L 1259 0 
L 628 0 
L 628 4666 
z
" transform="scale(0.015625)"/>
       <path id="DejaVuSans-70" d="M 1159 525 
L 1159 -1331 
L 581 -1331 
L 581 3500 
L 1159 3500 
L 1159 2969 
Q 1341 3281 1617 3432 
Q 1894 3584 2278 3584 
Q 2916 3584 3314 3078 
Q 3713 2572 3713 1747 
Q 3713 922 3314 415 
Q 2916 -91 2278 -91 
Q 1894 -91 1617 61 
Q 1341 213 1159 525 
z
M 3116 1747 
Q 3116 2381 2855 2742 
Q 2594 3103 2138 3103 
Q 1681 3103 1420 2742 
Q 1159 2381 1159 1747 
Q 1159 1113 1420 752 
Q 1681 391 2138 391 
Q 2594 391 2855 752 
Q 3116 1113 3116 1747 
z
" transform="scale(0.015625)"/>
      </defs>
      <use xlink:href="#DejaVuSans-50"/>
      <use xlink:href="#DejaVuSans-72" x="58.552734"/>
      <use xlink:href="#DejaVuSans-65" x="97.416016"/>
      <use xlink:href="#DejaVuSans-64" x="158.939453"/>
      <use xlink:href="#DejaVuSans-69" x="222.416016"/>
      <use xlink:href="#DejaVuSans-63" x="250.199219"/>
      <use xlink:href="#DejaVuSans-74" x="305.179688"/>
      <use xlink:href="#DejaVuSans-69" x="344.388672"/>
      <use xlink:href="#DejaVuSans-6f" x="372.171875"/>
      <use xlink:href="#DejaVuSans-6e" x="433.353516"/>
      <use xlink:href="#DejaVuSans-20" x="496.732422"/>
      <use xlink:href="#DejaVuSans-2d" x="528.519531"/>
      <use xlink:href="#DejaVuSans-20" x="564.603516"/>
      <use xlink:href="#DejaVuSans-48" x="596.390625"/>
      <use xlink:href="#DejaVuSans-69" x="671.585938"/>
      <use xlink:href="#DejaVuSans-70" x="699.369141"/>
     </g>
    </g>
    <g id="line2d_23">
     <path d="M 68.42 71.892812 
L 78.42 71.892812 
L 88.42 71.892812 
" style="fill: none; stroke: #fa525b; stroke-opacity: 0.3; stroke-width: 6; stroke-linecap: square"/>
    </g>
    <g id="text_21">
     <!-- Ground truth - Hip -->
     <g transform="translate(96.42 75.392812)scale(0.1 -0.1)">
      <use xlink:href="#DejaVuSans-47"/>
      <use xlink:href="#DejaVuSans-72" x="77.490234"/>
      <use xlink:href="#DejaVuSans-6f" x="116.353516"/>
      <use xlink:href="#DejaVuSans-75" x="177.535156"/>
      <use xlink:href="#DejaVuSans-6e" x="240.914062"/>
      <use xlink:href="#DejaVuSans-64" x="304.292969"/>
      <use xlink:href="#DejaVuSans-20" x="367.769531"/>
      <use xlink:href="#DejaVuSans-74" x="399.556641"/>
      <use xlink:href="#DejaVuSans-72" x="438.765625"/>
      <use xlink:href="#DejaVuSans-75" x="479.878906"/>
      <use xlink:href="#DejaVuSans-74" x="543.257812"/>
      <use xlink:href="#DejaVuSans-68" x="582.466797"/>
      <use xlink:href="#DejaVuSans-20" x="645.845703"/>
      <use xlink:href="#DejaVuSans-2d" x="677.632812"/>
      <use xlink:href="#DejaVuSans-20" x="713.716797"/>
      <use xlink:href="#DejaVuSans-48" x="745.503906"/>
      <use xlink:href="#DejaVuSans-69" x="820.699219"/>
      <use xlink:href="#DejaVuSans-70" x="848.482422"/>
     </g>
    </g>
   </g>
  </g>
 </g>
 <defs>
  <clipPath id="p592ec1923e">
   <rect x="59.42" y="14.76" width="865.78" height="231.28"/>
  </clipPath>
 </defs>
</svg>
