<?xml version="1.0" encoding="utf-8" standalone="no"?>
<!DOCTYPE svg PUBLIC "-//W3C//DTD SVG 1.1//EN"
  "http://www.w3.org/Graphics/SVG/1.1/DTD/svg11.dtd">
<svg xmlns:xlink="http://www.w3.org/1999/xlink" width="936pt" height="180pt" viewBox="0 0 936 180" xmlns="http://www.w3.org/2000/svg" version="1.1">
 <metadata>
  <rdf:RDF xmlns:dc="http://purl.org/dc/elements/1.1/" xmlns:cc="http://creativecommons.org/ns#" xmlns:rdf="http://www.w3.org/1999/02/22-rdf-syntax-ns#">
   <cc:Work>
    <dc:type rdf:resource="http://purl.org/dc/dcmitype/StillImage"/>
    <dc:date>2023-01-13T23:45:11.991946</dc:date>
    <dc:format>image/svg+xml</dc:format>
    <dc:creator>
     <cc:Agent>
      <dc:title>Matplotlib v3.5.2, https://matplotlib.org/</dc:title>
     </cc:Agent>
    </dc:creator>
   </cc:Work>
  </rdf:RDF>
 </metadata>
 <defs>
  <style type="text/css">*{stroke-linejoin: round; stroke-linecap: butt}</style>
 </defs>
 <g id="figure_1">
  <g id="axes_1">
   <g id="patch_1">
    <path d="M 47.81 138.04 
L 123.412493 138.04 
L 123.412493 27.6 
L 47.81 27.6 
L 47.81 138.04 
z
" style="fill: none"/>
   </g>
   <g id="matplotlib.axis_1">
    <g id="xtick_1">
     <g id="line2d_1">
      <defs>
       <path id="maedbe0eb58" d="M 0 0 
L 0 3.5 
" style="stroke: #585759; stroke-width: 0.8"/>
      </defs>
      <g>
       <use xlink:href="#maedbe0eb58" x="51.246477" y="138.04" style="fill: #585759; stroke: #585759; stroke-width: 0.8"/>
      </g>
     </g>
     <g id="text_1">
      <!-- 0 -->
      <g style="fill: #585759" transform="translate(48.065227 152.638438)scale(0.1 -0.1)">
       <defs>
        <path id="DejaVuSans-30" d="M 2034 4250 
Q 1547 4250 1301 3770 
Q 1056 3291 1056 2328 
Q 1056 1369 1301 889 
Q 1547 409 2034 409 
Q 2525 409 2770 889 
Q 3016 1369 3016 2328 
Q 3016 3291 2770 3770 
Q 2525 4250 2034 4250 
z
M 2034 4750 
Q 2819 4750 3233 4129 
Q 3647 3509 3647 2328 
Q 3647 1150 3233 529 
Q 2819 -91 2034 -91 
Q 1250 -91 836 529 
Q 422 1150 422 2328 
Q 422 3509 836 4129 
Q 1250 4750 2034 4750 
z
" transform="scale(0.015625)"/>
       </defs>
       <use xlink:href="#DejaVuSans-30"/>
      </g>
     </g>
    </g>
    <g id="xtick_2">
     <g id="line2d_2">
      <g>
       <use xlink:href="#maedbe0eb58" x="119.976016" y="138.04" style="fill: #585759; stroke: #585759; stroke-width: 0.8"/>
      </g>
     </g>
     <g id="text_2">
      <!-- 1000 -->
      <g style="fill: #585759" transform="translate(107.251016 152.638438)scale(0.1 -0.1)">
       <defs>
        <path id="DejaVuSans-31" d="M 794 531 
L 1825 531 
L 1825 4091 
L 703 3866 
L 703 4441 
L 1819 4666 
L 2450 4666 
L 2450 531 
L 3481 531 
L 3481 0 
L 794 0 
L 794 531 
z
" transform="scale(0.015625)"/>
       </defs>
       <use xlink:href="#DejaVuSans-31"/>
       <use xlink:href="#DejaVuSans-30" x="63.623047"/>
       <use xlink:href="#DejaVuSans-30" x="127.246094"/>
       <use xlink:href="#DejaVuSans-30" x="190.869141"/>
      </g>
     </g>
    </g>
    <g id="text_3">
     <!-- Time [ms] -->
     <g style="fill: #585759" transform="translate(60.412028 166.316563)scale(0.1 -0.1)">
      <defs>
       <path id="DejaVuSans-54" d="M -19 4666 
L 3928 4666 
L 3928 4134 
L 2272 4134 
L 2272 0 
L 1638 0 
L 1638 4134 
L -19 4134 
L -19 4666 
z
" transform="scale(0.015625)"/>
       <path id="DejaVuSans-69" d="M 603 3500 
L 1178 3500 
L 1178 0 
L 603 0 
L 603 3500 
z
M 603 4863 
L 1178 4863 
L 1178 4134 
L 603 4134 
L 603 4863 
z
" transform="scale(0.015625)"/>
       <path id="DejaVuSans-6d" d="M 3328 2828 
Q 3544 3216 3844 3400 
Q 4144 3584 4550 3584 
Q 5097 3584 5394 3201 
Q 5691 2819 5691 2113 
L 5691 0 
L 5113 0 
L 5113 2094 
Q 5113 2597 4934 2840 
Q 4756 3084 4391 3084 
Q 3944 3084 3684 2787 
Q 3425 2491 3425 1978 
L 3425 0 
L 2847 0 
L 2847 2094 
Q 2847 2600 2669 2842 
Q 2491 3084 2119 3084 
Q 1678 3084 1418 2786 
Q 1159 2488 1159 1978 
L 1159 0 
L 581 0 
L 581 3500 
L 1159 3500 
L 1159 2956 
Q 1356 3278 1631 3431 
Q 1906 3584 2284 3584 
Q 2666 3584 2933 3390 
Q 3200 3197 3328 2828 
z
" transform="scale(0.015625)"/>
       <path id="DejaVuSans-65" d="M 3597 1894 
L 3597 1613 
L 953 1613 
Q 991 1019 1311 708 
Q 1631 397 2203 397 
Q 2534 397 2845 478 
Q 3156 559 3463 722 
L 3463 178 
Q 3153 47 2828 -22 
Q 2503 -91 2169 -91 
Q 1331 -91 842 396 
Q 353 884 353 1716 
Q 353 2575 817 3079 
Q 1281 3584 2069 3584 
Q 2775 3584 3186 3129 
Q 3597 2675 3597 1894 
z
M 3022 2063 
Q 3016 2534 2758 2815 
Q 2500 3097 2075 3097 
Q 1594 3097 1305 2825 
Q 1016 2553 972 2059 
L 3022 2063 
z
" transform="scale(0.015625)"/>
       <path id="DejaVuSans-20" transform="scale(0.015625)"/>
       <path id="DejaVuSans-5b" d="M 550 4863 
L 1875 4863 
L 1875 4416 
L 1125 4416 
L 1125 -397 
L 1875 -397 
L 1875 -844 
L 550 -844 
L 550 4863 
z
" transform="scale(0.015625)"/>
       <path id="DejaVuSans-73" d="M 2834 3397 
L 2834 2853 
Q 2591 2978 2328 3040 
Q 2066 3103 1784 3103 
Q 1356 3103 1142 2972 
Q 928 2841 928 2578 
Q 928 2378 1081 2264 
Q 1234 2150 1697 2047 
L 1894 2003 
Q 2506 1872 2764 1633 
Q 3022 1394 3022 966 
Q 3022 478 2636 193 
Q 2250 -91 1575 -91 
Q 1294 -91 989 -36 
Q 684 19 347 128 
L 347 722 
Q 666 556 975 473 
Q 1284 391 1588 391 
Q 1994 391 2212 530 
Q 2431 669 2431 922 
Q 2431 1156 2273 1281 
Q 2116 1406 1581 1522 
L 1381 1569 
Q 847 1681 609 1914 
Q 372 2147 372 2553 
Q 372 3047 722 3315 
Q 1072 3584 1716 3584 
Q 2034 3584 2315 3537 
Q 2597 3491 2834 3397 
z
" transform="scale(0.015625)"/>
       <path id="DejaVuSans-5d" d="M 1947 4863 
L 1947 -844 
L 622 -844 
L 622 -397 
L 1369 -397 
L 1369 4416 
L 622 4416 
L 622 4863 
L 1947 4863 
z
" transform="scale(0.015625)"/>
      </defs>
      <use xlink:href="#DejaVuSans-54"/>
      <use xlink:href="#DejaVuSans-69" x="57.958984"/>
      <use xlink:href="#DejaVuSans-6d" x="85.742188"/>
      <use xlink:href="#DejaVuSans-65" x="183.154297"/>
      <use xlink:href="#DejaVuSans-20" x="244.677734"/>
      <use xlink:href="#DejaVuSans-5b" x="276.464844"/>
      <use xlink:href="#DejaVuSans-6d" x="315.478516"/>
      <use xlink:href="#DejaVuSans-73" x="412.890625"/>
      <use xlink:href="#DejaVuSans-5d" x="464.990234"/>
     </g>
    </g>
   </g>
   <g id="matplotlib.axis_2">
    <g id="ytick_1">
     <g id="line2d_3">
      <defs>
       <path id="m53f5904152" d="M 0 0 
L -3.5 0 
" style="stroke: #585759; stroke-width: 0.8"/>
      </defs>
      <g>
       <use xlink:href="#m53f5904152" x="47.81" y="132.780952" style="fill: #585759; stroke: #585759; stroke-width: 0.8"/>
      </g>
     </g>
     <g id="text_4">
      <!-- 0.00 -->
      <g style="fill: #585759" transform="translate(18.544375 136.580171)scale(0.1 -0.1)">
       <defs>
        <path id="DejaVuSans-2e" d="M 684 794 
L 1344 794 
L 1344 0 
L 684 0 
L 684 794 
z
" transform="scale(0.015625)"/>
       </defs>
       <use xlink:href="#DejaVuSans-30"/>
       <use xlink:href="#DejaVuSans-2e" x="63.623047"/>
       <use xlink:href="#DejaVuSans-30" x="95.410156"/>
       <use xlink:href="#DejaVuSans-30" x="159.033203"/>
      </g>
     </g>
    </g>
    <g id="ytick_2">
     <g id="line2d_4">
      <g>
       <use xlink:href="#m53f5904152" x="47.81" y="106.485714" style="fill: #585759; stroke: #585759; stroke-width: 0.8"/>
      </g>
     </g>
     <g id="text_5">
      <!-- 0.25 -->
      <g style="fill: #585759" transform="translate(18.544375 110.284933)scale(0.1 -0.1)">
       <defs>
        <path id="DejaVuSans-32" d="M 1228 531 
L 3431 531 
L 3431 0 
L 469 0 
L 469 531 
Q 828 903 1448 1529 
Q 2069 2156 2228 2338 
Q 2531 2678 2651 2914 
Q 2772 3150 2772 3378 
Q 2772 3750 2511 3984 
Q 2250 4219 1831 4219 
Q 1534 4219 1204 4116 
Q 875 4013 500 3803 
L 500 4441 
Q 881 4594 1212 4672 
Q 1544 4750 1819 4750 
Q 2544 4750 2975 4387 
Q 3406 4025 3406 3419 
Q 3406 3131 3298 2873 
Q 3191 2616 2906 2266 
Q 2828 2175 2409 1742 
Q 1991 1309 1228 531 
z
" transform="scale(0.015625)"/>
        <path id="DejaVuSans-35" d="M 691 4666 
L 3169 4666 
L 3169 4134 
L 1269 4134 
L 1269 2991 
Q 1406 3038 1543 3061 
Q 1681 3084 1819 3084 
Q 2600 3084 3056 2656 
Q 3513 2228 3513 1497 
Q 3513 744 3044 326 
Q 2575 -91 1722 -91 
Q 1428 -91 1123 -41 
Q 819 9 494 109 
L 494 744 
Q 775 591 1075 516 
Q 1375 441 1709 441 
Q 2250 441 2565 725 
Q 2881 1009 2881 1497 
Q 2881 1984 2565 2268 
Q 2250 2553 1709 2553 
Q 1456 2553 1204 2497 
Q 953 2441 691 2322 
L 691 4666 
z
" transform="scale(0.015625)"/>
       </defs>
       <use xlink:href="#DejaVuSans-30"/>
       <use xlink:href="#DejaVuSans-2e" x="63.623047"/>
       <use xlink:href="#DejaVuSans-32" x="95.410156"/>
       <use xlink:href="#DejaVuSans-35" x="159.033203"/>
      </g>
     </g>
    </g>
    <g id="ytick_3">
     <g id="line2d_5">
      <g>
       <use xlink:href="#m53f5904152" x="47.81" y="80.190476" style="fill: #585759; stroke: #585759; stroke-width: 0.8"/>
      </g>
     </g>
     <g id="text_6">
      <!-- 0.50 -->
      <g style="fill: #585759" transform="translate(18.544375 83.989695)scale(0.1 -0.1)">
       <use xlink:href="#DejaVuSans-30"/>
       <use xlink:href="#DejaVuSans-2e" x="63.623047"/>
       <use xlink:href="#DejaVuSans-35" x="95.410156"/>
       <use xlink:href="#DejaVuSans-30" x="159.033203"/>
      </g>
     </g>
    </g>
    <g id="ytick_4">
     <g id="line2d_6">
      <g>
       <use xlink:href="#m53f5904152" x="47.81" y="53.895238" style="fill: #585759; stroke: #585759; stroke-width: 0.8"/>
      </g>
     </g>
     <g id="text_7">
      <!-- 0.75 -->
      <g style="fill: #585759" transform="translate(18.544375 57.694457)scale(0.1 -0.1)">
       <defs>
        <path id="DejaVuSans-37" d="M 525 4666 
L 3525 4666 
L 3525 4397 
L 1831 0 
L 1172 0 
L 2766 4134 
L 525 4134 
L 525 4666 
z
" transform="scale(0.015625)"/>
       </defs>
       <use xlink:href="#DejaVuSans-30"/>
       <use xlink:href="#DejaVuSans-2e" x="63.623047"/>
       <use xlink:href="#DejaVuSans-37" x="95.410156"/>
       <use xlink:href="#DejaVuSans-35" x="159.033203"/>
      </g>
     </g>
    </g>
    <g id="ytick_5">
     <g id="line2d_7">
      <g>
       <use xlink:href="#m53f5904152" x="47.81" y="27.6" style="fill: #585759; stroke: #585759; stroke-width: 0.8"/>
      </g>
     </g>
     <g id="text_8">
      <!-- 1.00 -->
      <g style="fill: #585759" transform="translate(18.544375 31.399219)scale(0.1 -0.1)">
       <use xlink:href="#DejaVuSans-31"/>
       <use xlink:href="#DejaVuSans-2e" x="63.623047"/>
       <use xlink:href="#DejaVuSans-30" x="95.410156"/>
       <use xlink:href="#DejaVuSans-30" x="159.033203"/>
      </g>
     </g>
    </g>
    <g id="text_9">
     <!-- Activation [a.u.] -->
     <g style="fill: #585759" transform="translate(12.464688 122.753594)rotate(-90)scale(0.1 -0.1)">
      <defs>
       <path id="DejaVuSans-41" d="M 2188 4044 
L 1331 1722 
L 3047 1722 
L 2188 4044 
z
M 1831 4666 
L 2547 4666 
L 4325 0 
L 3669 0 
L 3244 1197 
L 1141 1197 
L 716 0 
L 50 0 
L 1831 4666 
z
" transform="scale(0.015625)"/>
       <path id="DejaVuSans-63" d="M 3122 3366 
L 3122 2828 
Q 2878 2963 2633 3030 
Q 2388 3097 2138 3097 
Q 1578 3097 1268 2742 
Q 959 2388 959 1747 
Q 959 1106 1268 751 
Q 1578 397 2138 397 
Q 2388 397 2633 464 
Q 2878 531 3122 666 
L 3122 134 
Q 2881 22 2623 -34 
Q 2366 -91 2075 -91 
Q 1284 -91 818 406 
Q 353 903 353 1747 
Q 353 2603 823 3093 
Q 1294 3584 2113 3584 
Q 2378 3584 2631 3529 
Q 2884 3475 3122 3366 
z
" transform="scale(0.015625)"/>
       <path id="DejaVuSans-74" d="M 1172 4494 
L 1172 3500 
L 2356 3500 
L 2356 3053 
L 1172 3053 
L 1172 1153 
Q 1172 725 1289 603 
Q 1406 481 1766 481 
L 2356 481 
L 2356 0 
L 1766 0 
Q 1100 0 847 248 
Q 594 497 594 1153 
L 594 3053 
L 172 3053 
L 172 3500 
L 594 3500 
L 594 4494 
L 1172 4494 
z
" transform="scale(0.015625)"/>
       <path id="DejaVuSans-76" d="M 191 3500 
L 800 3500 
L 1894 563 
L 2988 3500 
L 3597 3500 
L 2284 0 
L 1503 0 
L 191 3500 
z
" transform="scale(0.015625)"/>
       <path id="DejaVuSans-61" d="M 2194 1759 
Q 1497 1759 1228 1600 
Q 959 1441 959 1056 
Q 959 750 1161 570 
Q 1363 391 1709 391 
Q 2188 391 2477 730 
Q 2766 1069 2766 1631 
L 2766 1759 
L 2194 1759 
z
M 3341 1997 
L 3341 0 
L 2766 0 
L 2766 531 
Q 2569 213 2275 61 
Q 1981 -91 1556 -91 
Q 1019 -91 701 211 
Q 384 513 384 1019 
Q 384 1609 779 1909 
Q 1175 2209 1959 2209 
L 2766 2209 
L 2766 2266 
Q 2766 2663 2505 2880 
Q 2244 3097 1772 3097 
Q 1472 3097 1187 3025 
Q 903 2953 641 2809 
L 641 3341 
Q 956 3463 1253 3523 
Q 1550 3584 1831 3584 
Q 2591 3584 2966 3190 
Q 3341 2797 3341 1997 
z
" transform="scale(0.015625)"/>
       <path id="DejaVuSans-6f" d="M 1959 3097 
Q 1497 3097 1228 2736 
Q 959 2375 959 1747 
Q 959 1119 1226 758 
Q 1494 397 1959 397 
Q 2419 397 2687 759 
Q 2956 1122 2956 1747 
Q 2956 2369 2687 2733 
Q 2419 3097 1959 3097 
z
M 1959 3584 
Q 2709 3584 3137 3096 
Q 3566 2609 3566 1747 
Q 3566 888 3137 398 
Q 2709 -91 1959 -91 
Q 1206 -91 779 398 
Q 353 888 353 1747 
Q 353 2609 779 3096 
Q 1206 3584 1959 3584 
z
" transform="scale(0.015625)"/>
       <path id="DejaVuSans-6e" d="M 3513 2113 
L 3513 0 
L 2938 0 
L 2938 2094 
Q 2938 2591 2744 2837 
Q 2550 3084 2163 3084 
Q 1697 3084 1428 2787 
Q 1159 2491 1159 1978 
L 1159 0 
L 581 0 
L 581 3500 
L 1159 3500 
L 1159 2956 
Q 1366 3272 1645 3428 
Q 1925 3584 2291 3584 
Q 2894 3584 3203 3211 
Q 3513 2838 3513 2113 
z
" transform="scale(0.015625)"/>
       <path id="DejaVuSans-75" d="M 544 1381 
L 544 3500 
L 1119 3500 
L 1119 1403 
Q 1119 906 1312 657 
Q 1506 409 1894 409 
Q 2359 409 2629 706 
Q 2900 1003 2900 1516 
L 2900 3500 
L 3475 3500 
L 3475 0 
L 2900 0 
L 2900 538 
Q 2691 219 2414 64 
Q 2138 -91 1772 -91 
Q 1169 -91 856 284 
Q 544 659 544 1381 
z
M 1991 3584 
L 1991 3584 
z
" transform="scale(0.015625)"/>
      </defs>
      <use xlink:href="#DejaVuSans-41"/>
      <use xlink:href="#DejaVuSans-63" x="66.658203"/>
      <use xlink:href="#DejaVuSans-74" x="121.638672"/>
      <use xlink:href="#DejaVuSans-69" x="160.847656"/>
      <use xlink:href="#DejaVuSans-76" x="188.630859"/>
      <use xlink:href="#DejaVuSans-61" x="247.810547"/>
      <use xlink:href="#DejaVuSans-74" x="309.089844"/>
      <use xlink:href="#DejaVuSans-69" x="348.298828"/>
      <use xlink:href="#DejaVuSans-6f" x="376.082031"/>
      <use xlink:href="#DejaVuSans-6e" x="437.263672"/>
      <use xlink:href="#DejaVuSans-20" x="500.642578"/>
      <use xlink:href="#DejaVuSans-5b" x="532.429688"/>
      <use xlink:href="#DejaVuSans-61" x="571.443359"/>
      <use xlink:href="#DejaVuSans-2e" x="632.722656"/>
      <use xlink:href="#DejaVuSans-75" x="664.509766"/>
      <use xlink:href="#DejaVuSans-2e" x="727.888672"/>
      <use xlink:href="#DejaVuSans-5d" x="759.675781"/>
     </g>
    </g>
   </g>
   <g id="line2d_8">
    <path d="M 51.246477 132.780953 
L 55.171636 132.679148 
L 55.917416 132.347522 
L 56.270681 132.768148 
L 56.349184 132.643712 
L 56.50619 131.78971 
L 56.859455 129.468324 
L 56.937958 129.663398 
L 57.212719 130.99097 
L 57.251971 130.968 
L 57.369725 130.441023 
L 57.683738 128.90384 
L 57.958499 129.053228 
L 58.272512 128.070232 
L 58.311764 128.145798 
L 58.46877 129.211496 
L 58.822034 131.848743 
L 58.939789 131.879673 
L 59.096796 131.531274 
L 59.332305 130.384142 
L 59.724821 128.219003 
L 59.842576 128.718296 
L 60.117337 130.421925 
L 60.156589 130.373464 
L 60.274343 129.644617 
L 60.549104 127.903482 
L 60.666859 128.318543 
L 60.784614 128.639096 
L 60.823866 128.519659 
L 60.94162 127.104865 
L 61.294885 120.357201 
L 61.334136 120.433525 
L 61.451891 121.892503 
L 61.765904 125.792887 
L 61.883659 125.35415 
L 62.079917 124.702691 
L 62.354678 124.875813 
L 62.393929 124.798281 
L 62.629439 124.496822 
L 62.747194 124.450909 
L 62.864948 123.509668 
L 63.218213 117.206542 
L 63.296716 117.907913 
L 63.610729 124.777483 
L 63.689232 124.253542 
L 64.003245 117.346953 
L 64.081748 117.728517 
L 64.278006 122.810586 
L 64.552767 128.354799 
L 64.670522 128.816415 
L 64.709773 128.774458 
L 64.827528 128.030813 
L 65.259296 122.452229 
L 65.337799 122.798403 
L 65.494805 123.643548 
L 65.534057 123.532103 
L 65.651812 121.896886 
L 65.926573 116.145435 
L 65.965824 116.183846 
L 66.083579 118.423115 
L 66.436843 128.479251 
L 66.476095 128.251771 
L 66.633101 124.597254 
L 66.868611 119.623035 
L 66.907862 119.660765 
L 67.025617 121.340613 
L 67.535888 131.649732 
L 67.57514 131.669481 
L 67.653643 131.12935 
L 67.810649 127.561676 
L 68.163913 119.097093 
L 68.242417 119.197919 
L 68.32092 119.290373 
L 68.399423 118.638453 
L 68.556429 114.022235 
L 68.752687 108.29239 
L 68.791939 108.341487 
L 68.909694 111.745633 
L 69.223706 125.360574 
L 69.262958 125.190073 
L 69.380713 121.727446 
L 69.655474 112.751389 
L 69.694726 112.883687 
L 69.81248 115.364887 
L 70.126493 122.599454 
L 70.283499 122.803393 
L 70.362003 122.949804 
L 70.597512 124.167341 
L 70.676015 123.985705 
L 70.872273 121.608396 
L 71.107783 119.819876 
L 71.225538 119.079917 
L 71.421796 114.960375 
L 71.578802 112.285179 
L 71.618054 112.391243 
L 71.735808 114.952541 
L 72.049821 123.39838 
L 72.128324 122.611221 
L 72.363834 118.73422 
L 72.403085 118.750292 
L 72.52084 120.197386 
L 72.717098 122.898379 
L 72.75635 122.877929 
L 72.874105 121.670015 
L 73.070363 119.77558 
L 73.148866 120.297792 
L 73.541382 125.066652 
L 73.580633 124.962708 
L 73.776891 124.294701 
L 73.816143 124.367662 
L 74.051652 125.532699 
L 74.090904 125.407646 
L 74.208659 123.746962 
L 74.522671 117.185395 
L 74.561923 117.279908 
L 74.679678 119.092627 
L 75.032942 124.875043 
L 75.111445 124.711909 
L 75.307703 124.123885 
L 75.346955 124.155524 
L 75.543213 124.544159 
L 75.582464 124.521465 
L 75.857226 123.84489 
L 75.896477 123.959542 
L 76.053484 125.361731 
L 76.367496 127.932129 
L 76.485251 127.191882 
L 76.838515 121.839189 
L 77.309535 113.842668 
L 77.388038 114.403812 
L 77.545044 118.909891 
L 77.819805 126.084517 
L 77.898308 125.541758 
L 78.094566 120.239548 
L 78.408579 113.680547 
L 78.722592 111.351489 
L 78.801095 112.061502 
L 78.958101 116.639171 
L 79.272114 126.463183 
L 79.311366 126.535276 
L 79.389869 125.757848 
L 79.66463 118.310716 
L 79.978643 112.81289 
L 80.135649 111.606582 
L 80.174901 111.71966 
L 80.292656 113.71972 
L 80.724423 127.985863 
L 80.802926 127.69618 
L 81.195442 122.485584 
L 81.273945 122.71845 
L 81.509455 123.547972 
L 81.666461 123.416577 
L 81.744965 123.852358 
L 81.901971 126.670943 
L 82.13748 131.170925 
L 82.176732 131.141452 
L 82.294487 129.097861 
L 82.804758 115.202091 
L 82.883261 115.635629 
L 83.040267 118.329535 
L 83.589789 129.410218 
L 83.668293 129.517237 
L 83.707544 129.438399 
L 83.825299 128.640937 
L 84.10006 124.273705 
L 84.33557 121.90711 
L 84.414073 121.829148 
L 84.453324 121.907706 
L 84.571079 122.60804 
L 84.806589 125.850843 
L 85.08135 128.603643 
L 85.159853 128.359362 
L 85.356111 125.983335 
L 85.709375 122.162687 
L 85.787879 122.124729 
L 85.905633 122.551317 
L 86.101891 124.543708 
L 86.533659 129.53913 
L 86.612162 129.578988 
L 86.729917 129.214793 
L 87.200936 127.385909 
L 87.357942 127.207009 
L 87.397194 127.231986 
L 87.514949 127.67093 
L 87.711207 129.914289 
L 87.946716 132.503361 
L 87.985968 132.460062 
L 88.103723 130.965964 
L 88.339232 122.799772 
L 88.613993 115.505599 
L 88.653245 115.400105 
L 88.692496 115.548393 
L 88.810251 117.36475 
L 89.399025 131.732089 
L 89.438277 131.640708 
L 89.556032 130.472012 
L 90.144805 121.736742 
L 90.184057 121.742975 
L 90.301812 122.231388 
L 90.458818 124.228583 
L 90.929837 132.470837 
L 90.969089 132.360585 
L 91.126095 130.662902 
L 91.440108 127.283124 
L 91.636366 126.888059 
L 91.754121 126.98663 
L 91.871875 127.569725 
L 92.107385 130.559805 
L 92.342895 132.867374 
L 92.421398 132.444311 
L 92.578404 129.093483 
L 93.088675 114.178746 
L 93.127926 114.333142 
L 93.245681 116.67921 
L 93.755952 133.042056 
L 93.795204 132.788197 
L 93.991461 129.090229 
L 94.266223 125.065697 
L 94.305474 124.993249 
L 94.344726 125.029439 
L 94.501732 125.849951 
L 94.815745 128.814421 
L 95.169009 133.288208 
L 95.208261 133.264367 
L 95.286764 132.564213 
L 95.44377 128.446036 
L 95.954041 113.178441 
L 96.032544 113.909134 
L 96.268054 120.11883 
L 96.621318 127.434389 
L 96.699821 127.676664 
L 96.739073 127.482057 
L 96.856828 125.235401 
L 97.092337 113.359538 
L 97.367098 102.923998 
L 97.445602 104.00132 
L 97.64186 113.433376 
L 97.955872 126.041111 
L 98.15213 127.173859 
L 98.230634 127.040162 
L 98.348388 126.243587 
L 98.544646 122.484037 
L 98.858659 115.772252 
L 98.897911 115.81439 
L 99.015665 117.675789 
L 99.565188 132.126147 
L 99.604439 132.060387 
L 99.722194 130.510946 
L 99.918452 123.321275 
L 100.310968 108.280319 
L 100.389471 109.072662 
L 100.546477 115.662261 
L 100.899742 131.845217 
L 100.938993 131.988347 
L 100.978245 131.748299 
L 101.135251 127.93377 
L 101.527767 117.155575 
L 101.60627 116.973637 
L 101.724025 118.056725 
L 101.959535 123.56459 
L 102.352051 132.374611 
L 102.391302 132.538114 
L 102.430554 132.521774 
L 102.548309 131.407855 
L 102.783818 125.538495 
L 103.097831 119.414601 
L 103.215586 119.170242 
L 103.254837 119.185137 
L 103.411844 119.34979 
L 103.529599 120.038611 
L 103.686605 122.977932 
L 104.039869 130.183703 
L 104.157624 128.505648 
L 104.510888 121.278266 
L 104.589392 121.967071 
L 104.864153 128.696028 
L 105.099662 131.712681 
L 105.178165 131.473749 
L 105.374423 129.054645 
L 105.688436 125.438503 
L 105.766939 125.29527 
L 105.806191 125.329899 
L 106.002449 125.765545 
L 106.0417 125.732124 
L 106.159455 125.090258 
L 106.434216 122.868607 
L 106.473468 122.997197 
L 106.591223 124.50014 
L 107.02299 132.430311 
L 107.062242 132.346533 
L 107.179997 130.978925 
L 107.729519 119.657543 
L 107.808022 120.001326 
L 107.965029 122.507851 
L 108.396796 129.919024 
L 108.475299 129.455125 
L 108.710809 125.323363 
L 108.98557 121.80882 
L 109.103325 121.604709 
L 109.221079 122.125319 
L 109.378086 124.354346 
L 109.770602 132.074644 
L 109.809853 131.938237 
L 109.927608 129.885138 
L 110.398627 117.162202 
L 110.437879 117.269026 
L 110.555634 118.843541 
L 111.183659 132.110184 
L 111.222911 131.947683 
L 111.379917 129.941203 
L 111.811685 123.205958 
L 111.890188 123.122674 
L 111.929439 123.188599 
L 112.125697 124.035496 
L 112.321955 125.928441 
L 112.714471 131.383971 
L 112.753723 131.163344 
L 112.871478 128.976473 
L 113.381748 115.774043 
L 113.421 115.828901 
L 113.538755 117.054306 
L 113.774264 123.434123 
L 114.088277 130.987528 
L 114.16678 131.27451 
L 114.206032 131.177092 
L 114.363038 129.561036 
L 115.030315 120.6322 
L 115.069567 120.570597 
L 115.108818 120.611197 
L 115.226573 121.49168 
L 115.462083 126.299437 
L 115.736844 130.447545 
L 115.933102 130.791141 
L 116.050857 131.089115 
L 116.521876 133.070703 
L 116.561127 133.051902 
L 117.032146 132.709923 
L 117.424662 132.810169 
L 118.170443 132.785996 
L 119.976016 132.780993 
L 119.976016 132.780993 
" clip-path="url(#p824d434b4b)" style="fill: none; stroke: #7e7b7d; stroke-linecap: square"/>
   </g>
   <g id="patch_2">
    <path d="M 47.81 138.04 
L 47.81 27.6 
" style="fill: none; stroke: #585759; stroke-width: 0.8; stroke-linejoin: miter; stroke-linecap: square"/>
   </g>
   <g id="patch_3">
    <path d="M 47.81 138.04 
L 123.412493 138.04 
" style="fill: none; stroke: #585759; stroke-width: 0.8; stroke-linejoin: miter; stroke-linecap: square"/>
   </g>
   <g id="text_10">
    <!-- Il -->
    <g style="fill: #585759" transform="translate(81.486996 21.6)scale(0.144 -0.144)">
     <defs>
      <path id="DejaVuSans-49" d="M 628 4666 
L 1259 4666 
L 1259 0 
L 628 0 
L 628 4666 
z
" transform="scale(0.015625)"/>
      <path id="DejaVuSans-6c" d="M 603 4863 
L 1178 4863 
L 1178 0 
L 603 0 
L 603 4863 
z
" transform="scale(0.015625)"/>
     </defs>
     <use xlink:href="#DejaVuSans-49"/>
     <use xlink:href="#DejaVuSans-6c" x="29.492188"/>
    </g>
   </g>
  </g>
  <g id="axes_2">
   <g id="patch_4">
    <path d="M 179.981429 138.04 
L 255.583921 138.04 
L 255.583921 27.6 
L 179.981429 27.6 
L 179.981429 138.04 
z
" style="fill: none"/>
   </g>
   <g id="matplotlib.axis_3">
    <g id="xtick_3">
     <g id="line2d_9">
      <g>
       <use xlink:href="#maedbe0eb58" x="183.417906" y="138.04" style="fill: #585759; stroke: #585759; stroke-width: 0.8"/>
      </g>
     </g>
     <g id="text_11">
      <!-- 0 -->
      <g style="fill: #585759" transform="translate(180.236656 152.638438)scale(0.1 -0.1)">
       <use xlink:href="#DejaVuSans-30"/>
      </g>
     </g>
    </g>
    <g id="xtick_4">
     <g id="line2d_10">
      <g>
       <use xlink:href="#maedbe0eb58" x="252.147444" y="138.04" style="fill: #585759; stroke: #585759; stroke-width: 0.8"/>
      </g>
     </g>
     <g id="text_12">
      <!-- 1000 -->
      <g style="fill: #585759" transform="translate(239.422444 152.638438)scale(0.1 -0.1)">
       <use xlink:href="#DejaVuSans-31"/>
       <use xlink:href="#DejaVuSans-30" x="63.623047"/>
       <use xlink:href="#DejaVuSans-30" x="127.246094"/>
       <use xlink:href="#DejaVuSans-30" x="190.869141"/>
      </g>
     </g>
    </g>
    <g id="text_13">
     <!-- Time [ms] -->
     <g style="fill: #585759" transform="translate(192.583456 166.316563)scale(0.1 -0.1)">
      <use xlink:href="#DejaVuSans-54"/>
      <use xlink:href="#DejaVuSans-69" x="57.958984"/>
      <use xlink:href="#DejaVuSans-6d" x="85.742188"/>
      <use xlink:href="#DejaVuSans-65" x="183.154297"/>
      <use xlink:href="#DejaVuSans-20" x="244.677734"/>
      <use xlink:href="#DejaVuSans-5b" x="276.464844"/>
      <use xlink:href="#DejaVuSans-6d" x="315.478516"/>
      <use xlink:href="#DejaVuSans-73" x="412.890625"/>
      <use xlink:href="#DejaVuSans-5d" x="464.990234"/>
     </g>
    </g>
   </g>
   <g id="matplotlib.axis_4">
    <g id="ytick_6">
     <g id="line2d_11">
      <g>
       <use xlink:href="#m53f5904152" x="179.981429" y="132.780952" style="fill: #585759; stroke: #585759; stroke-width: 0.8"/>
      </g>
     </g>
     <g id="text_14">
      <!-- 0.00 -->
      <g style="fill: #585759" transform="translate(150.715804 136.580171)scale(0.1 -0.1)">
       <use xlink:href="#DejaVuSans-30"/>
       <use xlink:href="#DejaVuSans-2e" x="63.623047"/>
       <use xlink:href="#DejaVuSans-30" x="95.410156"/>
       <use xlink:href="#DejaVuSans-30" x="159.033203"/>
      </g>
     </g>
    </g>
    <g id="ytick_7">
     <g id="line2d_12">
      <g>
       <use xlink:href="#m53f5904152" x="179.981429" y="106.485714" style="fill: #585759; stroke: #585759; stroke-width: 0.8"/>
      </g>
     </g>
     <g id="text_15">
      <!-- 0.25 -->
      <g style="fill: #585759" transform="translate(150.715804 110.284933)scale(0.1 -0.1)">
       <use xlink:href="#DejaVuSans-30"/>
       <use xlink:href="#DejaVuSans-2e" x="63.623047"/>
       <use xlink:href="#DejaVuSans-32" x="95.410156"/>
       <use xlink:href="#DejaVuSans-35" x="159.033203"/>
      </g>
     </g>
    </g>
    <g id="ytick_8">
     <g id="line2d_13">
      <g>
       <use xlink:href="#m53f5904152" x="179.981429" y="80.190476" style="fill: #585759; stroke: #585759; stroke-width: 0.8"/>
      </g>
     </g>
     <g id="text_16">
      <!-- 0.50 -->
      <g style="fill: #585759" transform="translate(150.715804 83.989695)scale(0.1 -0.1)">
       <use xlink:href="#DejaVuSans-30"/>
       <use xlink:href="#DejaVuSans-2e" x="63.623047"/>
       <use xlink:href="#DejaVuSans-35" x="95.410156"/>
       <use xlink:href="#DejaVuSans-30" x="159.033203"/>
      </g>
     </g>
    </g>
    <g id="ytick_9">
     <g id="line2d_14">
      <g>
       <use xlink:href="#m53f5904152" x="179.981429" y="53.895238" style="fill: #585759; stroke: #585759; stroke-width: 0.8"/>
      </g>
     </g>
     <g id="text_17">
      <!-- 0.75 -->
      <g style="fill: #585759" transform="translate(150.715804 57.694457)scale(0.1 -0.1)">
       <use xlink:href="#DejaVuSans-30"/>
       <use xlink:href="#DejaVuSans-2e" x="63.623047"/>
       <use xlink:href="#DejaVuSans-37" x="95.410156"/>
       <use xlink:href="#DejaVuSans-35" x="159.033203"/>
      </g>
     </g>
    </g>
    <g id="ytick_10">
     <g id="line2d_15">
      <g>
       <use xlink:href="#m53f5904152" x="179.981429" y="27.6" style="fill: #585759; stroke: #585759; stroke-width: 0.8"/>
      </g>
     </g>
     <g id="text_18">
      <!-- 1.00 -->
      <g style="fill: #585759" transform="translate(150.715804 31.399219)scale(0.1 -0.1)">
       <use xlink:href="#DejaVuSans-31"/>
       <use xlink:href="#DejaVuSans-2e" x="63.623047"/>
       <use xlink:href="#DejaVuSans-30" x="95.410156"/>
       <use xlink:href="#DejaVuSans-30" x="159.033203"/>
      </g>
     </g>
    </g>
    <g id="text_19">
     <!--   -->
     <g style="fill: #585759" transform="translate(144.636116 84.409062)rotate(-90)scale(0.1 -0.1)">
      <use xlink:href="#DejaVuSans-20"/>
     </g>
    </g>
   </g>
   <g id="line2d_16">
    <path d="M 183.417906 132.780952 
L 252.147444 132.780952 
L 252.147444 132.780952 
" clip-path="url(#pbc8ee43659)" style="fill: none; stroke: #7e7b7d; stroke-linecap: square"/>
   </g>
   <g id="patch_5">
    <path d="M 179.981429 138.04 
L 179.981429 27.6 
" style="fill: none; stroke: #585759; stroke-width: 0.8; stroke-linejoin: miter; stroke-linecap: square"/>
   </g>
   <g id="patch_6">
    <path d="M 179.981429 138.04 
L 255.583921 138.04 
" style="fill: none; stroke: #585759; stroke-width: 0.8; stroke-linejoin: miter; stroke-linecap: square"/>
   </g>
   <g id="text_20">
    <!-- GMax -->
    <g style="fill: #585759" transform="translate(197.3178 21.6)scale(0.144 -0.144)">
     <defs>
      <path id="DejaVuSans-47" d="M 3809 666 
L 3809 1919 
L 2778 1919 
L 2778 2438 
L 4434 2438 
L 4434 434 
Q 4069 175 3628 42 
Q 3188 -91 2688 -91 
Q 1594 -91 976 548 
Q 359 1188 359 2328 
Q 359 3472 976 4111 
Q 1594 4750 2688 4750 
Q 3144 4750 3555 4637 
Q 3966 4525 4313 4306 
L 4313 3634 
Q 3963 3931 3569 4081 
Q 3175 4231 2741 4231 
Q 1884 4231 1454 3753 
Q 1025 3275 1025 2328 
Q 1025 1384 1454 906 
Q 1884 428 2741 428 
Q 3075 428 3337 486 
Q 3600 544 3809 666 
z
" transform="scale(0.015625)"/>
      <path id="DejaVuSans-4d" d="M 628 4666 
L 1569 4666 
L 2759 1491 
L 3956 4666 
L 4897 4666 
L 4897 0 
L 4281 0 
L 4281 4097 
L 3078 897 
L 2444 897 
L 1241 4097 
L 1241 0 
L 628 0 
L 628 4666 
z
" transform="scale(0.015625)"/>
      <path id="DejaVuSans-78" d="M 3513 3500 
L 2247 1797 
L 3578 0 
L 2900 0 
L 1881 1375 
L 863 0 
L 184 0 
L 1544 1831 
L 300 3500 
L 978 3500 
L 1906 2253 
L 2834 3500 
L 3513 3500 
z
" transform="scale(0.015625)"/>
     </defs>
     <use xlink:href="#DejaVuSans-47"/>
     <use xlink:href="#DejaVuSans-4d" x="77.490234"/>
     <use xlink:href="#DejaVuSans-61" x="163.769531"/>
     <use xlink:href="#DejaVuSans-78" x="225.048828"/>
    </g>
   </g>
  </g>
  <g id="axes_3">
   <g id="patch_7">
    <path d="M 312.152857 138.04 
L 387.75535 138.04 
L 387.75535 27.6 
L 312.152857 27.6 
L 312.152857 138.04 
z
" style="fill: none"/>
   </g>
   <g id="matplotlib.axis_5">
    <g id="xtick_5">
     <g id="line2d_17">
      <g>
       <use xlink:href="#maedbe0eb58" x="315.589334" y="138.04" style="fill: #585759; stroke: #585759; stroke-width: 0.8"/>
      </g>
     </g>
     <g id="text_21">
      <!-- 0 -->
      <g style="fill: #585759" transform="translate(312.408084 152.638438)scale(0.1 -0.1)">
       <use xlink:href="#DejaVuSans-30"/>
      </g>
     </g>
    </g>
    <g id="xtick_6">
     <g id="line2d_18">
      <g>
       <use xlink:href="#maedbe0eb58" x="384.318873" y="138.04" style="fill: #585759; stroke: #585759; stroke-width: 0.8"/>
      </g>
     </g>
     <g id="text_22">
      <!-- 1000 -->
      <g style="fill: #585759" transform="translate(371.593873 152.638438)scale(0.1 -0.1)">
       <use xlink:href="#DejaVuSans-31"/>
       <use xlink:href="#DejaVuSans-30" x="63.623047"/>
       <use xlink:href="#DejaVuSans-30" x="127.246094"/>
       <use xlink:href="#DejaVuSans-30" x="190.869141"/>
      </g>
     </g>
    </g>
    <g id="text_23">
     <!-- Time [ms] -->
     <g style="fill: #585759" transform="translate(324.754885 166.316563)scale(0.1 -0.1)">
      <use xlink:href="#DejaVuSans-54"/>
      <use xlink:href="#DejaVuSans-69" x="57.958984"/>
      <use xlink:href="#DejaVuSans-6d" x="85.742188"/>
      <use xlink:href="#DejaVuSans-65" x="183.154297"/>
      <use xlink:href="#DejaVuSans-20" x="244.677734"/>
      <use xlink:href="#DejaVuSans-5b" x="276.464844"/>
      <use xlink:href="#DejaVuSans-6d" x="315.478516"/>
      <use xlink:href="#DejaVuSans-73" x="412.890625"/>
      <use xlink:href="#DejaVuSans-5d" x="464.990234"/>
     </g>
    </g>
   </g>
   <g id="matplotlib.axis_6">
    <g id="ytick_11">
     <g id="line2d_19">
      <g>
       <use xlink:href="#m53f5904152" x="312.152857" y="132.780952" style="fill: #585759; stroke: #585759; stroke-width: 0.8"/>
      </g>
     </g>
     <g id="text_24">
      <!-- 0.00 -->
      <g style="fill: #585759" transform="translate(282.887232 136.580171)scale(0.1 -0.1)">
       <use xlink:href="#DejaVuSans-30"/>
       <use xlink:href="#DejaVuSans-2e" x="63.623047"/>
       <use xlink:href="#DejaVuSans-30" x="95.410156"/>
       <use xlink:href="#DejaVuSans-30" x="159.033203"/>
      </g>
     </g>
    </g>
    <g id="ytick_12">
     <g id="line2d_20">
      <g>
       <use xlink:href="#m53f5904152" x="312.152857" y="106.485714" style="fill: #585759; stroke: #585759; stroke-width: 0.8"/>
      </g>
     </g>
     <g id="text_25">
      <!-- 0.25 -->
      <g style="fill: #585759" transform="translate(282.887232 110.284933)scale(0.1 -0.1)">
       <use xlink:href="#DejaVuSans-30"/>
       <use xlink:href="#DejaVuSans-2e" x="63.623047"/>
       <use xlink:href="#DejaVuSans-32" x="95.410156"/>
       <use xlink:href="#DejaVuSans-35" x="159.033203"/>
      </g>
     </g>
    </g>
    <g id="ytick_13">
     <g id="line2d_21">
      <g>
       <use xlink:href="#m53f5904152" x="312.152857" y="80.190476" style="fill: #585759; stroke: #585759; stroke-width: 0.8"/>
      </g>
     </g>
     <g id="text_26">
      <!-- 0.50 -->
      <g style="fill: #585759" transform="translate(282.887232 83.989695)scale(0.1 -0.1)">
       <use xlink:href="#DejaVuSans-30"/>
       <use xlink:href="#DejaVuSans-2e" x="63.623047"/>
       <use xlink:href="#DejaVuSans-35" x="95.410156"/>
       <use xlink:href="#DejaVuSans-30" x="159.033203"/>
      </g>
     </g>
    </g>
    <g id="ytick_14">
     <g id="line2d_22">
      <g>
       <use xlink:href="#m53f5904152" x="312.152857" y="53.895238" style="fill: #585759; stroke: #585759; stroke-width: 0.8"/>
      </g>
     </g>
     <g id="text_27">
      <!-- 0.75 -->
      <g style="fill: #585759" transform="translate(282.887232 57.694457)scale(0.1 -0.1)">
       <use xlink:href="#DejaVuSans-30"/>
       <use xlink:href="#DejaVuSans-2e" x="63.623047"/>
       <use xlink:href="#DejaVuSans-37" x="95.410156"/>
       <use xlink:href="#DejaVuSans-35" x="159.033203"/>
      </g>
     </g>
    </g>
    <g id="ytick_15">
     <g id="line2d_23">
      <g>
       <use xlink:href="#m53f5904152" x="312.152857" y="27.6" style="fill: #585759; stroke: #585759; stroke-width: 0.8"/>
      </g>
     </g>
     <g id="text_28">
      <!-- 1.00 -->
      <g style="fill: #585759" transform="translate(282.887232 31.399219)scale(0.1 -0.1)">
       <use xlink:href="#DejaVuSans-31"/>
       <use xlink:href="#DejaVuSans-2e" x="63.623047"/>
       <use xlink:href="#DejaVuSans-30" x="95.410156"/>
       <use xlink:href="#DejaVuSans-30" x="159.033203"/>
      </g>
     </g>
    </g>
    <g id="text_29">
     <!--   -->
     <g style="fill: #585759" transform="translate(276.807545 84.409062)rotate(-90)scale(0.1 -0.1)">
      <use xlink:href="#DejaVuSans-20"/>
     </g>
    </g>
   </g>
   <g id="line2d_24">
    <path d="M 315.589334 132.780953 
L 320.456532 132.670343 
L 321.673331 132.538492 
L 321.987344 132.29264 
L 322.458363 131.811734 
L 323.164892 132.12149 
L 323.439653 132.425422 
L 323.596659 132.25351 
L 323.832169 132.024009 
L 323.989175 132.255194 
L 324.185433 132.48046 
L 324.303188 132.215482 
L 324.734955 130.688761 
L 325.009716 130.939656 
L 325.048968 130.874255 
L 325.402232 129.790306 
L 325.480735 129.930221 
L 325.676993 131.072765 
L 325.873251 131.980531 
L 325.912503 131.967507 
L 326.030258 131.417817 
L 326.422774 128.227217 
L 326.462025 128.309179 
L 326.619032 129.559933 
L 326.933044 132.013179 
L 327.011548 131.994675 
L 327.364812 131.169552 
L 327.443315 131.270576 
L 327.678825 132.152141 
L 327.914334 132.633071 
L 328.032089 132.414967 
L 328.346102 131.654802 
L 328.385353 131.673733 
L 328.54236 132.019197 
L 328.856372 132.646034 
L 329.091882 132.54237 
L 329.876914 132.213195 
L 330.112423 132.247321 
L 330.583443 131.814028 
L 330.779701 131.431827 
L 331.054462 130.90277 
L 331.172216 131.073626 
L 331.368474 131.342783 
L 331.486229 130.942162 
L 331.721739 128.738408 
L 332.232009 123.305374 
L 332.271261 123.373687 
L 332.389016 124.557408 
L 332.781532 130.051179 
L 332.899287 129.407943 
L 333.134796 127.88053 
L 333.174048 127.893105 
L 333.291802 128.38904 
L 333.645067 130.048727 
L 333.919828 130.611013 
L 334.587105 132.607135 
L 334.70486 132.505583 
L 334.901118 131.788738 
L 335.175879 131.026624 
L 335.293634 131.203597 
L 335.764653 132.245914 
L 336.000162 132.302234 
L 336.117917 132.115355 
L 336.314175 131.150502 
L 336.745943 128.688873 
L 336.824446 128.881784 
L 337.020704 130.5304 
L 337.295465 132.561948 
L 337.373968 132.481487 
L 337.570226 131.33819 
L 337.805736 130.40266 
L 337.92349 130.527326 
L 338.159 130.792069 
L 338.355258 130.716297 
L 338.473013 131.024565 
L 338.865529 132.831493 
L 338.944032 132.741439 
L 339.336548 131.600571 
L 339.415051 131.675558 
L 339.689812 132.021236 
L 339.846818 131.774271 
L 340.160831 131.259862 
L 340.435592 131.109793 
L 340.63185 130.474554 
L 340.906611 129.651213 
L 340.985115 129.689432 
L 341.142121 130.232109 
L 341.652392 132.614781 
L 341.770146 132.433088 
L 342.241166 131.07477 
L 342.280417 131.101592 
L 342.476675 131.514665 
L 342.712185 131.881176 
L 342.829939 131.789624 
L 343.143952 131.371662 
L 343.183204 131.39885 
L 343.379462 131.834765 
L 343.57572 132.100324 
L 343.693475 131.845299 
L 344.08599 130.392465 
L 344.125242 130.410298 
L 344.242997 130.730044 
L 344.596261 132.221705 
L 344.635513 132.20998 
L 344.753268 131.745834 
L 344.988777 129.123306 
L 345.263538 126.876731 
L 345.342041 127.123489 
L 345.538299 129.220401 
L 345.852312 131.971497 
L 345.970067 132.009274 
L 346.166325 131.898184 
L 346.480338 132.201466 
L 346.519589 132.144623 
L 346.715847 131.437516 
L 346.951357 130.83417 
L 347.108363 130.978132 
L 347.304621 131.098026 
L 347.579382 131.042049 
L 348.089653 131.559841 
L 348.246659 131.603886 
L 348.678427 132.031082 
L 349.070943 131.565977 
L 349.110194 131.617317 
L 349.384955 132.411372 
L 349.541962 132.568968 
L 349.659717 132.316507 
L 350.209239 130.56788 
L 350.326994 130.663283 
L 350.523252 131.266798 
L 350.876516 132.350756 
L 350.994271 132.296114 
L 351.504541 131.747803 
L 351.975561 131.719404 
L 352.564334 132.387007 
L 352.603586 132.341603 
L 352.799844 131.8092 
L 353.231612 130.453608 
L 353.349366 130.698269 
L 353.859637 132.313198 
L 354.055895 132.045958 
L 354.605417 131.228117 
L 354.801675 131.274859 
L 354.997933 131.663803 
L 355.390449 132.500541 
L 355.547456 132.407359 
L 356.136229 131.856542 
L 356.332487 131.904696 
L 356.567997 132.383064 
L 356.842758 132.819388 
L 356.960513 132.68277 
L 357.156771 131.973228 
L 357.549287 130.522786 
L 357.667042 130.580314 
L 357.824048 131.122678 
L 358.177312 132.416683 
L 358.295067 132.372882 
L 358.844589 131.765116 
L 359.237105 131.736509 
L 359.472615 132.223669 
L 359.708124 132.502326 
L 359.825879 132.299605 
L 360.10064 131.12728 
L 360.493156 129.641453 
L 360.571659 129.714358 
L 360.728666 130.415962 
L 361.08193 131.977469 
L 361.199685 131.777447 
L 361.82771 130.068319 
L 361.984717 130.028589 
L 362.102472 130.267902 
L 362.573491 131.96486 
L 362.612742 131.92041 
L 362.887503 131.154212 
L 363.319271 130.344636 
L 363.476277 130.285602 
L 363.594032 130.593999 
L 364.065051 132.3915 
L 364.104303 132.365065 
L 364.261309 131.960043 
L 364.810831 130.114074 
L 364.928586 130.174254 
L 365.085593 130.666749 
L 365.51736 132.2934 
L 365.635115 132.137533 
L 366.223889 130.908201 
L 366.380895 131.153911 
L 366.812663 131.958994 
L 367.087424 132.125603 
L 367.322933 132.261916 
L 367.47994 131.906568 
L 367.833204 131.019837 
L 367.950959 131.246396 
L 368.382726 132.340674 
L 368.618236 132.390195 
L 368.814494 132.223487 
L 369.20701 131.772245 
L 369.364016 131.92163 
L 369.874287 132.631562 
L 370.149048 132.382252 
L 370.816325 131.734956 
L 370.855577 131.783117 
L 371.326596 132.581181 
L 371.405099 132.517192 
L 372.033125 131.791723 
L 372.307886 132.053256 
L 372.778905 132.563742 
L 372.975163 132.496016 
L 373.171421 132.129193 
L 373.563937 131.365488 
L 373.681691 131.490369 
L 374.231214 132.449209 
L 374.427472 132.185942 
L 374.741484 131.295124 
L 375.094749 130.34403 
L 375.212504 130.590558 
L 375.683523 132.16511 
L 375.840529 131.94215 
L 376.3508 131.068628 
L 376.586309 130.909579 
L 376.704064 131.059337 
L 376.978825 132.072621 
L 377.175083 132.470829 
L 377.292838 132.28863 
L 377.606851 130.907591 
L 377.84236 130.276462 
L 377.960115 130.327458 
L 378.117121 130.801771 
L 378.509637 132.072505 
L 378.666644 132.033516 
L 379.56943 131.339863 
L 379.608682 131.40497 
L 380.275959 132.642592 
L 380.589972 132.71909 
L 380.943236 132.806816 
L 382.081532 132.779597 
L 384.318873 132.780958 
L 384.318873 132.780958 
" clip-path="url(#p5e0300c8df)" style="fill: none; stroke: #7e7b7d; stroke-linecap: square"/>
   </g>
   <g id="patch_8">
    <path d="M 312.152857 138.04 
L 312.152857 27.6 
" style="fill: none; stroke: #585759; stroke-width: 0.8; stroke-linejoin: miter; stroke-linecap: square"/>
   </g>
   <g id="patch_9">
    <path d="M 312.152857 138.04 
L 387.75535 138.04 
" style="fill: none; stroke: #585759; stroke-width: 0.8; stroke-linejoin: miter; stroke-linecap: square"/>
   </g>
   <g id="text_30">
    <!-- RF -->
    <g style="fill: #585759" transform="translate(340.810104 21.6)scale(0.144 -0.144)">
     <defs>
      <path id="DejaVuSans-52" d="M 2841 2188 
Q 3044 2119 3236 1894 
Q 3428 1669 3622 1275 
L 4263 0 
L 3584 0 
L 2988 1197 
Q 2756 1666 2539 1819 
Q 2322 1972 1947 1972 
L 1259 1972 
L 1259 0 
L 628 0 
L 628 4666 
L 2053 4666 
Q 2853 4666 3247 4331 
Q 3641 3997 3641 3322 
Q 3641 2881 3436 2590 
Q 3231 2300 2841 2188 
z
M 1259 4147 
L 1259 2491 
L 2053 2491 
Q 2509 2491 2742 2702 
Q 2975 2913 2975 3322 
Q 2975 3731 2742 3939 
Q 2509 4147 2053 4147 
L 1259 4147 
z
" transform="scale(0.015625)"/>
      <path id="DejaVuSans-46" d="M 628 4666 
L 3309 4666 
L 3309 4134 
L 1259 4134 
L 1259 2759 
L 3109 2759 
L 3109 2228 
L 1259 2228 
L 1259 0 
L 628 0 
L 628 4666 
z
" transform="scale(0.015625)"/>
     </defs>
     <use xlink:href="#DejaVuSans-52"/>
     <use xlink:href="#DejaVuSans-46" x="69.482422"/>
    </g>
   </g>
  </g>
  <g id="axes_4">
   <g id="patch_10">
    <path d="M 444.324286 138.04 
L 519.926779 138.04 
L 519.926779 27.6 
L 444.324286 27.6 
L 444.324286 138.04 
z
" style="fill: none"/>
   </g>
   <g id="matplotlib.axis_7">
    <g id="xtick_7">
     <g id="line2d_25">
      <g>
       <use xlink:href="#maedbe0eb58" x="447.760763" y="138.04" style="fill: #585759; stroke: #585759; stroke-width: 0.8"/>
      </g>
     </g>
     <g id="text_31">
      <!-- 0 -->
      <g style="fill: #585759" transform="translate(444.579513 152.638438)scale(0.1 -0.1)">
       <use xlink:href="#DejaVuSans-30"/>
      </g>
     </g>
    </g>
    <g id="xtick_8">
     <g id="line2d_26">
      <g>
       <use xlink:href="#maedbe0eb58" x="516.490302" y="138.04" style="fill: #585759; stroke: #585759; stroke-width: 0.8"/>
      </g>
     </g>
     <g id="text_32">
      <!-- 1000 -->
      <g style="fill: #585759" transform="translate(503.765302 152.638438)scale(0.1 -0.1)">
       <use xlink:href="#DejaVuSans-31"/>
       <use xlink:href="#DejaVuSans-30" x="63.623047"/>
       <use xlink:href="#DejaVuSans-30" x="127.246094"/>
       <use xlink:href="#DejaVuSans-30" x="190.869141"/>
      </g>
     </g>
    </g>
    <g id="text_33">
     <!-- Time [ms] -->
     <g style="fill: #585759" transform="translate(456.926313 166.316563)scale(0.1 -0.1)">
      <use xlink:href="#DejaVuSans-54"/>
      <use xlink:href="#DejaVuSans-69" x="57.958984"/>
      <use xlink:href="#DejaVuSans-6d" x="85.742188"/>
      <use xlink:href="#DejaVuSans-65" x="183.154297"/>
      <use xlink:href="#DejaVuSans-20" x="244.677734"/>
      <use xlink:href="#DejaVuSans-5b" x="276.464844"/>
      <use xlink:href="#DejaVuSans-6d" x="315.478516"/>
      <use xlink:href="#DejaVuSans-73" x="412.890625"/>
      <use xlink:href="#DejaVuSans-5d" x="464.990234"/>
     </g>
    </g>
   </g>
   <g id="matplotlib.axis_8">
    <g id="ytick_16">
     <g id="line2d_27">
      <g>
       <use xlink:href="#m53f5904152" x="444.324286" y="132.780952" style="fill: #585759; stroke: #585759; stroke-width: 0.8"/>
      </g>
     </g>
     <g id="text_34">
      <!-- 0.00 -->
      <g style="fill: #585759" transform="translate(415.058661 136.580171)scale(0.1 -0.1)">
       <use xlink:href="#DejaVuSans-30"/>
       <use xlink:href="#DejaVuSans-2e" x="63.623047"/>
       <use xlink:href="#DejaVuSans-30" x="95.410156"/>
       <use xlink:href="#DejaVuSans-30" x="159.033203"/>
      </g>
     </g>
    </g>
    <g id="ytick_17">
     <g id="line2d_28">
      <g>
       <use xlink:href="#m53f5904152" x="444.324286" y="106.485714" style="fill: #585759; stroke: #585759; stroke-width: 0.8"/>
      </g>
     </g>
     <g id="text_35">
      <!-- 0.25 -->
      <g style="fill: #585759" transform="translate(415.058661 110.284933)scale(0.1 -0.1)">
       <use xlink:href="#DejaVuSans-30"/>
       <use xlink:href="#DejaVuSans-2e" x="63.623047"/>
       <use xlink:href="#DejaVuSans-32" x="95.410156"/>
       <use xlink:href="#DejaVuSans-35" x="159.033203"/>
      </g>
     </g>
    </g>
    <g id="ytick_18">
     <g id="line2d_29">
      <g>
       <use xlink:href="#m53f5904152" x="444.324286" y="80.190476" style="fill: #585759; stroke: #585759; stroke-width: 0.8"/>
      </g>
     </g>
     <g id="text_36">
      <!-- 0.50 -->
      <g style="fill: #585759" transform="translate(415.058661 83.989695)scale(0.1 -0.1)">
       <use xlink:href="#DejaVuSans-30"/>
       <use xlink:href="#DejaVuSans-2e" x="63.623047"/>
       <use xlink:href="#DejaVuSans-35" x="95.410156"/>
       <use xlink:href="#DejaVuSans-30" x="159.033203"/>
      </g>
     </g>
    </g>
    <g id="ytick_19">
     <g id="line2d_30">
      <g>
       <use xlink:href="#m53f5904152" x="444.324286" y="53.895238" style="fill: #585759; stroke: #585759; stroke-width: 0.8"/>
      </g>
     </g>
     <g id="text_37">
      <!-- 0.75 -->
      <g style="fill: #585759" transform="translate(415.058661 57.694457)scale(0.1 -0.1)">
       <use xlink:href="#DejaVuSans-30"/>
       <use xlink:href="#DejaVuSans-2e" x="63.623047"/>
       <use xlink:href="#DejaVuSans-37" x="95.410156"/>
       <use xlink:href="#DejaVuSans-35" x="159.033203"/>
      </g>
     </g>
    </g>
    <g id="ytick_20">
     <g id="line2d_31">
      <g>
       <use xlink:href="#m53f5904152" x="444.324286" y="27.6" style="fill: #585759; stroke: #585759; stroke-width: 0.8"/>
      </g>
     </g>
     <g id="text_38">
      <!-- 1.00 -->
      <g style="fill: #585759" transform="translate(415.058661 31.399219)scale(0.1 -0.1)">
       <use xlink:href="#DejaVuSans-31"/>
       <use xlink:href="#DejaVuSans-2e" x="63.623047"/>
       <use xlink:href="#DejaVuSans-30" x="95.410156"/>
       <use xlink:href="#DejaVuSans-30" x="159.033203"/>
      </g>
     </g>
    </g>
    <g id="text_39">
     <!--   -->
     <g style="fill: #585759" transform="translate(408.978973 84.409062)rotate(-90)scale(0.1 -0.1)">
      <use xlink:href="#DejaVuSans-20"/>
     </g>
    </g>
   </g>
   <g id="line2d_32">
    <path d="M 447.760763 132.780952 
L 451.64667 132.689712 
L 451.999935 132.597002 
L 452.431702 132.60493 
L 452.667212 132.580608 
L 453.020476 132.835598 
L 453.059728 132.758386 
L 453.255986 131.863688 
L 453.37374 131.434734 
L 453.412992 131.446402 
L 453.491495 131.819036 
L 453.766256 135.021523 
L 453.84476 134.458083 
L 453.962514 129.792325 
L 454.158772 110.197708 
L 454.551288 72.347534 
L 454.59054 72.493441 
L 454.708295 78.676493 
L 455.218565 129.083527 
L 455.297068 128.265249 
L 455.493326 118.418913 
L 455.728836 110.602701 
L 455.807339 111.584734 
L 456.003597 119.773631 
L 456.31761 130.748297 
L 456.435365 131.281974 
L 456.474616 131.194999 
L 456.670874 130.571749 
L 456.710126 130.586899 
L 456.867132 131.095921 
L 456.984887 131.286205 
L 457.06339 130.950992 
L 457.259648 128.337474 
L 457.495158 125.679683 
L 457.534409 125.71566 
L 457.652164 126.771332 
L 458.162435 133.61321 
L 458.240938 133.198087 
L 458.397944 130.469869 
L 458.868963 118.635361 
L 458.908215 118.760767 
L 459.02597 120.759664 
L 459.496989 131.666039 
L 459.575492 131.446003 
L 459.811002 129.213127 
L 460.242769 125.374103 
L 460.321272 125.648439 
L 460.478279 127.599255 
L 460.831543 131.994439 
L 460.988549 132.226744 
L 461.184807 132.08654 
L 461.302562 131.684163 
L 461.49882 129.787242 
L 461.812833 126.506676 
L 461.891336 126.706865 
L 462.048342 128.47634 
L 462.401607 132.273158 
L 462.48011 132.378661 
L 462.519362 132.333159 
L 462.637116 131.808337 
L 462.872626 129.078364 
L 463.147387 126.349172 
L 463.22589 126.581097 
L 463.422148 128.883179 
L 463.696909 131.425147 
L 464.050174 132.430701 
L 464.089425 132.417285 
L 464.167928 132.066083 
L 464.324935 129.66011 
L 464.678199 123.305926 
L 464.756702 123.935431 
L 465.266973 132.401072 
L 465.345476 132.286102 
L 465.580986 131.114137 
L 465.894999 128.198572 
L 466.091256 126.953841 
L 466.130508 126.973893 
L 466.248263 127.627974 
L 466.837037 132.318424 
L 466.954792 132.520061 
L 467.033295 132.185672 
L 467.190301 129.812198 
L 467.543565 122.551015 
L 467.582817 122.56256 
L 467.700572 124.005497 
L 468.132339 131.545907 
L 468.250094 131.657171 
L 468.289346 131.628374 
L 468.485604 131.285061 
L 468.64261 130.261279 
L 469.035126 126.606383 
L 469.074378 126.697029 
L 469.231384 128.045424 
L 469.584648 131.082321 
L 469.898661 132.174884 
L 469.977164 131.918174 
L 470.134171 129.848706 
L 470.487435 124.291376 
L 470.565938 124.792521 
L 470.840699 129.929353 
L 471.11546 132.79035 
L 471.233215 132.961161 
L 471.311718 132.680502 
L 471.468725 130.576749 
L 471.900492 120.798837 
L 471.939744 120.989395 
L 472.09675 124.260372 
L 472.410763 131.374697 
L 472.489266 131.59482 
L 472.528518 131.533993 
L 472.764027 130.933361 
L 472.803279 130.970934 
L 472.999537 131.291905 
L 473.038788 131.238086 
L 473.156543 130.63434 
L 473.470556 128.575966 
L 473.549059 128.844981 
L 474.216336 132.830218 
L 474.334091 132.792156 
L 474.451846 132.47721 
L 474.687355 130.85201 
L 474.922865 129.8048 
L 475.04062 130.136376 
L 475.590142 132.444231 
L 475.747148 132.707858 
L 475.7864 132.681206 
L 475.904155 132.241423 
L 476.335922 129.171612 
L 476.414425 129.392653 
L 476.963948 131.91746 
L 477.317212 132.512177 
L 477.356464 132.45477 
L 477.51347 131.719846 
L 477.827483 130.111641 
L 477.905986 130.257683 
L 478.573263 132.550716 
L 478.769521 132.482465 
L 479.005031 132.05404 
L 479.279792 131.677846 
L 479.515301 131.772752 
L 479.790062 132.065241 
L 480.104075 132.829388 
L 480.182578 132.725249 
L 480.339585 131.732188 
L 480.692849 129.068897 
L 480.771352 129.257194 
L 481.046113 131.34068 
L 481.320874 132.525287 
L 481.477881 132.584462 
L 481.634887 132.23095 
L 482.105906 130.472369 
L 482.145158 130.514146 
L 482.341416 131.146413 
L 482.733932 132.285179 
L 483.047945 132.829479 
L 483.087196 132.804726 
L 483.204951 132.438374 
L 483.636718 129.711971 
L 483.715222 129.885408 
L 483.989983 131.769946 
L 484.303996 133.043484 
L 484.382499 133.08155 
L 484.42175 133.017298 
L 484.539505 132.301132 
L 484.735763 128.938696 
L 485.010524 124.430966 
L 485.049776 124.47504 
L 485.167531 125.893668 
L 485.599298 133.17109 
L 485.63855 133.212064 
L 485.677801 133.170464 
L 486.188072 132.134586 
L 486.462833 132.06627 
L 486.698343 132.042868 
L 486.933852 132.360039 
L 487.287117 132.825832 
L 487.404871 132.732879 
L 487.601129 132.106727 
L 488.032897 130.55896 
L 488.150652 130.69331 
L 488.386161 131.607174 
L 488.739426 132.878842 
L 488.817929 132.721101 
L 488.974935 131.576127 
L 489.367451 128.052681 
L 489.445954 128.332101 
L 489.681464 130.902266 
L 489.956225 132.912921 
L 490.034728 132.944956 
L 490.07398 132.8947 
L 490.270238 132.263102 
L 490.702005 130.854655 
L 490.81976 130.920985 
L 491.05527 131.577481 
L 491.447785 132.555014 
L 491.683295 132.685781 
L 491.840301 132.458693 
L 492.115063 131.355826 
L 492.350572 130.764812 
L 492.468327 130.980332 
L 493.057101 132.664172 
L 493.214107 132.534393 
L 493.371113 132.0126 
L 493.802881 130.036509 
L 493.842133 130.079406 
L 493.999139 130.740727 
L 494.430906 132.783078 
L 494.627164 132.892453 
L 494.744919 132.749491 
L 494.941177 131.965385 
L 495.294442 130.436786 
L 495.412196 130.742198 
L 495.883215 132.571695 
L 496.00097 132.505791 
L 496.197228 131.986338 
L 496.550493 131.107225 
L 496.668247 131.281684 
L 497.257021 132.56522 
L 497.453279 132.636784 
L 497.571034 132.479119 
L 497.806543 131.599703 
L 498.042053 130.916617 
L 498.159808 131.015185 
L 498.866336 132.450529 
L 499.023343 132.395038 
L 499.219601 131.969095 
L 499.612117 131.067551 
L 499.729872 131.125784 
L 499.926129 131.592661 
L 500.318645 132.562264 
L 500.514903 132.582201 
L 500.67191 132.29139 
L 501.142929 130.610969 
L 501.221432 130.688234 
L 501.41769 131.427401 
L 501.810206 132.829993 
L 501.888709 132.792808 
L 502.045715 132.253261 
L 502.516735 129.858296 
L 502.555986 129.904466 
L 502.712993 130.592021 
L 503.105508 132.637292 
L 503.223263 132.64825 
L 503.38027 132.143908 
L 503.851289 129.335189 
L 503.929792 129.46473 
L 504.12605 130.770382 
L 504.440063 132.457783 
L 504.597069 132.498419 
L 504.832579 132.519057 
L 504.989585 132.519103 
L 505.146591 132.164674 
L 505.499856 131.055537 
L 505.539107 131.071657 
L 505.696114 131.456987 
L 506.08863 132.532136 
L 506.206384 132.465142 
L 506.402642 131.982675 
L 506.83441 130.948049 
L 506.952165 130.997859 
L 507.148423 131.451948 
L 507.58019 132.575146 
L 507.737196 132.54006 
L 508.482977 132.013574 
L 508.679235 132.217051 
L 509.111002 132.853001 
L 509.228757 132.628498 
L 509.425015 131.568765 
L 509.778279 129.839323 
L 509.856782 129.979583 
L 510.05304 131.121629 
L 510.367053 132.724731 
L 510.484808 132.807668 
L 510.52406 132.779937 
L 510.681066 132.385002 
L 510.916575 130.788095 
L 511.191337 129.178433 
L 511.26984 129.34498 
L 511.466098 130.830933 
L 511.740859 132.500251 
L 511.897865 132.580278 
L 512.172626 132.504471 
L 512.839904 132.784 
L 513.899697 132.779707 
L 516.490302 132.780951 
L 516.490302 132.780951 
" clip-path="url(#pfae6daeeef)" style="fill: none; stroke: #7e7b7d; stroke-linecap: square"/>
   </g>
   <g id="patch_11">
    <path d="M 444.324286 138.04 
L 444.324286 27.6 
" style="fill: none; stroke: #585759; stroke-width: 0.8; stroke-linejoin: miter; stroke-linecap: square"/>
   </g>
   <g id="patch_12">
    <path d="M 444.324286 138.04 
L 519.926779 138.04 
" style="fill: none; stroke: #585759; stroke-width: 0.8; stroke-linejoin: miter; stroke-linecap: square"/>
   </g>
   <g id="text_40">
    <!-- ST -->
    <g style="fill: #585759" transform="translate(473.157032 21.6)scale(0.144 -0.144)">
     <defs>
      <path id="DejaVuSans-53" d="M 3425 4513 
L 3425 3897 
Q 3066 4069 2747 4153 
Q 2428 4238 2131 4238 
Q 1616 4238 1336 4038 
Q 1056 3838 1056 3469 
Q 1056 3159 1242 3001 
Q 1428 2844 1947 2747 
L 2328 2669 
Q 3034 2534 3370 2195 
Q 3706 1856 3706 1288 
Q 3706 609 3251 259 
Q 2797 -91 1919 -91 
Q 1588 -91 1214 -16 
Q 841 59 441 206 
L 441 856 
Q 825 641 1194 531 
Q 1563 422 1919 422 
Q 2459 422 2753 634 
Q 3047 847 3047 1241 
Q 3047 1584 2836 1778 
Q 2625 1972 2144 2069 
L 1759 2144 
Q 1053 2284 737 2584 
Q 422 2884 422 3419 
Q 422 4038 858 4394 
Q 1294 4750 2059 4750 
Q 2388 4750 2728 4690 
Q 3069 4631 3425 4513 
z
" transform="scale(0.015625)"/>
     </defs>
     <use xlink:href="#DejaVuSans-53"/>
     <use xlink:href="#DejaVuSans-54" x="63.476562"/>
    </g>
   </g>
  </g>
  <g id="axes_5">
   <g id="patch_13">
    <path d="M 576.495714 138.04 
L 652.098207 138.04 
L 652.098207 27.6 
L 576.495714 27.6 
L 576.495714 138.04 
z
" style="fill: none"/>
   </g>
   <g id="matplotlib.axis_9">
    <g id="xtick_9">
     <g id="line2d_33">
      <g>
       <use xlink:href="#maedbe0eb58" x="579.932191" y="138.04" style="fill: #585759; stroke: #585759; stroke-width: 0.8"/>
      </g>
     </g>
     <g id="text_41">
      <!-- 0 -->
      <g style="fill: #585759" transform="translate(576.750941 152.638438)scale(0.1 -0.1)">
       <use xlink:href="#DejaVuSans-30"/>
      </g>
     </g>
    </g>
    <g id="xtick_10">
     <g id="line2d_34">
      <g>
       <use xlink:href="#maedbe0eb58" x="648.66173" y="138.04" style="fill: #585759; stroke: #585759; stroke-width: 0.8"/>
      </g>
     </g>
     <g id="text_42">
      <!-- 1000 -->
      <g style="fill: #585759" transform="translate(635.93673 152.638438)scale(0.1 -0.1)">
       <use xlink:href="#DejaVuSans-31"/>
       <use xlink:href="#DejaVuSans-30" x="63.623047"/>
       <use xlink:href="#DejaVuSans-30" x="127.246094"/>
       <use xlink:href="#DejaVuSans-30" x="190.869141"/>
      </g>
     </g>
    </g>
    <g id="text_43">
     <!-- Time [ms] -->
     <g style="fill: #585759" transform="translate(589.097742 166.316563)scale(0.1 -0.1)">
      <use xlink:href="#DejaVuSans-54"/>
      <use xlink:href="#DejaVuSans-69" x="57.958984"/>
      <use xlink:href="#DejaVuSans-6d" x="85.742188"/>
      <use xlink:href="#DejaVuSans-65" x="183.154297"/>
      <use xlink:href="#DejaVuSans-20" x="244.677734"/>
      <use xlink:href="#DejaVuSans-5b" x="276.464844"/>
      <use xlink:href="#DejaVuSans-6d" x="315.478516"/>
      <use xlink:href="#DejaVuSans-73" x="412.890625"/>
      <use xlink:href="#DejaVuSans-5d" x="464.990234"/>
     </g>
    </g>
   </g>
   <g id="matplotlib.axis_10">
    <g id="ytick_21">
     <g id="line2d_35">
      <g>
       <use xlink:href="#m53f5904152" x="576.495714" y="132.780952" style="fill: #585759; stroke: #585759; stroke-width: 0.8"/>
      </g>
     </g>
     <g id="text_44">
      <!-- 0.00 -->
      <g style="fill: #585759" transform="translate(547.230089 136.580171)scale(0.1 -0.1)">
       <use xlink:href="#DejaVuSans-30"/>
       <use xlink:href="#DejaVuSans-2e" x="63.623047"/>
       <use xlink:href="#DejaVuSans-30" x="95.410156"/>
       <use xlink:href="#DejaVuSans-30" x="159.033203"/>
      </g>
     </g>
    </g>
    <g id="ytick_22">
     <g id="line2d_36">
      <g>
       <use xlink:href="#m53f5904152" x="576.495714" y="106.485714" style="fill: #585759; stroke: #585759; stroke-width: 0.8"/>
      </g>
     </g>
     <g id="text_45">
      <!-- 0.25 -->
      <g style="fill: #585759" transform="translate(547.230089 110.284933)scale(0.1 -0.1)">
       <use xlink:href="#DejaVuSans-30"/>
       <use xlink:href="#DejaVuSans-2e" x="63.623047"/>
       <use xlink:href="#DejaVuSans-32" x="95.410156"/>
       <use xlink:href="#DejaVuSans-35" x="159.033203"/>
      </g>
     </g>
    </g>
    <g id="ytick_23">
     <g id="line2d_37">
      <g>
       <use xlink:href="#m53f5904152" x="576.495714" y="80.190476" style="fill: #585759; stroke: #585759; stroke-width: 0.8"/>
      </g>
     </g>
     <g id="text_46">
      <!-- 0.50 -->
      <g style="fill: #585759" transform="translate(547.230089 83.989695)scale(0.1 -0.1)">
       <use xlink:href="#DejaVuSans-30"/>
       <use xlink:href="#DejaVuSans-2e" x="63.623047"/>
       <use xlink:href="#DejaVuSans-35" x="95.410156"/>
       <use xlink:href="#DejaVuSans-30" x="159.033203"/>
      </g>
     </g>
    </g>
    <g id="ytick_24">
     <g id="line2d_38">
      <g>
       <use xlink:href="#m53f5904152" x="576.495714" y="53.895238" style="fill: #585759; stroke: #585759; stroke-width: 0.8"/>
      </g>
     </g>
     <g id="text_47">
      <!-- 0.75 -->
      <g style="fill: #585759" transform="translate(547.230089 57.694457)scale(0.1 -0.1)">
       <use xlink:href="#DejaVuSans-30"/>
       <use xlink:href="#DejaVuSans-2e" x="63.623047"/>
       <use xlink:href="#DejaVuSans-37" x="95.410156"/>
       <use xlink:href="#DejaVuSans-35" x="159.033203"/>
      </g>
     </g>
    </g>
    <g id="ytick_25">
     <g id="line2d_39">
      <g>
       <use xlink:href="#m53f5904152" x="576.495714" y="27.6" style="fill: #585759; stroke: #585759; stroke-width: 0.8"/>
      </g>
     </g>
     <g id="text_48">
      <!-- 1.00 -->
      <g style="fill: #585759" transform="translate(547.230089 31.399219)scale(0.1 -0.1)">
       <use xlink:href="#DejaVuSans-31"/>
       <use xlink:href="#DejaVuSans-2e" x="63.623047"/>
       <use xlink:href="#DejaVuSans-30" x="95.410156"/>
       <use xlink:href="#DejaVuSans-30" x="159.033203"/>
      </g>
     </g>
    </g>
    <g id="text_49">
     <!--   -->
     <g style="fill: #585759" transform="translate(541.150402 84.409062)rotate(-90)scale(0.1 -0.1)">
      <use xlink:href="#DejaVuSans-20"/>
     </g>
    </g>
   </g>
   <g id="line2d_40">
    <path d="M 579.932191 132.780951 
L 584.053608 132.670365 
L 584.406873 132.639373 
L 585.152653 132.72179 
L 585.702175 132.619119 
L 585.937685 132.663739 
L 586.094691 132.432329 
L 586.447956 131.29848 
L 586.80122 130.423546 
L 587.154484 130.308648 
L 587.429245 129.713018 
L 587.468497 129.752475 
L 587.625503 130.386675 
L 587.861013 131.282798 
L 587.939516 131.057469 
L 588.29278 128.786259 
L 588.371284 128.990846 
L 588.842303 132.053212 
L 588.960058 131.917328 
L 589.234819 130.954527 
L 589.627335 129.591699 
L 589.745089 129.851659 
L 590.137605 131.349993 
L 590.176857 131.339164 
L 590.765631 130.740361 
L 591.040392 130.105992 
L 591.079644 130.123467 
L 591.23665 130.515385 
L 591.511411 131.095986 
L 591.707669 131.250685 
L 592.060933 132.170206 
L 592.139437 132.014241 
L 592.531953 130.319652 
L 592.610456 130.437459 
L 592.924468 131.08395 
L 593.120726 131.048561 
L 593.238481 131.350546 
L 593.513242 132.346525 
L 593.552494 132.327159 
L 593.670249 131.902192 
L 593.984261 130.42668 
L 594.023513 130.442869 
L 594.219771 130.972736 
L 594.416029 131.229222 
L 594.612287 131.291772 
L 594.847796 131.974719 
L 594.965551 132.125048 
L 595.004803 132.075201 
L 595.161809 131.38028 
L 595.43657 130.165101 
L 595.554325 130.268593 
L 595.829086 130.622056 
L 595.986093 130.693843 
L 596.143099 131.238688 
L 596.41786 132.309462 
L 596.496363 132.13232 
L 596.888879 130.05306 
L 596.967383 130.175027 
L 597.320647 130.995831 
L 597.516905 131.012754 
L 597.673911 131.54921 
L 597.909421 132.216811 
L 598.027176 131.837932 
L 598.38044 130.167154 
L 598.419691 130.178708 
L 598.655201 130.644944 
L 599.047717 131.468546 
L 599.322478 132.262179 
L 599.440233 132.057476 
L 599.872 130.891787 
L 600.343019 131.062286 
L 600.735535 132.239101 
L 600.814039 132.163319 
L 601.010297 131.416447 
L 601.324309 130.442422 
L 601.638322 130.18039 
L 601.756077 130.394363 
L 602.187844 131.977205 
L 602.266348 131.824637 
L 602.619612 130.685086 
L 602.658863 130.708672 
L 602.81587 131.103163 
L 603.090631 131.638027 
L 603.326141 131.81721 
L 603.718656 132.722721 
L 603.79716 132.611977 
L 603.993418 131.735388 
L 604.346682 130.220194 
L 604.464437 130.245493 
L 604.621443 130.745911 
L 605.013959 132.082797 
L 605.131714 131.972357 
L 605.445727 131.057836 
L 605.798991 130.29267 
L 605.916746 130.275702 
L 606.0345 130.521082 
L 606.50552 132.249892 
L 606.584023 132.16954 
L 606.898035 131.274228 
L 607.2513 130.64089 
L 607.369055 130.666318 
L 607.526061 130.993888 
L 607.879325 131.78375 
L 608.036332 131.748694 
L 608.311093 131.406377 
L 608.821364 130.54084 
L 608.860615 130.571352 
L 609.017621 130.977459 
L 609.410137 132.132784 
L 609.527892 132.04698 
L 609.841905 131.354643 
L 610.234421 130.655516 
L 610.352176 130.806057 
L 610.94095 132.049042 
L 611.137208 131.937407 
L 611.333465 131.535677 
L 611.647478 130.879178 
L 611.765233 131.031372 
L 612.236252 131.960247 
L 612.550265 131.835794 
L 612.707271 131.389497 
L 613.099787 129.964954 
L 613.217542 130.292394 
L 613.649309 131.877533 
L 614.15958 131.695233 
L 614.355838 131.210278 
L 614.591348 130.760527 
L 614.709102 130.928935 
L 615.297876 132.270344 
L 615.415631 132.267454 
L 615.533386 132.017522 
L 615.965153 130.212533 
L 616.043657 130.288952 
L 616.279166 131.229328 
L 616.514676 131.77145 
L 616.985695 131.993679 
L 617.142701 131.560487 
L 617.456714 130.664519 
L 617.574469 130.849932 
L 618.045488 132.001929 
L 618.320249 132.095036 
L 618.438004 131.91181 
L 618.634262 131.013005 
L 618.869771 130.096534 
L 618.948274 130.187244 
L 619.144532 131.179099 
L 619.380042 132.082655 
L 619.497797 132.07857 
L 620.008067 131.576747 
L 620.361332 130.485015 
L 620.400583 130.498456 
L 620.518338 130.782977 
L 620.950106 132.109762 
L 621.146364 132.054808 
L 621.342622 131.764161 
L 621.774389 130.520723 
L 621.852892 130.609182 
L 622.441666 131.805661 
L 622.637924 131.950016 
L 622.794931 131.973118 
L 622.912685 131.642131 
L 623.305201 129.958424 
L 623.344453 130.007693 
L 623.501459 130.716616 
L 623.854724 132.29432 
L 623.972478 132.243285 
L 624.247239 131.664931 
L 624.679007 130.69536 
L 624.718259 130.712986 
L 624.875265 131.046811 
L 625.189278 131.712926 
L 625.464039 131.843742 
L 625.7388 132.121319 
L 625.856555 131.854573 
L 626.209819 130.622892 
L 626.249071 130.643698 
L 626.406077 131.101921 
L 626.72009 132.014153 
L 626.994851 132.097694 
L 627.191109 132.000002 
L 627.46587 131.358237 
L 627.622876 131.183767 
L 627.662128 131.208824 
L 627.858386 131.656611 
L 628.21165 132.407262 
L 628.44716 132.523878 
L 628.564915 132.315651 
L 628.800424 131.225671 
L 629.035934 130.412705 
L 629.114437 130.455064 
L 629.310695 131.104405 
L 629.585456 131.867223 
L 629.977972 132.107942 
L 630.095727 131.99253 
L 630.488243 131.141054 
L 630.566746 131.250411 
L 631.15552 132.503894 
L 631.391029 132.429139 
L 631.548036 131.940538 
L 631.940552 130.12353 
L 631.979803 130.157849 
L 632.13681 130.771731 
L 632.411571 131.834624 
L 632.529326 131.818315 
L 632.804087 131.700764 
L 633.039596 131.734379 
L 633.196603 131.361859 
L 633.510615 130.641066 
L 633.62837 130.902225 
L 634.138641 132.502762 
L 634.295647 132.383155 
L 634.491905 131.793366 
L 634.84517 130.600605 
L 634.923673 130.659347 
L 635.119931 131.328101 
L 635.433943 132.18723 
L 635.669453 132.225682 
L 635.826459 132.076288 
L 636.061969 131.435546 
L 636.297478 130.921682 
L 636.415233 131.022913 
L 637.121762 132.428562 
L 637.278768 132.344659 
L 637.475026 131.725789 
L 637.749787 130.861257 
L 637.828291 130.903516 
L 638.024549 131.49162 
L 638.29931 132.088656 
L 638.731077 132.245246 
L 638.888084 131.83225 
L 639.241348 130.502857 
L 639.2806 130.525482 
L 639.437606 130.992709 
L 639.712367 131.67919 
L 640.02638 131.703206 
L 640.261889 131.975308 
L 640.301141 131.934682 
L 640.458147 131.388965 
L 640.732908 130.346544 
L 640.811412 130.438982 
L 641.046921 131.523545 
L 641.282431 132.162023 
L 641.478689 132.129289 
L 641.714198 131.870539 
L 642.145966 131.05881 
L 642.185217 131.096252 
L 642.459979 131.746338 
L 642.73474 132.054147 
L 643.088004 132.274938 
L 643.24501 131.812447 
L 643.598275 130.562782 
L 643.71603 130.87627 
L 644.069294 132.121396 
L 644.2263 131.936295 
L 644.383307 131.805502 
L 644.422558 131.835584 
L 644.618816 132.315343 
L 644.893577 132.879084 
L 645.089835 132.834641 
L 645.403848 132.743243 
L 646.267383 132.776767 
L 648.66173 132.780939 
L 648.66173 132.780939 
" clip-path="url(#pe5c63ab170)" style="fill: none; stroke: #7e7b7d; stroke-linecap: square"/>
   </g>
   <g id="patch_14">
    <path d="M 576.495714 138.04 
L 576.495714 27.6 
" style="fill: none; stroke: #585759; stroke-width: 0.8; stroke-linejoin: miter; stroke-linecap: square"/>
   </g>
   <g id="patch_15">
    <path d="M 576.495714 138.04 
L 652.098207 138.04 
" style="fill: none; stroke: #585759; stroke-width: 0.8; stroke-linejoin: miter; stroke-linecap: square"/>
   </g>
   <g id="text_50">
    <!-- VLat -->
    <g style="fill: #585759" transform="translate(598.125086 21.6)scale(0.144 -0.144)">
     <defs>
      <path id="DejaVuSans-56" d="M 1831 0 
L 50 4666 
L 709 4666 
L 2188 738 
L 3669 4666 
L 4325 4666 
L 2547 0 
L 1831 0 
z
" transform="scale(0.015625)"/>
      <path id="DejaVuSans-4c" d="M 628 4666 
L 1259 4666 
L 1259 531 
L 3531 531 
L 3531 0 
L 628 0 
L 628 4666 
z
" transform="scale(0.015625)"/>
     </defs>
     <use xlink:href="#DejaVuSans-56"/>
     <use xlink:href="#DejaVuSans-4c" x="68.408203"/>
     <use xlink:href="#DejaVuSans-61" x="124.121094"/>
     <use xlink:href="#DejaVuSans-74" x="185.400391"/>
    </g>
   </g>
  </g>
  <g id="axes_6">
   <g id="patch_16">
    <path d="M 708.667143 138.04 
L 784.269636 138.04 
L 784.269636 27.6 
L 708.667143 27.6 
L 708.667143 138.04 
z
" style="fill: none"/>
   </g>
   <g id="matplotlib.axis_11">
    <g id="xtick_11">
     <g id="line2d_41">
      <g>
       <use xlink:href="#maedbe0eb58" x="712.10362" y="138.04" style="fill: #585759; stroke: #585759; stroke-width: 0.8"/>
      </g>
     </g>
     <g id="text_51">
      <!-- 0 -->
      <g style="fill: #585759" transform="translate(708.92237 152.638438)scale(0.1 -0.1)">
       <use xlink:href="#DejaVuSans-30"/>
      </g>
     </g>
    </g>
    <g id="xtick_12">
     <g id="line2d_42">
      <g>
       <use xlink:href="#maedbe0eb58" x="780.833159" y="138.04" style="fill: #585759; stroke: #585759; stroke-width: 0.8"/>
      </g>
     </g>
     <g id="text_52">
      <!-- 1000 -->
      <g style="fill: #585759" transform="translate(768.108159 152.638438)scale(0.1 -0.1)">
       <use xlink:href="#DejaVuSans-31"/>
       <use xlink:href="#DejaVuSans-30" x="63.623047"/>
       <use xlink:href="#DejaVuSans-30" x="127.246094"/>
       <use xlink:href="#DejaVuSans-30" x="190.869141"/>
      </g>
     </g>
    </g>
    <g id="text_53">
     <!-- Time [ms] -->
     <g style="fill: #585759" transform="translate(721.269171 166.316563)scale(0.1 -0.1)">
      <use xlink:href="#DejaVuSans-54"/>
      <use xlink:href="#DejaVuSans-69" x="57.958984"/>
      <use xlink:href="#DejaVuSans-6d" x="85.742188"/>
      <use xlink:href="#DejaVuSans-65" x="183.154297"/>
      <use xlink:href="#DejaVuSans-20" x="244.677734"/>
      <use xlink:href="#DejaVuSans-5b" x="276.464844"/>
      <use xlink:href="#DejaVuSans-6d" x="315.478516"/>
      <use xlink:href="#DejaVuSans-73" x="412.890625"/>
      <use xlink:href="#DejaVuSans-5d" x="464.990234"/>
     </g>
    </g>
   </g>
   <g id="matplotlib.axis_12">
    <g id="ytick_26">
     <g id="line2d_43">
      <g>
       <use xlink:href="#m53f5904152" x="708.667143" y="132.780952" style="fill: #585759; stroke: #585759; stroke-width: 0.8"/>
      </g>
     </g>
     <g id="text_54">
      <!-- 0.00 -->
      <g style="fill: #585759" transform="translate(679.401518 136.580171)scale(0.1 -0.1)">
       <use xlink:href="#DejaVuSans-30"/>
       <use xlink:href="#DejaVuSans-2e" x="63.623047"/>
       <use xlink:href="#DejaVuSans-30" x="95.410156"/>
       <use xlink:href="#DejaVuSans-30" x="159.033203"/>
      </g>
     </g>
    </g>
    <g id="ytick_27">
     <g id="line2d_44">
      <g>
       <use xlink:href="#m53f5904152" x="708.667143" y="106.485714" style="fill: #585759; stroke: #585759; stroke-width: 0.8"/>
      </g>
     </g>
     <g id="text_55">
      <!-- 0.25 -->
      <g style="fill: #585759" transform="translate(679.401518 110.284933)scale(0.1 -0.1)">
       <use xlink:href="#DejaVuSans-30"/>
       <use xlink:href="#DejaVuSans-2e" x="63.623047"/>
       <use xlink:href="#DejaVuSans-32" x="95.410156"/>
       <use xlink:href="#DejaVuSans-35" x="159.033203"/>
      </g>
     </g>
    </g>
    <g id="ytick_28">
     <g id="line2d_45">
      <g>
       <use xlink:href="#m53f5904152" x="708.667143" y="80.190476" style="fill: #585759; stroke: #585759; stroke-width: 0.8"/>
      </g>
     </g>
     <g id="text_56">
      <!-- 0.50 -->
      <g style="fill: #585759" transform="translate(679.401518 83.989695)scale(0.1 -0.1)">
       <use xlink:href="#DejaVuSans-30"/>
       <use xlink:href="#DejaVuSans-2e" x="63.623047"/>
       <use xlink:href="#DejaVuSans-35" x="95.410156"/>
       <use xlink:href="#DejaVuSans-30" x="159.033203"/>
      </g>
     </g>
    </g>
    <g id="ytick_29">
     <g id="line2d_46">
      <g>
       <use xlink:href="#m53f5904152" x="708.667143" y="53.895238" style="fill: #585759; stroke: #585759; stroke-width: 0.8"/>
      </g>
     </g>
     <g id="text_57">
      <!-- 0.75 -->
      <g style="fill: #585759" transform="translate(679.401518 57.694457)scale(0.1 -0.1)">
       <use xlink:href="#DejaVuSans-30"/>
       <use xlink:href="#DejaVuSans-2e" x="63.623047"/>
       <use xlink:href="#DejaVuSans-37" x="95.410156"/>
       <use xlink:href="#DejaVuSans-35" x="159.033203"/>
      </g>
     </g>
    </g>
    <g id="ytick_30">
     <g id="line2d_47">
      <g>
       <use xlink:href="#m53f5904152" x="708.667143" y="27.6" style="fill: #585759; stroke: #585759; stroke-width: 0.8"/>
      </g>
     </g>
     <g id="text_58">
      <!-- 1.00 -->
      <g style="fill: #585759" transform="translate(679.401518 31.399219)scale(0.1 -0.1)">
       <use xlink:href="#DejaVuSans-31"/>
       <use xlink:href="#DejaVuSans-2e" x="63.623047"/>
       <use xlink:href="#DejaVuSans-30" x="95.410156"/>
       <use xlink:href="#DejaVuSans-30" x="159.033203"/>
      </g>
     </g>
    </g>
    <g id="text_59">
     <!--   -->
     <g style="fill: #585759" transform="translate(673.32183 84.409062)rotate(-90)scale(0.1 -0.1)">
      <use xlink:href="#DejaVuSans-20"/>
     </g>
    </g>
   </g>
   <g id="line2d_48">
    <path d="M 712.10362 132.780952 
L 715.989527 132.689712 
L 716.342792 132.597002 
L 716.774559 132.60493 
L 717.010069 132.580608 
L 717.363333 132.835598 
L 717.402585 132.758386 
L 717.598843 131.863688 
L 717.716598 131.434734 
L 717.755849 131.446402 
L 717.834352 131.819036 
L 718.109114 135.021523 
L 718.187617 134.458083 
L 718.305371 129.792325 
L 718.501629 110.197708 
L 718.894145 72.347534 
L 718.933397 72.493441 
L 719.051152 78.676493 
L 719.561422 129.083527 
L 719.639926 128.265249 
L 719.836184 118.418913 
L 720.071693 110.602701 
L 720.150196 111.584734 
L 720.346454 119.773631 
L 720.660467 130.748297 
L 720.778222 131.281974 
L 720.817473 131.194999 
L 721.013731 130.571749 
L 721.052983 130.586899 
L 721.209989 131.095921 
L 721.327744 131.286205 
L 721.406247 130.950992 
L 721.602505 128.337474 
L 721.838015 125.679683 
L 721.877266 125.71566 
L 721.995021 126.771332 
L 722.505292 133.61321 
L 722.583795 133.198087 
L 722.740801 130.469869 
L 723.211821 118.635361 
L 723.251072 118.760767 
L 723.368827 120.759664 
L 723.839846 131.666039 
L 723.918349 131.446003 
L 724.153859 129.213127 
L 724.585626 125.374103 
L 724.664129 125.648439 
L 724.821136 127.599255 
L 725.1744 131.994439 
L 725.331407 132.226744 
L 725.527665 132.08654 
L 725.645419 131.684163 
L 725.841677 129.787242 
L 726.15569 126.506676 
L 726.234193 126.706865 
L 726.3912 128.47634 
L 726.744464 132.273158 
L 726.822967 132.378661 
L 726.862219 132.333159 
L 726.979973 131.808337 
L 727.215483 129.078364 
L 727.490244 126.349172 
L 727.568747 126.581097 
L 727.765005 128.883179 
L 728.039766 131.425147 
L 728.393031 132.430701 
L 728.432282 132.417285 
L 728.510786 132.066083 
L 728.667792 129.66011 
L 729.021056 123.305926 
L 729.099559 123.935431 
L 729.60983 132.401072 
L 729.688333 132.286102 
L 729.923843 131.114137 
L 730.237856 128.198572 
L 730.434114 126.953841 
L 730.473365 126.973893 
L 730.59112 127.627974 
L 731.179894 132.318424 
L 731.297649 132.520061 
L 731.376152 132.185672 
L 731.533158 129.812198 
L 731.886423 122.551015 
L 731.925674 122.56256 
L 732.043429 124.005497 
L 732.475196 131.545907 
L 732.592951 131.657171 
L 732.632203 131.628374 
L 732.828461 131.285061 
L 732.985467 130.261279 
L 733.377983 126.606383 
L 733.417235 126.697029 
L 733.574241 128.045424 
L 733.927505 131.082321 
L 734.241518 132.174884 
L 734.320021 131.918174 
L 734.477028 129.848706 
L 734.830292 124.291376 
L 734.908795 124.792521 
L 735.183556 129.929353 
L 735.458318 132.79035 
L 735.576072 132.961161 
L 735.654575 132.680502 
L 735.811582 130.576749 
L 736.243349 120.798837 
L 736.282601 120.989395 
L 736.439607 124.260372 
L 736.75362 131.374697 
L 736.832123 131.59482 
L 736.871375 131.533993 
L 737.106884 130.933361 
L 737.146136 130.970934 
L 737.342394 131.291905 
L 737.381646 131.238086 
L 737.4994 130.63434 
L 737.813413 128.575966 
L 737.891916 128.844981 
L 738.559193 132.830218 
L 738.676948 132.792156 
L 738.794703 132.47721 
L 739.030212 130.85201 
L 739.265722 129.8048 
L 739.383477 130.136376 
L 739.932999 132.444231 
L 740.090005 132.707858 
L 740.129257 132.681206 
L 740.247012 132.241423 
L 740.678779 129.171612 
L 740.757283 129.392653 
L 741.306805 131.91746 
L 741.660069 132.512177 
L 741.699321 132.45477 
L 741.856327 131.719846 
L 742.17034 130.111641 
L 742.248843 130.257683 
L 742.91612 132.550716 
L 743.112378 132.482465 
L 743.347888 132.05404 
L 743.622649 131.677846 
L 743.858158 131.772752 
L 744.13292 132.065241 
L 744.446932 132.829388 
L 744.525435 132.725249 
L 744.682442 131.732188 
L 745.035706 129.068897 
L 745.114209 129.257194 
L 745.38897 131.34068 
L 745.663732 132.525287 
L 745.820738 132.584462 
L 745.977744 132.23095 
L 746.448763 130.472369 
L 746.488015 130.514146 
L 746.684273 131.146413 
L 747.076789 132.285179 
L 747.390802 132.829479 
L 747.430053 132.804726 
L 747.547808 132.438374 
L 747.979576 129.711971 
L 748.058079 129.885408 
L 748.33284 131.769946 
L 748.646853 133.043484 
L 748.725356 133.08155 
L 748.764607 133.017298 
L 748.882362 132.301132 
L 749.07862 128.938696 
L 749.353381 124.430966 
L 749.392633 124.47504 
L 749.510388 125.893668 
L 749.942155 133.17109 
L 749.981407 133.212064 
L 750.020658 133.170464 
L 750.530929 132.134586 
L 750.80569 132.06627 
L 751.0412 132.042868 
L 751.276709 132.360039 
L 751.629974 132.825832 
L 751.747729 132.732879 
L 751.943986 132.106727 
L 752.375754 130.55896 
L 752.493509 130.69331 
L 752.729018 131.607174 
L 753.082283 132.878842 
L 753.160786 132.721101 
L 753.317792 131.576127 
L 753.710308 128.052681 
L 753.788811 128.332101 
L 754.024321 130.902266 
L 754.299082 132.912921 
L 754.377585 132.944956 
L 754.416837 132.8947 
L 754.613095 132.263102 
L 755.044862 130.854655 
L 755.162617 130.920985 
L 755.398127 131.577481 
L 755.790643 132.555014 
L 756.026152 132.685781 
L 756.183159 132.458693 
L 756.45792 131.355826 
L 756.693429 130.764812 
L 756.811184 130.980332 
L 757.399958 132.664172 
L 757.556964 132.534393 
L 757.713971 132.0126 
L 758.145738 130.036509 
L 758.18499 130.079406 
L 758.341996 130.740727 
L 758.773764 132.783078 
L 758.970022 132.892453 
L 759.087776 132.749491 
L 759.284034 131.965385 
L 759.637299 130.436786 
L 759.755053 130.742198 
L 760.226073 132.571695 
L 760.343827 132.505791 
L 760.540085 131.986338 
L 760.89335 131.107225 
L 761.011104 131.281684 
L 761.599878 132.56522 
L 761.796136 132.636784 
L 761.913891 132.479119 
L 762.149401 131.599703 
L 762.38491 130.916617 
L 762.502665 131.015185 
L 763.209194 132.450529 
L 763.3662 132.395038 
L 763.562458 131.969095 
L 763.954974 131.067551 
L 764.072729 131.125784 
L 764.268987 131.592661 
L 764.661503 132.562264 
L 764.857761 132.582201 
L 765.014767 132.29139 
L 765.485786 130.610969 
L 765.564289 130.688234 
L 765.760547 131.427401 
L 766.153063 132.829993 
L 766.231566 132.792808 
L 766.388573 132.253261 
L 766.859592 129.858296 
L 766.898843 129.904466 
L 767.05585 130.592021 
L 767.448366 132.637292 
L 767.56612 132.64825 
L 767.723127 132.143908 
L 768.194146 129.335189 
L 768.272649 129.46473 
L 768.468907 130.770382 
L 768.78292 132.457783 
L 768.939926 132.498419 
L 769.175436 132.519057 
L 769.332442 132.519103 
L 769.489448 132.164674 
L 769.842713 131.055537 
L 769.881964 131.071657 
L 770.038971 131.456987 
L 770.431487 132.532136 
L 770.549241 132.465142 
L 770.745499 131.982675 
L 771.177267 130.948049 
L 771.295022 130.997859 
L 771.49128 131.451948 
L 771.923047 132.575146 
L 772.080054 132.54006 
L 772.825834 132.013574 
L 773.022092 132.217051 
L 773.453859 132.853001 
L 773.571614 132.628498 
L 773.767872 131.568765 
L 774.121136 129.839323 
L 774.19964 129.979583 
L 774.395898 131.121629 
L 774.70991 132.724731 
L 774.827665 132.807668 
L 774.866917 132.779937 
L 775.023923 132.385002 
L 775.259433 130.788095 
L 775.534194 129.178433 
L 775.612697 129.34498 
L 775.808955 130.830933 
L 776.083716 132.500251 
L 776.240722 132.580278 
L 776.515484 132.504471 
L 777.182761 132.784 
L 778.242554 132.779707 
L 780.833159 132.780951 
L 780.833159 132.780951 
" clip-path="url(#p7641fab45d)" style="fill: none; stroke: #7e7b7d; stroke-linecap: square"/>
   </g>
   <g id="patch_17">
    <path d="M 708.667143 138.04 
L 708.667143 27.6 
" style="fill: none; stroke: #585759; stroke-width: 0.8; stroke-linejoin: miter; stroke-linecap: square"/>
   </g>
   <g id="patch_18">
    <path d="M 708.667143 138.04 
L 784.269636 138.04 
" style="fill: none; stroke: #585759; stroke-width: 0.8; stroke-linejoin: miter; stroke-linecap: square"/>
   </g>
   <g id="text_60">
    <!-- BF -->
    <g style="fill: #585759" transform="translate(737.387389 21.6)scale(0.144 -0.144)">
     <defs>
      <path id="DejaVuSans-42" d="M 1259 2228 
L 1259 519 
L 2272 519 
Q 2781 519 3026 730 
Q 3272 941 3272 1375 
Q 3272 1813 3026 2020 
Q 2781 2228 2272 2228 
L 1259 2228 
z
M 1259 4147 
L 1259 2741 
L 2194 2741 
Q 2656 2741 2882 2914 
Q 3109 3088 3109 3444 
Q 3109 3797 2882 3972 
Q 2656 4147 2194 4147 
L 1259 4147 
z
M 628 4666 
L 2241 4666 
Q 2963 4666 3353 4366 
Q 3744 4066 3744 3513 
Q 3744 3084 3544 2831 
Q 3344 2578 2956 2516 
Q 3422 2416 3680 2098 
Q 3938 1781 3938 1306 
Q 3938 681 3513 340 
Q 3088 0 2303 0 
L 628 0 
L 628 4666 
z
" transform="scale(0.015625)"/>
     </defs>
     <use xlink:href="#DejaVuSans-42"/>
     <use xlink:href="#DejaVuSans-46" x="68.603516"/>
    </g>
   </g>
  </g>
  <g id="axes_7">
   <g id="patch_19">
    <path d="M 840.838571 138.04 
L 916.441064 138.04 
L 916.441064 27.6 
L 840.838571 27.6 
L 840.838571 138.04 
z
" style="fill: none"/>
   </g>
   <g id="matplotlib.axis_13">
    <g id="xtick_13">
     <g id="line2d_49">
      <g>
       <use xlink:href="#maedbe0eb58" x="844.275048" y="138.04" style="fill: #585759; stroke: #585759; stroke-width: 0.8"/>
      </g>
     </g>
     <g id="text_61">
      <!-- 0 -->
      <g style="fill: #585759" transform="translate(841.093798 152.638438)scale(0.1 -0.1)">
       <use xlink:href="#DejaVuSans-30"/>
      </g>
     </g>
    </g>
    <g id="xtick_14">
     <g id="line2d_50">
      <g>
       <use xlink:href="#maedbe0eb58" x="913.004587" y="138.04" style="fill: #585759; stroke: #585759; stroke-width: 0.8"/>
      </g>
     </g>
     <g id="text_62">
      <!-- 1000 -->
      <g style="fill: #585759" transform="translate(900.279587 152.638438)scale(0.1 -0.1)">
       <use xlink:href="#DejaVuSans-31"/>
       <use xlink:href="#DejaVuSans-30" x="63.623047"/>
       <use xlink:href="#DejaVuSans-30" x="127.246094"/>
       <use xlink:href="#DejaVuSans-30" x="190.869141"/>
      </g>
     </g>
    </g>
    <g id="text_63">
     <!-- Time [ms] -->
     <g style="fill: #585759" transform="translate(853.440599 166.316563)scale(0.1 -0.1)">
      <use xlink:href="#DejaVuSans-54"/>
      <use xlink:href="#DejaVuSans-69" x="57.958984"/>
      <use xlink:href="#DejaVuSans-6d" x="85.742188"/>
      <use xlink:href="#DejaVuSans-65" x="183.154297"/>
      <use xlink:href="#DejaVuSans-20" x="244.677734"/>
      <use xlink:href="#DejaVuSans-5b" x="276.464844"/>
      <use xlink:href="#DejaVuSans-6d" x="315.478516"/>
      <use xlink:href="#DejaVuSans-73" x="412.890625"/>
      <use xlink:href="#DejaVuSans-5d" x="464.990234"/>
     </g>
    </g>
   </g>
   <g id="matplotlib.axis_14">
    <g id="ytick_31">
     <g id="line2d_51">
      <g>
       <use xlink:href="#m53f5904152" x="840.838571" y="132.780952" style="fill: #585759; stroke: #585759; stroke-width: 0.8"/>
      </g>
     </g>
     <g id="text_64">
      <!-- 0.00 -->
      <g style="fill: #585759" transform="translate(811.572946 136.580171)scale(0.1 -0.1)">
       <use xlink:href="#DejaVuSans-30"/>
       <use xlink:href="#DejaVuSans-2e" x="63.623047"/>
       <use xlink:href="#DejaVuSans-30" x="95.410156"/>
       <use xlink:href="#DejaVuSans-30" x="159.033203"/>
      </g>
     </g>
    </g>
    <g id="ytick_32">
     <g id="line2d_52">
      <g>
       <use xlink:href="#m53f5904152" x="840.838571" y="106.485714" style="fill: #585759; stroke: #585759; stroke-width: 0.8"/>
      </g>
     </g>
     <g id="text_65">
      <!-- 0.25 -->
      <g style="fill: #585759" transform="translate(811.572946 110.284933)scale(0.1 -0.1)">
       <use xlink:href="#DejaVuSans-30"/>
       <use xlink:href="#DejaVuSans-2e" x="63.623047"/>
       <use xlink:href="#DejaVuSans-32" x="95.410156"/>
       <use xlink:href="#DejaVuSans-35" x="159.033203"/>
      </g>
     </g>
    </g>
    <g id="ytick_33">
     <g id="line2d_53">
      <g>
       <use xlink:href="#m53f5904152" x="840.838571" y="80.190476" style="fill: #585759; stroke: #585759; stroke-width: 0.8"/>
      </g>
     </g>
     <g id="text_66">
      <!-- 0.50 -->
      <g style="fill: #585759" transform="translate(811.572946 83.989695)scale(0.1 -0.1)">
       <use xlink:href="#DejaVuSans-30"/>
       <use xlink:href="#DejaVuSans-2e" x="63.623047"/>
       <use xlink:href="#DejaVuSans-35" x="95.410156"/>
       <use xlink:href="#DejaVuSans-30" x="159.033203"/>
      </g>
     </g>
    </g>
    <g id="ytick_34">
     <g id="line2d_54">
      <g>
       <use xlink:href="#m53f5904152" x="840.838571" y="53.895238" style="fill: #585759; stroke: #585759; stroke-width: 0.8"/>
      </g>
     </g>
     <g id="text_67">
      <!-- 0.75 -->
      <g style="fill: #585759" transform="translate(811.572946 57.694457)scale(0.1 -0.1)">
       <use xlink:href="#DejaVuSans-30"/>
       <use xlink:href="#DejaVuSans-2e" x="63.623047"/>
       <use xlink:href="#DejaVuSans-37" x="95.410156"/>
       <use xlink:href="#DejaVuSans-35" x="159.033203"/>
      </g>
     </g>
    </g>
    <g id="ytick_35">
     <g id="line2d_55">
      <g>
       <use xlink:href="#m53f5904152" x="840.838571" y="27.6" style="fill: #585759; stroke: #585759; stroke-width: 0.8"/>
      </g>
     </g>
     <g id="text_68">
      <!-- 1.00 -->
      <g style="fill: #585759" transform="translate(811.572946 31.399219)scale(0.1 -0.1)">
       <use xlink:href="#DejaVuSans-31"/>
       <use xlink:href="#DejaVuSans-2e" x="63.623047"/>
       <use xlink:href="#DejaVuSans-30" x="95.410156"/>
       <use xlink:href="#DejaVuSans-30" x="159.033203"/>
      </g>
     </g>
    </g>
    <g id="text_69">
     <!--   -->
     <g style="fill: #585759" transform="translate(805.493259 84.409062)rotate(-90)scale(0.1 -0.1)">
      <use xlink:href="#DejaVuSans-20"/>
     </g>
    </g>
   </g>
   <g id="line2d_56">
    <path d="M 844.275048 132.780952 
L 849.299252 132.678695 
L 849.534762 132.613356 
L 849.73102 132.864701 
L 849.888026 132.996358 
L 850.005781 132.767654 
L 850.280542 131.809892 
L 850.319794 131.876904 
L 850.437548 132.697887 
L 850.673058 134.71727 
L 850.751561 133.696406 
L 850.908568 126.182211 
L 851.340335 97.589717 
L 851.379587 98.400962 
L 851.536593 108.887955 
L 851.889857 133.325109 
L 851.929109 133.631059 
L 851.968361 133.50899 
L 852.125367 130.667772 
L 852.400128 126.871916 
L 852.596386 126.515483 
L 852.714141 126.704767 
L 852.871147 127.648079 
L 853.302915 132.322977 
L 853.538424 134.760541 
L 853.577676 134.65708 
L 853.695431 132.367694 
L 853.891689 121.358205 
L 854.16645 108.001444 
L 854.205701 108.218985 
L 854.323456 112.54041 
L 854.755224 133.256712 
L 854.794475 133.33839 
L 854.833727 133.186673 
L 855.029985 130.654417 
L 855.540256 120.76674 
L 855.65801 121.655676 
L 855.972023 130.3506 
L 856.207533 133.115585 
L 856.325287 133.249777 
L 856.364539 133.209814 
L 856.482294 132.704037 
L 856.6393 130.328695 
L 857.031816 121.652498 
L 857.071068 121.866203 
L 857.228074 125.220104 
L 857.581338 132.971774 
L 857.659842 133.175019 
L 857.699093 133.143743 
L 857.895351 132.471557 
L 858.091609 130.953128 
L 858.523377 125.494122 
L 858.562628 125.639562 
L 858.719635 127.551194 
L 859.151402 133.045305 
L 859.34766 133.862997 
L 859.426163 133.416819 
L 859.58317 130.119251 
L 859.975685 119.608241 
L 860.09344 121.610635 
L 860.564459 132.896668 
L 860.682214 133.21057 
L 860.721466 133.17983 
L 860.799969 132.838385 
L 860.917724 131.225052 
L 861.192485 122.26198 
L 861.349491 119.567798 
L 861.427994 120.468858 
L 861.663504 128.975649 
L 861.899014 133.653971 
L 861.977517 133.401706 
L 862.330781 131.255728 
L 862.487787 131.186422 
L 862.644794 130.527737 
L 862.919555 129.316708 
L 863.03731 129.73487 
L 863.665335 133.210279 
L 863.743838 133.157351 
L 863.861593 132.5098 
L 864.097103 129.1108 
L 864.332612 127.026203 
L 864.450367 127.842397 
L 864.960638 132.748487 
L 865.117644 133.119488 
L 865.196147 132.879846 
L 865.353154 130.849433 
L 865.706418 124.391742 
L 865.74567 124.50786 
L 865.863424 126.205815 
L 866.25594 132.746595 
L 866.334444 132.798886 
L 866.373695 132.760607 
L 866.726959 132.17452 
L 866.883966 130.301131 
L 867.23723 125.671916 
L 867.354985 126.728528 
L 867.826004 132.943115 
L 867.904507 132.817413 
L 868.375526 130.878638 
L 868.611036 130.163649 
L 868.689539 130.25794 
L 868.885797 131.185171 
L 869.239061 132.544853 
L 869.513823 133.312701 
L 869.553074 133.271522 
L 869.670829 132.464618 
L 869.906338 127.801238 
L 870.102596 125.178805 
L 870.1811 125.589334 
L 870.377358 129.323873 
L 870.652119 133.200908 
L 870.809125 133.469201 
L 870.92688 133.294058 
L 871.044635 132.68513 
L 871.240893 129.964824 
L 871.515654 126.28638 
L 871.594157 126.619138 
L 871.790415 129.787369 
L 872.065176 132.97435 
L 872.143679 133.058868 
L 872.182931 133.026863 
L 872.614698 132.282626 
L 873.046466 130.580247 
L 873.085717 130.643525 
L 873.281975 131.461462 
L 873.792246 133.542936 
L 873.870749 133.463695 
L 873.988504 132.402541 
L 874.420272 124.464509 
L 874.498775 125.061133 
L 874.969794 133.147902 
L 875.087549 132.930113 
L 875.323058 132.383407 
L 875.519316 132.406777 
L 875.637071 131.903929 
L 875.990335 129.374404 
L 876.029587 129.402798 
L 876.147342 130.000671 
L 876.579109 132.666271 
L 876.696864 132.758154 
L 876.736116 132.721881 
L 876.85387 132.287254 
L 877.050128 130.139436 
L 877.32489 127.461891 
L 877.403393 127.809532 
L 878.031418 132.973418 
L 878.227676 133.05096 
L 878.345431 132.594332 
L 878.541689 129.99638 
L 878.81645 126.51066 
L 878.894953 126.786063 
L 879.091211 129.610298 
L 879.405224 133.168219 
L 879.601482 133.544498 
L 879.679985 133.358151 
L 879.79774 132.383293 
L 880.033249 127.574816 
L 880.268759 124.467593 
L 880.347262 125.129472 
L 880.857533 132.944926 
L 880.936036 132.83519 
L 881.2893 132.153767 
L 881.446307 131.831382 
L 881.799571 130.816112 
L 881.838823 130.848085 
L 882.035081 131.391428 
L 882.349093 132.849763 
L 882.545351 133.831763 
L 882.584603 133.808244 
L 882.663106 133.304804 
L 882.820112 130.119678 
L 883.134125 122.722906 
L 883.173377 122.801655 
L 883.291132 124.78328 
L 883.683648 133.508351 
L 883.722899 133.568048 
L 883.762151 133.5081 
L 884.193918 132.254779 
L 884.311673 132.013378 
L 884.704189 130.304403 
L 884.782692 130.484763 
L 885.449969 132.972678 
L 885.528472 132.8927 
L 885.646227 132.335659 
L 885.881737 129.502528 
L 886.077995 127.852863 
L 886.156498 128.076025 
L 886.352756 130.354079 
L 886.627517 132.845213 
L 886.863027 133.252542 
L 886.94153 133.213778 
L 887.059285 132.726278 
L 887.255542 130.265695 
L 887.530304 127.412947 
L 887.608807 127.863729 
L 888.079826 132.787277 
L 888.119078 132.77159 
L 888.315335 132.621285 
L 888.354587 132.657858 
L 888.550845 132.831476 
L 888.6686 132.317429 
L 889.061116 128.695749 
L 889.139619 128.955924 
L 889.41438 131.955771 
L 889.610638 133.005957 
L 889.728393 133.001653 
L 889.963902 132.63423 
L 890.120909 131.929858 
L 890.513425 129.375891 
L 890.552676 129.437845 
L 890.709683 130.441863 
L 891.023695 132.514788 
L 891.14145 132.500712 
L 891.573218 132.007116 
L 892.044237 131.811806 
L 892.35825 132.139275 
L 892.515256 132.749695 
L 892.750765 133.838876 
L 892.790017 133.73574 
L 892.907772 132.337405 
L 893.339539 121.708819 
L 893.418043 122.437159 
L 893.653552 129.275841 
L 893.889062 133.423712 
L 893.967565 133.50878 
L 894.163823 132.732048 
L 894.713345 131.047233 
L 894.8311 130.870749 
L 894.870351 130.889959 
L 895.027358 131.312523 
L 895.459125 132.612187 
L 895.694635 132.914875 
L 895.81239 132.573775 
L 896.008648 130.727827 
L 896.283409 128.66064 
L 896.401164 129.332011 
L 896.832931 132.844193 
L 896.950686 132.755769 
L 897.186195 132.617842 
L 897.30395 132.501418 
L 897.460957 131.686666 
L 897.814221 129.3412 
L 897.931976 129.891706 
L 898.442246 133.292104 
L 898.52075 133.358529 
L 898.560001 133.318698 
L 898.677756 132.754571 
L 898.874014 129.970986 
L 899.148775 126.350546 
L 899.227278 126.6514 
L 899.423536 129.590779 
L 899.698297 132.724909 
L 899.894555 133.103946 
L 900.01231 133.028694 
L 900.130065 132.410823 
L 900.326323 129.415895 
L 900.601084 125.697339 
L 900.679587 126.15608 
L 900.915097 130.468984 
L 901.150606 132.897267 
L 901.22911 132.845789 
L 901.543122 132.147202 
L 901.582374 132.167662 
L 901.896387 132.346841 
L 902.249651 132.248488 
L 902.838425 132.679954 
L 902.995431 132.817308 
L 903.034683 132.778363 
L 903.152438 132.369193 
L 903.584205 129.673931 
L 903.662708 129.848475 
L 903.898218 131.444681 
L 904.251482 133.289936 
L 904.329985 133.330158 
L 904.408489 133.068546 
L 904.565495 131.33239 
L 904.918759 126.341832 
L 904.958011 126.428993 
L 905.075766 127.703409 
L 905.468282 132.814798 
L 905.546785 132.797913 
L 905.900049 132.169448 
L 906.17481 132.254253 
L 906.606578 131.754547 
L 906.645829 131.796202 
L 907.39161 132.967734 
L 907.430861 132.91322 
L 907.548616 132.406157 
L 907.980383 128.899013 
L 908.058887 129.194705 
L 908.529906 132.861386 
L 908.608409 132.74433 
L 908.922422 132.12479 
L 909.079428 132.38756 
L 909.393441 132.880737 
L 909.62895 132.792482 
L 909.942963 132.758057 
L 910.570989 132.776536 
L 913.004587 132.780946 
L 913.004587 132.780946 
" clip-path="url(#p73a8d9532a)" style="fill: none; stroke: #7e7b7d; stroke-linecap: square"/>
   </g>
   <g id="patch_20">
    <path d="M 840.838571 138.04 
L 840.838571 27.6 
" style="fill: none; stroke: #585759; stroke-width: 0.8; stroke-linejoin: miter; stroke-linecap: square"/>
   </g>
   <g id="patch_21">
    <path d="M 840.838571 138.04 
L 916.441064 138.04 
" style="fill: none; stroke: #585759; stroke-width: 0.8; stroke-linejoin: miter; stroke-linecap: square"/>
   </g>
   <g id="text_70">
    <!-- MG -->
    <g style="fill: #585759" transform="translate(866.848693 21.6)scale(0.144 -0.144)">
     <use xlink:href="#DejaVuSans-4d"/>
     <use xlink:href="#DejaVuSans-47" x="86.279297"/>
    </g>
   </g>
  </g>
 </g>
 <defs>
  <clipPath id="p824d434b4b">
   <rect x="47.81" y="27.6" width="75.602493" height="110.44"/>
  </clipPath>
  <clipPath id="pbc8ee43659">
   <rect x="179.981429" y="27.6" width="75.602493" height="110.44"/>
  </clipPath>
  <clipPath id="p5e0300c8df">
   <rect x="312.152857" y="27.6" width="75.602493" height="110.44"/>
  </clipPath>
  <clipPath id="pfae6daeeef">
   <rect x="444.324286" y="27.6" width="75.602493" height="110.44"/>
  </clipPath>
  <clipPath id="pe5c63ab170">
   <rect x="576.495714" y="27.6" width="75.602493" height="110.44"/>
  </clipPath>
  <clipPath id="p7641fab45d">
   <rect x="708.667143" y="27.6" width="75.602493" height="110.44"/>
  </clipPath>
  <clipPath id="p73a8d9532a">
   <rect x="840.838571" y="27.6" width="75.602493" height="110.44"/>
  </clipPath>
 </defs>
</svg>
