<?xml version="1.0" encoding="utf-8" standalone="no"?>
<!DOCTYPE svg PUBLIC "-//W3C//DTD SVG 1.1//EN"
  "http://www.w3.org/Graphics/SVG/1.1/DTD/svg11.dtd">
<svg xmlns:xlink="http://www.w3.org/1999/xlink" width="936pt" height="288pt" viewBox="0 0 936 288" xmlns="http://www.w3.org/2000/svg" version="1.1">
 <metadata>
  <rdf:RDF xmlns:dc="http://purl.org/dc/elements/1.1/" xmlns:cc="http://creativecommons.org/ns#" xmlns:rdf="http://www.w3.org/1999/02/22-rdf-syntax-ns#">
   <cc:Work>
    <dc:type rdf:resource="http://purl.org/dc/dcmitype/StillImage"/>
    <dc:date>2023-01-14T11:58:01.753951</dc:date>
    <dc:format>image/svg+xml</dc:format>
    <dc:creator>
     <cc:Agent>
      <dc:title>Matplotlib v3.5.2, https://matplotlib.org/</dc:title>
     </cc:Agent>
    </dc:creator>
   </cc:Work>
  </rdf:RDF>
 </metadata>
 <defs>
  <style type="text/css">*{stroke-linejoin: round; stroke-linecap: butt}</style>
 </defs>
 <g id="figure_1">
  <g id="axes_1">
   <g id="patch_1">
    <path d="M 59.42 246.04 
L 925.2 246.04 
L 925.2 14.76 
L 59.42 14.76 
L 59.42 246.04 
z
" style="fill: none"/>
   </g>
   <g id="matplotlib.axis_1">
    <g id="xtick_1">
     <g id="line2d_1">
      <defs>
       <path id="m01d8ce47cd" d="M 0 0 
L 0 3.5 
" style="stroke: #585759; stroke-width: 0.8"/>
      </defs>
      <g>
       <use xlink:href="#m01d8ce47cd" x="98.773636" y="246.04" style="fill: #585759; stroke: #585759; stroke-width: 0.8"/>
      </g>
     </g>
     <g id="text_1">
      <!-- 0 -->
      <g style="fill: #585759" transform="translate(95.592386 260.638438)scale(0.1 -0.1)">
       <defs>
        <path id="DejaVuSans-30" d="M 2034 4250 
Q 1547 4250 1301 3770 
Q 1056 3291 1056 2328 
Q 1056 1369 1301 889 
Q 1547 409 2034 409 
Q 2525 409 2770 889 
Q 3016 1369 3016 2328 
Q 3016 3291 2770 3770 
Q 2525 4250 2034 4250 
z
M 2034 4750 
Q 2819 4750 3233 4129 
Q 3647 3509 3647 2328 
Q 3647 1150 3233 529 
Q 2819 -91 2034 -91 
Q 1250 -91 836 529 
Q 422 1150 422 2328 
Q 422 3509 836 4129 
Q 1250 4750 2034 4750 
z
" transform="scale(0.015625)"/>
       </defs>
       <use xlink:href="#DejaVuSans-30"/>
      </g>
     </g>
    </g>
    <g id="xtick_2">
     <g id="line2d_2">
      <g>
       <use xlink:href="#m01d8ce47cd" x="256.188182" y="246.04" style="fill: #585759; stroke: #585759; stroke-width: 0.8"/>
      </g>
     </g>
     <g id="text_2">
      <!-- 200 -->
      <g style="fill: #585759" transform="translate(246.644432 260.638438)scale(0.1 -0.1)">
       <defs>
        <path id="DejaVuSans-32" d="M 1228 531 
L 3431 531 
L 3431 0 
L 469 0 
L 469 531 
Q 828 903 1448 1529 
Q 2069 2156 2228 2338 
Q 2531 2678 2651 2914 
Q 2772 3150 2772 3378 
Q 2772 3750 2511 3984 
Q 2250 4219 1831 4219 
Q 1534 4219 1204 4116 
Q 875 4013 500 3803 
L 500 4441 
Q 881 4594 1212 4672 
Q 1544 4750 1819 4750 
Q 2544 4750 2975 4387 
Q 3406 4025 3406 3419 
Q 3406 3131 3298 2873 
Q 3191 2616 2906 2266 
Q 2828 2175 2409 1742 
Q 1991 1309 1228 531 
z
" transform="scale(0.015625)"/>
       </defs>
       <use xlink:href="#DejaVuSans-32"/>
       <use xlink:href="#DejaVuSans-30" x="63.623047"/>
       <use xlink:href="#DejaVuSans-30" x="127.246094"/>
      </g>
     </g>
    </g>
    <g id="xtick_3">
     <g id="line2d_3">
      <g>
       <use xlink:href="#m01d8ce47cd" x="413.602727" y="246.04" style="fill: #585759; stroke: #585759; stroke-width: 0.8"/>
      </g>
     </g>
     <g id="text_3">
      <!-- 400 -->
      <g style="fill: #585759" transform="translate(404.058977 260.638438)scale(0.1 -0.1)">
       <defs>
        <path id="DejaVuSans-34" d="M 2419 4116 
L 825 1625 
L 2419 1625 
L 2419 4116 
z
M 2253 4666 
L 3047 4666 
L 3047 1625 
L 3713 1625 
L 3713 1100 
L 3047 1100 
L 3047 0 
L 2419 0 
L 2419 1100 
L 313 1100 
L 313 1709 
L 2253 4666 
z
" transform="scale(0.015625)"/>
       </defs>
       <use xlink:href="#DejaVuSans-34"/>
       <use xlink:href="#DejaVuSans-30" x="63.623047"/>
       <use xlink:href="#DejaVuSans-30" x="127.246094"/>
      </g>
     </g>
    </g>
    <g id="xtick_4">
     <g id="line2d_4">
      <g>
       <use xlink:href="#m01d8ce47cd" x="571.017273" y="246.04" style="fill: #585759; stroke: #585759; stroke-width: 0.8"/>
      </g>
     </g>
     <g id="text_4">
      <!-- 600 -->
      <g style="fill: #585759" transform="translate(561.473523 260.638438)scale(0.1 -0.1)">
       <defs>
        <path id="DejaVuSans-36" d="M 2113 2584 
Q 1688 2584 1439 2293 
Q 1191 2003 1191 1497 
Q 1191 994 1439 701 
Q 1688 409 2113 409 
Q 2538 409 2786 701 
Q 3034 994 3034 1497 
Q 3034 2003 2786 2293 
Q 2538 2584 2113 2584 
z
M 3366 4563 
L 3366 3988 
Q 3128 4100 2886 4159 
Q 2644 4219 2406 4219 
Q 1781 4219 1451 3797 
Q 1122 3375 1075 2522 
Q 1259 2794 1537 2939 
Q 1816 3084 2150 3084 
Q 2853 3084 3261 2657 
Q 3669 2231 3669 1497 
Q 3669 778 3244 343 
Q 2819 -91 2113 -91 
Q 1303 -91 875 529 
Q 447 1150 447 2328 
Q 447 3434 972 4092 
Q 1497 4750 2381 4750 
Q 2619 4750 2861 4703 
Q 3103 4656 3366 4563 
z
" transform="scale(0.015625)"/>
       </defs>
       <use xlink:href="#DejaVuSans-36"/>
       <use xlink:href="#DejaVuSans-30" x="63.623047"/>
       <use xlink:href="#DejaVuSans-30" x="127.246094"/>
      </g>
     </g>
    </g>
    <g id="xtick_5">
     <g id="line2d_5">
      <g>
       <use xlink:href="#m01d8ce47cd" x="728.431818" y="246.04" style="fill: #585759; stroke: #585759; stroke-width: 0.8"/>
      </g>
     </g>
     <g id="text_5">
      <!-- 800 -->
      <g style="fill: #585759" transform="translate(718.888068 260.638438)scale(0.1 -0.1)">
       <defs>
        <path id="DejaVuSans-38" d="M 2034 2216 
Q 1584 2216 1326 1975 
Q 1069 1734 1069 1313 
Q 1069 891 1326 650 
Q 1584 409 2034 409 
Q 2484 409 2743 651 
Q 3003 894 3003 1313 
Q 3003 1734 2745 1975 
Q 2488 2216 2034 2216 
z
M 1403 2484 
Q 997 2584 770 2862 
Q 544 3141 544 3541 
Q 544 4100 942 4425 
Q 1341 4750 2034 4750 
Q 2731 4750 3128 4425 
Q 3525 4100 3525 3541 
Q 3525 3141 3298 2862 
Q 3072 2584 2669 2484 
Q 3125 2378 3379 2068 
Q 3634 1759 3634 1313 
Q 3634 634 3220 271 
Q 2806 -91 2034 -91 
Q 1263 -91 848 271 
Q 434 634 434 1313 
Q 434 1759 690 2068 
Q 947 2378 1403 2484 
z
M 1172 3481 
Q 1172 3119 1398 2916 
Q 1625 2713 2034 2713 
Q 2441 2713 2670 2916 
Q 2900 3119 2900 3481 
Q 2900 3844 2670 4047 
Q 2441 4250 2034 4250 
Q 1625 4250 1398 4047 
Q 1172 3844 1172 3481 
z
" transform="scale(0.015625)"/>
       </defs>
       <use xlink:href="#DejaVuSans-38"/>
       <use xlink:href="#DejaVuSans-30" x="63.623047"/>
       <use xlink:href="#DejaVuSans-30" x="127.246094"/>
      </g>
     </g>
    </g>
    <g id="xtick_6">
     <g id="line2d_6">
      <g>
       <use xlink:href="#m01d8ce47cd" x="885.846364" y="246.04" style="fill: #585759; stroke: #585759; stroke-width: 0.8"/>
      </g>
     </g>
     <g id="text_6">
      <!-- 1000 -->
      <g style="fill: #585759" transform="translate(873.121364 260.638438)scale(0.1 -0.1)">
       <defs>
        <path id="DejaVuSans-31" d="M 794 531 
L 1825 531 
L 1825 4091 
L 703 3866 
L 703 4441 
L 1819 4666 
L 2450 4666 
L 2450 531 
L 3481 531 
L 3481 0 
L 794 0 
L 794 531 
z
" transform="scale(0.015625)"/>
       </defs>
       <use xlink:href="#DejaVuSans-31"/>
       <use xlink:href="#DejaVuSans-30" x="63.623047"/>
       <use xlink:href="#DejaVuSans-30" x="127.246094"/>
       <use xlink:href="#DejaVuSans-30" x="190.869141"/>
      </g>
     </g>
    </g>
    <g id="text_7">
     <!-- Time [ms] -->
     <g style="fill: #585759" transform="translate(467.110781 274.316562)scale(0.1 -0.1)">
      <defs>
       <path id="DejaVuSans-54" d="M -19 4666 
L 3928 4666 
L 3928 4134 
L 2272 4134 
L 2272 0 
L 1638 0 
L 1638 4134 
L -19 4134 
L -19 4666 
z
" transform="scale(0.015625)"/>
       <path id="DejaVuSans-69" d="M 603 3500 
L 1178 3500 
L 1178 0 
L 603 0 
L 603 3500 
z
M 603 4863 
L 1178 4863 
L 1178 4134 
L 603 4134 
L 603 4863 
z
" transform="scale(0.015625)"/>
       <path id="DejaVuSans-6d" d="M 3328 2828 
Q 3544 3216 3844 3400 
Q 4144 3584 4550 3584 
Q 5097 3584 5394 3201 
Q 5691 2819 5691 2113 
L 5691 0 
L 5113 0 
L 5113 2094 
Q 5113 2597 4934 2840 
Q 4756 3084 4391 3084 
Q 3944 3084 3684 2787 
Q 3425 2491 3425 1978 
L 3425 0 
L 2847 0 
L 2847 2094 
Q 2847 2600 2669 2842 
Q 2491 3084 2119 3084 
Q 1678 3084 1418 2786 
Q 1159 2488 1159 1978 
L 1159 0 
L 581 0 
L 581 3500 
L 1159 3500 
L 1159 2956 
Q 1356 3278 1631 3431 
Q 1906 3584 2284 3584 
Q 2666 3584 2933 3390 
Q 3200 3197 3328 2828 
z
" transform="scale(0.015625)"/>
       <path id="DejaVuSans-65" d="M 3597 1894 
L 3597 1613 
L 953 1613 
Q 991 1019 1311 708 
Q 1631 397 2203 397 
Q 2534 397 2845 478 
Q 3156 559 3463 722 
L 3463 178 
Q 3153 47 2828 -22 
Q 2503 -91 2169 -91 
Q 1331 -91 842 396 
Q 353 884 353 1716 
Q 353 2575 817 3079 
Q 1281 3584 2069 3584 
Q 2775 3584 3186 3129 
Q 3597 2675 3597 1894 
z
M 3022 2063 
Q 3016 2534 2758 2815 
Q 2500 3097 2075 3097 
Q 1594 3097 1305 2825 
Q 1016 2553 972 2059 
L 3022 2063 
z
" transform="scale(0.015625)"/>
       <path id="DejaVuSans-20" transform="scale(0.015625)"/>
       <path id="DejaVuSans-5b" d="M 550 4863 
L 1875 4863 
L 1875 4416 
L 1125 4416 
L 1125 -397 
L 1875 -397 
L 1875 -844 
L 550 -844 
L 550 4863 
z
" transform="scale(0.015625)"/>
       <path id="DejaVuSans-73" d="M 2834 3397 
L 2834 2853 
Q 2591 2978 2328 3040 
Q 2066 3103 1784 3103 
Q 1356 3103 1142 2972 
Q 928 2841 928 2578 
Q 928 2378 1081 2264 
Q 1234 2150 1697 2047 
L 1894 2003 
Q 2506 1872 2764 1633 
Q 3022 1394 3022 966 
Q 3022 478 2636 193 
Q 2250 -91 1575 -91 
Q 1294 -91 989 -36 
Q 684 19 347 128 
L 347 722 
Q 666 556 975 473 
Q 1284 391 1588 391 
Q 1994 391 2212 530 
Q 2431 669 2431 922 
Q 2431 1156 2273 1281 
Q 2116 1406 1581 1522 
L 1381 1569 
Q 847 1681 609 1914 
Q 372 2147 372 2553 
Q 372 3047 722 3315 
Q 1072 3584 1716 3584 
Q 2034 3584 2315 3537 
Q 2597 3491 2834 3397 
z
" transform="scale(0.015625)"/>
       <path id="DejaVuSans-5d" d="M 1947 4863 
L 1947 -844 
L 622 -844 
L 622 -397 
L 1369 -397 
L 1369 4416 
L 622 4416 
L 622 4863 
L 1947 4863 
z
" transform="scale(0.015625)"/>
      </defs>
      <use xlink:href="#DejaVuSans-54"/>
      <use xlink:href="#DejaVuSans-69" x="57.958984"/>
      <use xlink:href="#DejaVuSans-6d" x="85.742188"/>
      <use xlink:href="#DejaVuSans-65" x="183.154297"/>
      <use xlink:href="#DejaVuSans-20" x="244.677734"/>
      <use xlink:href="#DejaVuSans-5b" x="276.464844"/>
      <use xlink:href="#DejaVuSans-6d" x="315.478516"/>
      <use xlink:href="#DejaVuSans-73" x="412.890625"/>
      <use xlink:href="#DejaVuSans-5d" x="464.990234"/>
     </g>
    </g>
   </g>
   <g id="matplotlib.axis_2">
    <g id="ytick_1">
     <g id="line2d_7">
      <defs>
       <path id="ma468bf3984" d="M 0 0 
L -3.5 0 
" style="stroke: #585759; stroke-width: 0.8"/>
      </defs>
      <g>
       <use xlink:href="#ma468bf3984" x="59.42" y="246.04" style="fill: #585759; stroke: #585759; stroke-width: 0.8"/>
      </g>
     </g>
     <g id="text_8">
      <!-- −100 -->
      <g style="fill: #585759" transform="translate(24.952813 249.839219)scale(0.1 -0.1)">
       <defs>
        <path id="DejaVuSans-2212" d="M 678 2272 
L 4684 2272 
L 4684 1741 
L 678 1741 
L 678 2272 
z
" transform="scale(0.015625)"/>
       </defs>
       <use xlink:href="#DejaVuSans-2212"/>
       <use xlink:href="#DejaVuSans-31" x="83.789062"/>
       <use xlink:href="#DejaVuSans-30" x="147.412109"/>
       <use xlink:href="#DejaVuSans-30" x="211.035156"/>
      </g>
     </g>
    </g>
    <g id="ytick_2">
     <g id="line2d_8">
      <g>
       <use xlink:href="#ma468bf3984" x="59.42" y="217.13" style="fill: #585759; stroke: #585759; stroke-width: 0.8"/>
      </g>
     </g>
     <g id="text_9">
      <!-- −75 -->
      <g style="fill: #585759" transform="translate(31.315313 220.929219)scale(0.1 -0.1)">
       <defs>
        <path id="DejaVuSans-37" d="M 525 4666 
L 3525 4666 
L 3525 4397 
L 1831 0 
L 1172 0 
L 2766 4134 
L 525 4134 
L 525 4666 
z
" transform="scale(0.015625)"/>
        <path id="DejaVuSans-35" d="M 691 4666 
L 3169 4666 
L 3169 4134 
L 1269 4134 
L 1269 2991 
Q 1406 3038 1543 3061 
Q 1681 3084 1819 3084 
Q 2600 3084 3056 2656 
Q 3513 2228 3513 1497 
Q 3513 744 3044 326 
Q 2575 -91 1722 -91 
Q 1428 -91 1123 -41 
Q 819 9 494 109 
L 494 744 
Q 775 591 1075 516 
Q 1375 441 1709 441 
Q 2250 441 2565 725 
Q 2881 1009 2881 1497 
Q 2881 1984 2565 2268 
Q 2250 2553 1709 2553 
Q 1456 2553 1204 2497 
Q 953 2441 691 2322 
L 691 4666 
z
" transform="scale(0.015625)"/>
       </defs>
       <use xlink:href="#DejaVuSans-2212"/>
       <use xlink:href="#DejaVuSans-37" x="83.789062"/>
       <use xlink:href="#DejaVuSans-35" x="147.412109"/>
      </g>
     </g>
    </g>
    <g id="ytick_3">
     <g id="line2d_9">
      <g>
       <use xlink:href="#ma468bf3984" x="59.42" y="188.22" style="fill: #585759; stroke: #585759; stroke-width: 0.8"/>
      </g>
     </g>
     <g id="text_10">
      <!-- −50 -->
      <g style="fill: #585759" transform="translate(31.315313 192.019219)scale(0.1 -0.1)">
       <use xlink:href="#DejaVuSans-2212"/>
       <use xlink:href="#DejaVuSans-35" x="83.789062"/>
       <use xlink:href="#DejaVuSans-30" x="147.412109"/>
      </g>
     </g>
    </g>
    <g id="ytick_4">
     <g id="line2d_10">
      <g>
       <use xlink:href="#ma468bf3984" x="59.42" y="159.31" style="fill: #585759; stroke: #585759; stroke-width: 0.8"/>
      </g>
     </g>
     <g id="text_11">
      <!-- −25 -->
      <g style="fill: #585759" transform="translate(31.315313 163.109219)scale(0.1 -0.1)">
       <use xlink:href="#DejaVuSans-2212"/>
       <use xlink:href="#DejaVuSans-32" x="83.789062"/>
       <use xlink:href="#DejaVuSans-35" x="147.412109"/>
      </g>
     </g>
    </g>
    <g id="ytick_5">
     <g id="line2d_11">
      <g>
       <use xlink:href="#ma468bf3984" x="59.42" y="130.4" style="fill: #585759; stroke: #585759; stroke-width: 0.8"/>
      </g>
     </g>
     <g id="text_12">
      <!-- 0 -->
      <g style="fill: #585759" transform="translate(46.0575 134.199219)scale(0.1 -0.1)">
       <use xlink:href="#DejaVuSans-30"/>
      </g>
     </g>
    </g>
    <g id="ytick_6">
     <g id="line2d_12">
      <g>
       <use xlink:href="#ma468bf3984" x="59.42" y="101.49" style="fill: #585759; stroke: #585759; stroke-width: 0.8"/>
      </g>
     </g>
     <g id="text_13">
      <!-- 25 -->
      <g style="fill: #585759" transform="translate(39.695 105.289219)scale(0.1 -0.1)">
       <use xlink:href="#DejaVuSans-32"/>
       <use xlink:href="#DejaVuSans-35" x="63.623047"/>
      </g>
     </g>
    </g>
    <g id="ytick_7">
     <g id="line2d_13">
      <g>
       <use xlink:href="#ma468bf3984" x="59.42" y="72.58" style="fill: #585759; stroke: #585759; stroke-width: 0.8"/>
      </g>
     </g>
     <g id="text_14">
      <!-- 50 -->
      <g style="fill: #585759" transform="translate(39.695 76.379219)scale(0.1 -0.1)">
       <use xlink:href="#DejaVuSans-35"/>
       <use xlink:href="#DejaVuSans-30" x="63.623047"/>
      </g>
     </g>
    </g>
    <g id="ytick_8">
     <g id="line2d_14">
      <g>
       <use xlink:href="#ma468bf3984" x="59.42" y="43.67" style="fill: #585759; stroke: #585759; stroke-width: 0.8"/>
      </g>
     </g>
     <g id="text_15">
      <!-- 75 -->
      <g style="fill: #585759" transform="translate(39.695 47.469219)scale(0.1 -0.1)">
       <use xlink:href="#DejaVuSans-37"/>
       <use xlink:href="#DejaVuSans-35" x="63.623047"/>
      </g>
     </g>
    </g>
    <g id="ytick_9">
     <g id="line2d_15">
      <g>
       <use xlink:href="#ma468bf3984" x="59.42" y="14.76" style="fill: #585759; stroke: #585759; stroke-width: 0.8"/>
      </g>
     </g>
     <g id="text_16">
      <!-- 100 -->
      <g style="fill: #585759" transform="translate(33.3325 18.559219)scale(0.1 -0.1)">
       <use xlink:href="#DejaVuSans-31"/>
       <use xlink:href="#DejaVuSans-30" x="63.623047"/>
       <use xlink:href="#DejaVuSans-30" x="127.246094"/>
      </g>
     </g>
    </g>
    <g id="text_17">
     <!-- Angle [degree] -->
     <g style="fill: #585759" transform="translate(18.873125 167.640625)rotate(-90)scale(0.1 -0.1)">
      <defs>
       <path id="DejaVuSans-41" d="M 2188 4044 
L 1331 1722 
L 3047 1722 
L 2188 4044 
z
M 1831 4666 
L 2547 4666 
L 4325 0 
L 3669 0 
L 3244 1197 
L 1141 1197 
L 716 0 
L 50 0 
L 1831 4666 
z
" transform="scale(0.015625)"/>
       <path id="DejaVuSans-6e" d="M 3513 2113 
L 3513 0 
L 2938 0 
L 2938 2094 
Q 2938 2591 2744 2837 
Q 2550 3084 2163 3084 
Q 1697 3084 1428 2787 
Q 1159 2491 1159 1978 
L 1159 0 
L 581 0 
L 581 3500 
L 1159 3500 
L 1159 2956 
Q 1366 3272 1645 3428 
Q 1925 3584 2291 3584 
Q 2894 3584 3203 3211 
Q 3513 2838 3513 2113 
z
" transform="scale(0.015625)"/>
       <path id="DejaVuSans-67" d="M 2906 1791 
Q 2906 2416 2648 2759 
Q 2391 3103 1925 3103 
Q 1463 3103 1205 2759 
Q 947 2416 947 1791 
Q 947 1169 1205 825 
Q 1463 481 1925 481 
Q 2391 481 2648 825 
Q 2906 1169 2906 1791 
z
M 3481 434 
Q 3481 -459 3084 -895 
Q 2688 -1331 1869 -1331 
Q 1566 -1331 1297 -1286 
Q 1028 -1241 775 -1147 
L 775 -588 
Q 1028 -725 1275 -790 
Q 1522 -856 1778 -856 
Q 2344 -856 2625 -561 
Q 2906 -266 2906 331 
L 2906 616 
Q 2728 306 2450 153 
Q 2172 0 1784 0 
Q 1141 0 747 490 
Q 353 981 353 1791 
Q 353 2603 747 3093 
Q 1141 3584 1784 3584 
Q 2172 3584 2450 3431 
Q 2728 3278 2906 2969 
L 2906 3500 
L 3481 3500 
L 3481 434 
z
" transform="scale(0.015625)"/>
       <path id="DejaVuSans-6c" d="M 603 4863 
L 1178 4863 
L 1178 0 
L 603 0 
L 603 4863 
z
" transform="scale(0.015625)"/>
       <path id="DejaVuSans-64" d="M 2906 2969 
L 2906 4863 
L 3481 4863 
L 3481 0 
L 2906 0 
L 2906 525 
Q 2725 213 2448 61 
Q 2172 -91 1784 -91 
Q 1150 -91 751 415 
Q 353 922 353 1747 
Q 353 2572 751 3078 
Q 1150 3584 1784 3584 
Q 2172 3584 2448 3432 
Q 2725 3281 2906 2969 
z
M 947 1747 
Q 947 1113 1208 752 
Q 1469 391 1925 391 
Q 2381 391 2643 752 
Q 2906 1113 2906 1747 
Q 2906 2381 2643 2742 
Q 2381 3103 1925 3103 
Q 1469 3103 1208 2742 
Q 947 2381 947 1747 
z
" transform="scale(0.015625)"/>
       <path id="DejaVuSans-72" d="M 2631 2963 
Q 2534 3019 2420 3045 
Q 2306 3072 2169 3072 
Q 1681 3072 1420 2755 
Q 1159 2438 1159 1844 
L 1159 0 
L 581 0 
L 581 3500 
L 1159 3500 
L 1159 2956 
Q 1341 3275 1631 3429 
Q 1922 3584 2338 3584 
Q 2397 3584 2469 3576 
Q 2541 3569 2628 3553 
L 2631 2963 
z
" transform="scale(0.015625)"/>
      </defs>
      <use xlink:href="#DejaVuSans-41"/>
      <use xlink:href="#DejaVuSans-6e" x="68.408203"/>
      <use xlink:href="#DejaVuSans-67" x="131.787109"/>
      <use xlink:href="#DejaVuSans-6c" x="195.263672"/>
      <use xlink:href="#DejaVuSans-65" x="223.046875"/>
      <use xlink:href="#DejaVuSans-20" x="284.570312"/>
      <use xlink:href="#DejaVuSans-5b" x="316.357422"/>
      <use xlink:href="#DejaVuSans-64" x="355.371094"/>
      <use xlink:href="#DejaVuSans-65" x="418.847656"/>
      <use xlink:href="#DejaVuSans-67" x="480.371094"/>
      <use xlink:href="#DejaVuSans-72" x="543.847656"/>
      <use xlink:href="#DejaVuSans-65" x="582.710938"/>
      <use xlink:href="#DejaVuSans-65" x="644.234375"/>
      <use xlink:href="#DejaVuSans-5d" x="705.757812"/>
     </g>
    </g>
   </g>
   <g id="line2d_16">
    <path d="M 98.773636 130.4 
L 111.359608 130.363234 
L 185.077442 130.382251 
L 186.875438 130.076931 
L 189.572432 129.246441 
L 191.819927 128.351756 
L 195.865418 126.429768 
L 208.900888 120.15076 
L 212.946379 118.601863 
L 216.092872 117.596195 
L 229.128343 113.878726 
L 236.769826 111.636043 
L 240.365817 110.80179 
L 244.411308 110.103653 
L 248.456799 109.637864 
L 251.603292 109.486272 
L 259.694274 109.432988 
L 263.739765 109.286473 
L 266.886258 109.126959 
L 271.830747 109.180696 
L 276.325736 109.453344 
L 280.820726 109.959261 
L 284.866217 110.63846 
L 298.351187 113.402038 
L 304.194674 114.837069 
L 308.689664 116.158156 
L 313.184653 117.70472 
L 316.331146 118.771668 
L 317.679643 119.00953 
L 319.02814 119.017513 
L 320.826136 118.750072 
L 323.073631 118.122819 
L 326.220124 116.958951 
L 332.962609 114.143949 
L 337.457599 112.368333 
L 341.50309 111.021729 
L 345.548581 109.929584 
L 348.695073 109.286353 
L 352.291065 108.831485 
L 370.720524 106.824458 
L 375.215514 106.635608 
L 379.710504 106.67112 
L 386.003489 106.817994 
L 388.700483 106.483715 
L 392.296475 105.78323 
L 405.781445 102.96742 
L 409.826936 102.441438 
L 413.422928 102.171416 
L 416.119922 102.180676 
L 418.816916 102.459005 
L 421.513909 103.00148 
L 425.109901 104.014889 
L 430.05439 105.395664 
L 433.200883 106.052429 
L 435.897877 106.38778 
L 438.594871 106.482552 
L 442.640362 106.50037 
L 445.337356 107.110755 
L 448.03435 107.917852 
L 450.731344 108.687178 
L 452.079841 108.869706 
L 453.877837 108.848602 
L 456.125331 108.552092 
L 459.271824 107.855908 
L 464.665812 106.37228 
L 472.307295 104.282143 
L 476.802285 103.319949 
L 480.398277 102.764632 
L 487.140762 102.010892 
L 489.837756 101.312069 
L 494.782244 99.733404 
L 503.322725 97.019689 
L 507.368216 95.980957 
L 511.413707 95.187405 
L 514.110701 94.83121 
L 519.504689 94.347643 
L 522.201683 93.76254 
L 525.797675 92.713799 
L 541.08064 87.9778 
L 545.126131 87.141024 
L 547.373626 86.843296 
L 553.217113 86.357699 
L 557.262604 85.620196 
L 572.545569 82.464416 
L 576.59106 82.00161 
L 579.737553 81.826627 
L 583.783044 81.72975 
L 585.58104 81.367529 
L 587.379036 80.764084 
L 589.626531 79.773015 
L 593.222523 77.901601 
L 605.808494 71.145575 
L 609.853985 69.366897 
L 613.000478 68.212427 
L 614.798474 67.782866 
L 616.59647 67.577369 
L 621.990458 67.196665 
L 623.788454 66.812549 
L 625.58645 66.237194 
L 629.182442 64.946046 
L 631.429937 64.522399 
L 682.672821 64.623982 
L 686.718312 64.862685 
L 694.359795 64.858115 
L 701.551779 65.094791 
L 706.046769 65.458313 
L 709.642761 65.956235 
L 712.339754 66.502837 
L 715.935746 67.347469 
L 717.284243 67.255728 
L 718.63274 66.907982 
L 720.430736 66.136029 
L 722.678231 64.84665 
L 723.12773 64.559361 
L 724.925726 64.522522 
L 749.198671 64.617031 
L 751.446166 64.63222 
L 755.941156 64.519515 
L 780.663601 64.610605 
L 782.461596 64.631245 
L 785.15859 64.522447 
L 815.275023 64.600706 
L 817.522518 64.875705 
L 819.770012 65.357248 
L 822.916505 66.290568 
L 826.961996 67.472624 
L 829.209491 67.923795 
L 831.007487 68.100293 
L 832.805483 68.088199 
L 835.052978 67.824074 
L 837.300473 67.287786 
L 838.199471 67.12381 
L 839.997467 67.18972 
L 842.694461 67.542289 
L 845.840954 68.188805 
L 848.987447 69.097249 
L 851.684441 70.094102 
L 854.381435 71.30097 
L 857.078428 72.725397 
L 859.775422 74.373879 
L 862.472416 76.251435 
L 865.618909 78.735652 
L 868.765402 81.537637 
L 871.911895 84.654882 
L 875.058388 88.08045 
L 878.65438 92.358011 
L 882.250372 96.998927 
L 885.846364 101.971884 
L 885.846364 101.971884 
" clip-path="url(#p67a9247b55)" style="fill: none; stroke: #19d3c5; stroke-width: 3; stroke-linecap: square"/>
   </g>
   <g id="line2d_17">
    <path d="M 98.773636 130.4 
L 187.774436 130.297675 
L 191.819927 129.950277 
L 197.663414 129.02375 
L 203.057401 127.930645 
L 205.304896 127.343814 
L 209.350387 126.041707 
L 214.744375 123.694974 
L 222.835357 119.925743 
L 230.027341 117.044366 
L 235.870828 114.70069 
L 242.613312 111.628529 
L 245.310306 110.248869 
L 249.805296 107.570223 
L 259.244775 101.240845 
L 263.739765 98.668141 
L 269.133753 95.974137 
L 272.729745 94.396605 
L 276.775235 92.919691 
L 281.270225 91.72743 
L 286.664213 90.763378 
L 290.709704 90.261704 
L 294.755195 90.014606 
L 299.250185 90.162511 
L 309.139163 91.065307 
L 313.184653 91.130103 
L 325.321126 90.922425 
L 332.51311 91.494296 
L 343.750585 92.524328 
L 351.841566 92.920134 
L 360.382047 93.039191 
L 366.675033 92.983688 
L 372.968019 92.647858 
L 380.160003 92.017462 
L 391.397477 91.080778 
L 397.240964 90.773624 
L 408.478439 90.220958 
L 420.165412 89.591909 
L 429.604891 89.434787 
L 449.382847 89.412913 
L 454.327336 89.64497 
L 458.822325 89.998224 
L 464.216313 90.55645 
L 472.307295 91.287275 
L 476.802285 91.513461 
L 483.994269 91.727907 
L 504.671222 92.088167 
L 528.04517 92.089826 
L 536.58565 92.061514 
L 547.823125 91.576795 
L 579.737553 90.128924 
L 588.278034 90.021045 
L 599.965008 89.843949 
L 608.055989 89.387199 
L 634.126931 87.582385 
L 639.970417 87.406103 
L 648.510898 87.413926 
L 659.748373 87.808373 
L 666.940357 88.020516 
L 674.581839 87.928427 
L 681.324324 87.644312 
L 691.662801 86.995388 
L 703.799274 86.269685 
L 710.991257 86.03481 
L 719.531738 86.17497 
L 727.62272 86.577723 
L 733.466207 86.791216 
L 741.557189 86.67318 
L 749.198671 86.347455 
L 768.077629 85.502738 
L 774.820114 85.424753 
L 782.911095 85.588921 
L 799.542558 86.140839 
L 803.13855 86.064372 
L 809.881035 85.747482 
L 821.118509 84.961908 
L 831.007487 84.27326 
L 838.64897 83.931223 
L 843.593459 83.848512 
L 885.846364 83.848512 
L 885.846364 83.848512 
" clip-path="url(#p67a9247b55)" style="fill: none; stroke: #19d3c5; stroke-opacity: 0.3; stroke-width: 6; stroke-linecap: square"/>
   </g>
   <g id="line2d_18">
    <path d="M 98.773636 130.4 
L 127.991071 130.402625 
L 419.266415 130.296673 
L 423.311905 129.98045 
L 429.604891 129.474801 
L 433.200883 129.440162 
L 435.897877 129.61469 
L 438.594871 129.991419 
L 441.291865 130.400009 
L 546.924127 130.398561 
L 567.60108 130.402044 
L 616.59647 130.305444 
L 622.889456 130.020016 
L 625.136951 130.155942 
L 628.283444 130.402862 
L 748.749172 130.387868 
L 759.986647 130.402977 
L 817.522518 130.303057 
L 821.118509 129.983539 
L 827.860994 129.300925 
L 830.557988 129.288989 
L 832.805483 129.48961 
L 835.052978 129.89634 
L 837.300473 130.400004 
L 885.846364 130.402231 
L 885.846364 130.402231 
" clip-path="url(#p67a9247b55)" style="fill: none; stroke: #fa525b; stroke-width: 3; stroke-linecap: square"/>
   </g>
   <g id="line2d_19">
    <path d="M 98.773636 130.4 
L 190.920929 130.507025 
L 203.057401 131.241426 
L 210.249385 131.560785 
L 221.037361 132.147612 
L 237.668824 133.172242 
L 243.51231 133.446898 
L 245.759805 133.624616 
L 249.805296 134.159804 
L 258.795276 136.003332 
L 265.088262 136.679282 
L 276.775235 137.569772 
L 281.719724 137.538051 
L 287.113712 137.175158 
L 292.058201 136.629077 
L 296.103692 136.019058 
L 301.49768 135.001072 
L 312.285655 132.916986 
L 318.129142 132.214641 
L 323.972629 131.796246 
L 344.649583 130.695607 
L 355.437558 130.192435 
L 365.776035 129.90604 
L 376.564011 129.941703 
L 390.498479 130.026795 
L 402.185453 129.833849 
L 422.862406 129.571039 
L 435.897877 129.557939 
L 485.342766 130.045277 
L 493.883246 130.454562 
L 515.459198 131.532549 
L 534.338155 132.070406 
L 571.646571 132.894953 
L 581.08605 132.856993 
L 617.495468 132.290985 
L 644.465407 132.318482 
L 664.243363 131.639731 
L 677.278833 131.267935 
L 684.920316 131.273486 
L 697.506288 131.617909 
L 708.294264 131.815158 
L 717.284243 131.70795 
L 740.658191 131.287381 
L 748.299673 131.398519 
L 758.63815 131.815223 
L 768.976627 132.193989 
L 777.517108 132.223919 
L 787.855584 132.065248 
L 804.936546 131.842725 
L 816.174021 131.989282 
L 837.749972 132.41257 
L 848.537948 132.368149 
L 885.846364 132.368149 
L 885.846364 132.368149 
" clip-path="url(#p67a9247b55)" style="fill: none; stroke: #fa525b; stroke-opacity: 0.3; stroke-width: 6; stroke-linecap: square"/>
   </g>
   <g id="patch_2">
    <path d="M 59.42 246.04 
L 59.42 14.76 
" style="fill: none; stroke: #585759; stroke-width: 0.8; stroke-linejoin: miter; stroke-linecap: square"/>
   </g>
   <g id="patch_3">
    <path d="M 59.42 246.04 
L 925.2 246.04 
" style="fill: none; stroke: #585759; stroke-width: 0.8; stroke-linejoin: miter; stroke-linecap: square"/>
   </g>
   <g id="legend_1">
    <g id="patch_4">
     <path d="M 66.42 81.4725 
L 198.166875 81.4725 
Q 200.166875 81.4725 200.166875 79.4725 
L 200.166875 21.76 
Q 200.166875 19.76 198.166875 19.76 
L 66.42 19.76 
Q 64.42 19.76 64.42 21.76 
L 64.42 79.4725 
Q 64.42 81.4725 66.42 81.4725 
z
" style="fill: #ffffff; opacity: 0.8; stroke: #cccccc; stroke-linejoin: miter"/>
    </g>
    <g id="line2d_20">
     <path d="M 68.42 27.858437 
L 78.42 27.858437 
L 88.42 27.858437 
" style="fill: none; stroke: #19d3c5; stroke-width: 3; stroke-linecap: square"/>
    </g>
    <g id="text_18">
     <!-- Prediction - Knee -->
     <g transform="translate(96.42 31.358437)scale(0.1 -0.1)">
      <defs>
       <path id="DejaVuSans-50" d="M 1259 4147 
L 1259 2394 
L 2053 2394 
Q 2494 2394 2734 2622 
Q 2975 2850 2975 3272 
Q 2975 3691 2734 3919 
Q 2494 4147 2053 4147 
L 1259 4147 
z
M 628 4666 
L 2053 4666 
Q 2838 4666 3239 4311 
Q 3641 3956 3641 3272 
Q 3641 2581 3239 2228 
Q 2838 1875 2053 1875 
L 1259 1875 
L 1259 0 
L 628 0 
L 628 4666 
z
" transform="scale(0.015625)"/>
       <path id="DejaVuSans-63" d="M 3122 3366 
L 3122 2828 
Q 2878 2963 2633 3030 
Q 2388 3097 2138 3097 
Q 1578 3097 1268 2742 
Q 959 2388 959 1747 
Q 959 1106 1268 751 
Q 1578 397 2138 397 
Q 2388 397 2633 464 
Q 2878 531 3122 666 
L 3122 134 
Q 2881 22 2623 -34 
Q 2366 -91 2075 -91 
Q 1284 -91 818 406 
Q 353 903 353 1747 
Q 353 2603 823 3093 
Q 1294 3584 2113 3584 
Q 2378 3584 2631 3529 
Q 2884 3475 3122 3366 
z
" transform="scale(0.015625)"/>
       <path id="DejaVuSans-74" d="M 1172 4494 
L 1172 3500 
L 2356 3500 
L 2356 3053 
L 1172 3053 
L 1172 1153 
Q 1172 725 1289 603 
Q 1406 481 1766 481 
L 2356 481 
L 2356 0 
L 1766 0 
Q 1100 0 847 248 
Q 594 497 594 1153 
L 594 3053 
L 172 3053 
L 172 3500 
L 594 3500 
L 594 4494 
L 1172 4494 
z
" transform="scale(0.015625)"/>
       <path id="DejaVuSans-6f" d="M 1959 3097 
Q 1497 3097 1228 2736 
Q 959 2375 959 1747 
Q 959 1119 1226 758 
Q 1494 397 1959 397 
Q 2419 397 2687 759 
Q 2956 1122 2956 1747 
Q 2956 2369 2687 2733 
Q 2419 3097 1959 3097 
z
M 1959 3584 
Q 2709 3584 3137 3096 
Q 3566 2609 3566 1747 
Q 3566 888 3137 398 
Q 2709 -91 1959 -91 
Q 1206 -91 779 398 
Q 353 888 353 1747 
Q 353 2609 779 3096 
Q 1206 3584 1959 3584 
z
" transform="scale(0.015625)"/>
       <path id="DejaVuSans-2d" d="M 313 2009 
L 1997 2009 
L 1997 1497 
L 313 1497 
L 313 2009 
z
" transform="scale(0.015625)"/>
       <path id="DejaVuSans-4b" d="M 628 4666 
L 1259 4666 
L 1259 2694 
L 3353 4666 
L 4166 4666 
L 1850 2491 
L 4331 0 
L 3500 0 
L 1259 2247 
L 1259 0 
L 628 0 
L 628 4666 
z
" transform="scale(0.015625)"/>
      </defs>
      <use xlink:href="#DejaVuSans-50"/>
      <use xlink:href="#DejaVuSans-72" x="58.552734"/>
      <use xlink:href="#DejaVuSans-65" x="97.416016"/>
      <use xlink:href="#DejaVuSans-64" x="158.939453"/>
      <use xlink:href="#DejaVuSans-69" x="222.416016"/>
      <use xlink:href="#DejaVuSans-63" x="250.199219"/>
      <use xlink:href="#DejaVuSans-74" x="305.179688"/>
      <use xlink:href="#DejaVuSans-69" x="344.388672"/>
      <use xlink:href="#DejaVuSans-6f" x="372.171875"/>
      <use xlink:href="#DejaVuSans-6e" x="433.353516"/>
      <use xlink:href="#DejaVuSans-20" x="496.732422"/>
      <use xlink:href="#DejaVuSans-2d" x="528.519531"/>
      <use xlink:href="#DejaVuSans-20" x="564.603516"/>
      <use xlink:href="#DejaVuSans-4b" x="596.390625"/>
      <use xlink:href="#DejaVuSans-6e" x="661.966797"/>
      <use xlink:href="#DejaVuSans-65" x="725.345703"/>
      <use xlink:href="#DejaVuSans-65" x="786.869141"/>
     </g>
    </g>
    <g id="line2d_21">
     <path d="M 68.42 42.536562 
L 78.42 42.536562 
L 88.42 42.536562 
" style="fill: none; stroke: #19d3c5; stroke-opacity: 0.3; stroke-width: 6; stroke-linecap: square"/>
    </g>
    <g id="text_19">
     <!-- Ground truth - Knee -->
     <g transform="translate(96.42 46.036562)scale(0.1 -0.1)">
      <defs>
       <path id="DejaVuSans-47" d="M 3809 666 
L 3809 1919 
L 2778 1919 
L 2778 2438 
L 4434 2438 
L 4434 434 
Q 4069 175 3628 42 
Q 3188 -91 2688 -91 
Q 1594 -91 976 548 
Q 359 1188 359 2328 
Q 359 3472 976 4111 
Q 1594 4750 2688 4750 
Q 3144 4750 3555 4637 
Q 3966 4525 4313 4306 
L 4313 3634 
Q 3963 3931 3569 4081 
Q 3175 4231 2741 4231 
Q 1884 4231 1454 3753 
Q 1025 3275 1025 2328 
Q 1025 1384 1454 906 
Q 1884 428 2741 428 
Q 3075 428 3337 486 
Q 3600 544 3809 666 
z
" transform="scale(0.015625)"/>
       <path id="DejaVuSans-75" d="M 544 1381 
L 544 3500 
L 1119 3500 
L 1119 1403 
Q 1119 906 1312 657 
Q 1506 409 1894 409 
Q 2359 409 2629 706 
Q 2900 1003 2900 1516 
L 2900 3500 
L 3475 3500 
L 3475 0 
L 2900 0 
L 2900 538 
Q 2691 219 2414 64 
Q 2138 -91 1772 -91 
Q 1169 -91 856 284 
Q 544 659 544 1381 
z
M 1991 3584 
L 1991 3584 
z
" transform="scale(0.015625)"/>
       <path id="DejaVuSans-68" d="M 3513 2113 
L 3513 0 
L 2938 0 
L 2938 2094 
Q 2938 2591 2744 2837 
Q 2550 3084 2163 3084 
Q 1697 3084 1428 2787 
Q 1159 2491 1159 1978 
L 1159 0 
L 581 0 
L 581 4863 
L 1159 4863 
L 1159 2956 
Q 1366 3272 1645 3428 
Q 1925 3584 2291 3584 
Q 2894 3584 3203 3211 
Q 3513 2838 3513 2113 
z
" transform="scale(0.015625)"/>
      </defs>
      <use xlink:href="#DejaVuSans-47"/>
      <use xlink:href="#DejaVuSans-72" x="77.490234"/>
      <use xlink:href="#DejaVuSans-6f" x="116.353516"/>
      <use xlink:href="#DejaVuSans-75" x="177.535156"/>
      <use xlink:href="#DejaVuSans-6e" x="240.914062"/>
      <use xlink:href="#DejaVuSans-64" x="304.292969"/>
      <use xlink:href="#DejaVuSans-20" x="367.769531"/>
      <use xlink:href="#DejaVuSans-74" x="399.556641"/>
      <use xlink:href="#DejaVuSans-72" x="438.765625"/>
      <use xlink:href="#DejaVuSans-75" x="479.878906"/>
      <use xlink:href="#DejaVuSans-74" x="543.257812"/>
      <use xlink:href="#DejaVuSans-68" x="582.466797"/>
      <use xlink:href="#DejaVuSans-20" x="645.845703"/>
      <use xlink:href="#DejaVuSans-2d" x="677.632812"/>
      <use xlink:href="#DejaVuSans-20" x="713.716797"/>
      <use xlink:href="#DejaVuSans-4b" x="745.503906"/>
      <use xlink:href="#DejaVuSans-6e" x="811.080078"/>
      <use xlink:href="#DejaVuSans-65" x="874.458984"/>
      <use xlink:href="#DejaVuSans-65" x="935.982422"/>
     </g>
    </g>
    <g id="line2d_22">
     <path d="M 68.42 57.214687 
L 78.42 57.214687 
L 88.42 57.214687 
" style="fill: none; stroke: #fa525b; stroke-width: 3; stroke-linecap: square"/>
    </g>
    <g id="text_20">
     <!-- Prediction - Hip -->
     <g transform="translate(96.42 60.714687)scale(0.1 -0.1)">
      <defs>
       <path id="DejaVuSans-48" d="M 628 4666 
L 1259 4666 
L 1259 2753 
L 3553 2753 
L 3553 4666 
L 4184 4666 
L 4184 0 
L 3553 0 
L 3553 2222 
L 1259 2222 
L 1259 0 
L 628 0 
L 628 4666 
z
" transform="scale(0.015625)"/>
       <path id="DejaVuSans-70" d="M 1159 525 
L 1159 -1331 
L 581 -1331 
L 581 3500 
L 1159 3500 
L 1159 2969 
Q 1341 3281 1617 3432 
Q 1894 3584 2278 3584 
Q 2916 3584 3314 3078 
Q 3713 2572 3713 1747 
Q 3713 922 3314 415 
Q 2916 -91 2278 -91 
Q 1894 -91 1617 61 
Q 1341 213 1159 525 
z
M 3116 1747 
Q 3116 2381 2855 2742 
Q 2594 3103 2138 3103 
Q 1681 3103 1420 2742 
Q 1159 2381 1159 1747 
Q 1159 1113 1420 752 
Q 1681 391 2138 391 
Q 2594 391 2855 752 
Q 3116 1113 3116 1747 
z
" transform="scale(0.015625)"/>
      </defs>
      <use xlink:href="#DejaVuSans-50"/>
      <use xlink:href="#DejaVuSans-72" x="58.552734"/>
      <use xlink:href="#DejaVuSans-65" x="97.416016"/>
      <use xlink:href="#DejaVuSans-64" x="158.939453"/>
      <use xlink:href="#DejaVuSans-69" x="222.416016"/>
      <use xlink:href="#DejaVuSans-63" x="250.199219"/>
      <use xlink:href="#DejaVuSans-74" x="305.179688"/>
      <use xlink:href="#DejaVuSans-69" x="344.388672"/>
      <use xlink:href="#DejaVuSans-6f" x="372.171875"/>
      <use xlink:href="#DejaVuSans-6e" x="433.353516"/>
      <use xlink:href="#DejaVuSans-20" x="496.732422"/>
      <use xlink:href="#DejaVuSans-2d" x="528.519531"/>
      <use xlink:href="#DejaVuSans-20" x="564.603516"/>
      <use xlink:href="#DejaVuSans-48" x="596.390625"/>
      <use xlink:href="#DejaVuSans-69" x="671.585938"/>
      <use xlink:href="#DejaVuSans-70" x="699.369141"/>
     </g>
    </g>
    <g id="line2d_23">
     <path d="M 68.42 71.892812 
L 78.42 71.892812 
L 88.42 71.892812 
" style="fill: none; stroke: #fa525b; stroke-opacity: 0.3; stroke-width: 6; stroke-linecap: square"/>
    </g>
    <g id="text_21">
     <!-- Ground truth - Hip -->
     <g transform="translate(96.42 75.392812)scale(0.1 -0.1)">
      <use xlink:href="#DejaVuSans-47"/>
      <use xlink:href="#DejaVuSans-72" x="77.490234"/>
      <use xlink:href="#DejaVuSans-6f" x="116.353516"/>
      <use xlink:href="#DejaVuSans-75" x="177.535156"/>
      <use xlink:href="#DejaVuSans-6e" x="240.914062"/>
      <use xlink:href="#DejaVuSans-64" x="304.292969"/>
      <use xlink:href="#DejaVuSans-20" x="367.769531"/>
      <use xlink:href="#DejaVuSans-74" x="399.556641"/>
      <use xlink:href="#DejaVuSans-72" x="438.765625"/>
      <use xlink:href="#DejaVuSans-75" x="479.878906"/>
      <use xlink:href="#DejaVuSans-74" x="543.257812"/>
      <use xlink:href="#DejaVuSans-68" x="582.466797"/>
      <use xlink:href="#DejaVuSans-20" x="645.845703"/>
      <use xlink:href="#DejaVuSans-2d" x="677.632812"/>
      <use xlink:href="#DejaVuSans-20" x="713.716797"/>
      <use xlink:href="#DejaVuSans-48" x="745.503906"/>
      <use xlink:href="#DejaVuSans-69" x="820.699219"/>
      <use xlink:href="#DejaVuSans-70" x="848.482422"/>
     </g>
    </g>
   </g>
  </g>
 </g>
 <defs>
  <clipPath id="p67a9247b55">
   <rect x="59.42" y="14.76" width="865.78" height="231.28"/>
  </clipPath>
 </defs>
</svg>
