<?xml version="1.0" encoding="utf-8" standalone="no"?>
<!DOCTYPE svg PUBLIC "-//W3C//DTD SVG 1.1//EN"
  "http://www.w3.org/Graphics/SVG/1.1/DTD/svg11.dtd">
<svg xmlns:xlink="http://www.w3.org/1999/xlink" width="936pt" height="180pt" viewBox="0 0 936 180" xmlns="http://www.w3.org/2000/svg" version="1.1">
 <metadata>
  <rdf:RDF xmlns:dc="http://purl.org/dc/elements/1.1/" xmlns:cc="http://creativecommons.org/ns#" xmlns:rdf="http://www.w3.org/1999/02/22-rdf-syntax-ns#">
   <cc:Work>
    <dc:type rdf:resource="http://purl.org/dc/dcmitype/StillImage"/>
    <dc:date>2023-01-14T11:57:58.659612</dc:date>
    <dc:format>image/svg+xml</dc:format>
    <dc:creator>
     <cc:Agent>
      <dc:title>Matplotlib v3.5.2, https://matplotlib.org/</dc:title>
     </cc:Agent>
    </dc:creator>
   </cc:Work>
  </rdf:RDF>
 </metadata>
 <defs>
  <style type="text/css">*{stroke-linejoin: round; stroke-linecap: butt}</style>
 </defs>
 <g id="figure_1">
  <g id="axes_1">
   <g id="patch_1">
    <path d="M 47.81 138.04 
L 123.412493 138.04 
L 123.412493 27.6 
L 47.81 27.6 
L 47.81 138.04 
z
" style="fill: none"/>
   </g>
   <g id="matplotlib.axis_1">
    <g id="xtick_1">
     <g id="line2d_1">
      <defs>
       <path id="mf11f30c295" d="M 0 0 
L 0 3.5 
" style="stroke: #585759; stroke-width: 0.8"/>
      </defs>
      <g>
       <use xlink:href="#mf11f30c295" x="51.246477" y="138.04" style="fill: #585759; stroke: #585759; stroke-width: 0.8"/>
      </g>
     </g>
     <g id="text_1">
      <!-- 0 -->
      <g style="fill: #585759" transform="translate(48.065227 152.638438)scale(0.1 -0.1)">
       <defs>
        <path id="DejaVuSans-30" d="M 2034 4250 
Q 1547 4250 1301 3770 
Q 1056 3291 1056 2328 
Q 1056 1369 1301 889 
Q 1547 409 2034 409 
Q 2525 409 2770 889 
Q 3016 1369 3016 2328 
Q 3016 3291 2770 3770 
Q 2525 4250 2034 4250 
z
M 2034 4750 
Q 2819 4750 3233 4129 
Q 3647 3509 3647 2328 
Q 3647 1150 3233 529 
Q 2819 -91 2034 -91 
Q 1250 -91 836 529 
Q 422 1150 422 2328 
Q 422 3509 836 4129 
Q 1250 4750 2034 4750 
z
" transform="scale(0.015625)"/>
       </defs>
       <use xlink:href="#DejaVuSans-30"/>
      </g>
     </g>
    </g>
    <g id="xtick_2">
     <g id="line2d_2">
      <g>
       <use xlink:href="#mf11f30c295" x="119.976016" y="138.04" style="fill: #585759; stroke: #585759; stroke-width: 0.8"/>
      </g>
     </g>
     <g id="text_2">
      <!-- 1000 -->
      <g style="fill: #585759" transform="translate(107.251016 152.638438)scale(0.1 -0.1)">
       <defs>
        <path id="DejaVuSans-31" d="M 794 531 
L 1825 531 
L 1825 4091 
L 703 3866 
L 703 4441 
L 1819 4666 
L 2450 4666 
L 2450 531 
L 3481 531 
L 3481 0 
L 794 0 
L 794 531 
z
" transform="scale(0.015625)"/>
       </defs>
       <use xlink:href="#DejaVuSans-31"/>
       <use xlink:href="#DejaVuSans-30" x="63.623047"/>
       <use xlink:href="#DejaVuSans-30" x="127.246094"/>
       <use xlink:href="#DejaVuSans-30" x="190.869141"/>
      </g>
     </g>
    </g>
    <g id="text_3">
     <!-- Time [ms] -->
     <g style="fill: #585759" transform="translate(60.412028 166.316563)scale(0.1 -0.1)">
      <defs>
       <path id="DejaVuSans-54" d="M -19 4666 
L 3928 4666 
L 3928 4134 
L 2272 4134 
L 2272 0 
L 1638 0 
L 1638 4134 
L -19 4134 
L -19 4666 
z
" transform="scale(0.015625)"/>
       <path id="DejaVuSans-69" d="M 603 3500 
L 1178 3500 
L 1178 0 
L 603 0 
L 603 3500 
z
M 603 4863 
L 1178 4863 
L 1178 4134 
L 603 4134 
L 603 4863 
z
" transform="scale(0.015625)"/>
       <path id="DejaVuSans-6d" d="M 3328 2828 
Q 3544 3216 3844 3400 
Q 4144 3584 4550 3584 
Q 5097 3584 5394 3201 
Q 5691 2819 5691 2113 
L 5691 0 
L 5113 0 
L 5113 2094 
Q 5113 2597 4934 2840 
Q 4756 3084 4391 3084 
Q 3944 3084 3684 2787 
Q 3425 2491 3425 1978 
L 3425 0 
L 2847 0 
L 2847 2094 
Q 2847 2600 2669 2842 
Q 2491 3084 2119 3084 
Q 1678 3084 1418 2786 
Q 1159 2488 1159 1978 
L 1159 0 
L 581 0 
L 581 3500 
L 1159 3500 
L 1159 2956 
Q 1356 3278 1631 3431 
Q 1906 3584 2284 3584 
Q 2666 3584 2933 3390 
Q 3200 3197 3328 2828 
z
" transform="scale(0.015625)"/>
       <path id="DejaVuSans-65" d="M 3597 1894 
L 3597 1613 
L 953 1613 
Q 991 1019 1311 708 
Q 1631 397 2203 397 
Q 2534 397 2845 478 
Q 3156 559 3463 722 
L 3463 178 
Q 3153 47 2828 -22 
Q 2503 -91 2169 -91 
Q 1331 -91 842 396 
Q 353 884 353 1716 
Q 353 2575 817 3079 
Q 1281 3584 2069 3584 
Q 2775 3584 3186 3129 
Q 3597 2675 3597 1894 
z
M 3022 2063 
Q 3016 2534 2758 2815 
Q 2500 3097 2075 3097 
Q 1594 3097 1305 2825 
Q 1016 2553 972 2059 
L 3022 2063 
z
" transform="scale(0.015625)"/>
       <path id="DejaVuSans-20" transform="scale(0.015625)"/>
       <path id="DejaVuSans-5b" d="M 550 4863 
L 1875 4863 
L 1875 4416 
L 1125 4416 
L 1125 -397 
L 1875 -397 
L 1875 -844 
L 550 -844 
L 550 4863 
z
" transform="scale(0.015625)"/>
       <path id="DejaVuSans-73" d="M 2834 3397 
L 2834 2853 
Q 2591 2978 2328 3040 
Q 2066 3103 1784 3103 
Q 1356 3103 1142 2972 
Q 928 2841 928 2578 
Q 928 2378 1081 2264 
Q 1234 2150 1697 2047 
L 1894 2003 
Q 2506 1872 2764 1633 
Q 3022 1394 3022 966 
Q 3022 478 2636 193 
Q 2250 -91 1575 -91 
Q 1294 -91 989 -36 
Q 684 19 347 128 
L 347 722 
Q 666 556 975 473 
Q 1284 391 1588 391 
Q 1994 391 2212 530 
Q 2431 669 2431 922 
Q 2431 1156 2273 1281 
Q 2116 1406 1581 1522 
L 1381 1569 
Q 847 1681 609 1914 
Q 372 2147 372 2553 
Q 372 3047 722 3315 
Q 1072 3584 1716 3584 
Q 2034 3584 2315 3537 
Q 2597 3491 2834 3397 
z
" transform="scale(0.015625)"/>
       <path id="DejaVuSans-5d" d="M 1947 4863 
L 1947 -844 
L 622 -844 
L 622 -397 
L 1369 -397 
L 1369 4416 
L 622 4416 
L 622 4863 
L 1947 4863 
z
" transform="scale(0.015625)"/>
      </defs>
      <use xlink:href="#DejaVuSans-54"/>
      <use xlink:href="#DejaVuSans-69" x="57.958984"/>
      <use xlink:href="#DejaVuSans-6d" x="85.742188"/>
      <use xlink:href="#DejaVuSans-65" x="183.154297"/>
      <use xlink:href="#DejaVuSans-20" x="244.677734"/>
      <use xlink:href="#DejaVuSans-5b" x="276.464844"/>
      <use xlink:href="#DejaVuSans-6d" x="315.478516"/>
      <use xlink:href="#DejaVuSans-73" x="412.890625"/>
      <use xlink:href="#DejaVuSans-5d" x="464.990234"/>
     </g>
    </g>
   </g>
   <g id="matplotlib.axis_2">
    <g id="ytick_1">
     <g id="line2d_3">
      <defs>
       <path id="md22c467999" d="M 0 0 
L -3.5 0 
" style="stroke: #585759; stroke-width: 0.8"/>
      </defs>
      <g>
       <use xlink:href="#md22c467999" x="47.81" y="132.780952" style="fill: #585759; stroke: #585759; stroke-width: 0.8"/>
      </g>
     </g>
     <g id="text_4">
      <!-- 0.00 -->
      <g style="fill: #585759" transform="translate(18.544375 136.580171)scale(0.1 -0.1)">
       <defs>
        <path id="DejaVuSans-2e" d="M 684 794 
L 1344 794 
L 1344 0 
L 684 0 
L 684 794 
z
" transform="scale(0.015625)"/>
       </defs>
       <use xlink:href="#DejaVuSans-30"/>
       <use xlink:href="#DejaVuSans-2e" x="63.623047"/>
       <use xlink:href="#DejaVuSans-30" x="95.410156"/>
       <use xlink:href="#DejaVuSans-30" x="159.033203"/>
      </g>
     </g>
    </g>
    <g id="ytick_2">
     <g id="line2d_4">
      <g>
       <use xlink:href="#md22c467999" x="47.81" y="106.485714" style="fill: #585759; stroke: #585759; stroke-width: 0.8"/>
      </g>
     </g>
     <g id="text_5">
      <!-- 0.25 -->
      <g style="fill: #585759" transform="translate(18.544375 110.284933)scale(0.1 -0.1)">
       <defs>
        <path id="DejaVuSans-32" d="M 1228 531 
L 3431 531 
L 3431 0 
L 469 0 
L 469 531 
Q 828 903 1448 1529 
Q 2069 2156 2228 2338 
Q 2531 2678 2651 2914 
Q 2772 3150 2772 3378 
Q 2772 3750 2511 3984 
Q 2250 4219 1831 4219 
Q 1534 4219 1204 4116 
Q 875 4013 500 3803 
L 500 4441 
Q 881 4594 1212 4672 
Q 1544 4750 1819 4750 
Q 2544 4750 2975 4387 
Q 3406 4025 3406 3419 
Q 3406 3131 3298 2873 
Q 3191 2616 2906 2266 
Q 2828 2175 2409 1742 
Q 1991 1309 1228 531 
z
" transform="scale(0.015625)"/>
        <path id="DejaVuSans-35" d="M 691 4666 
L 3169 4666 
L 3169 4134 
L 1269 4134 
L 1269 2991 
Q 1406 3038 1543 3061 
Q 1681 3084 1819 3084 
Q 2600 3084 3056 2656 
Q 3513 2228 3513 1497 
Q 3513 744 3044 326 
Q 2575 -91 1722 -91 
Q 1428 -91 1123 -41 
Q 819 9 494 109 
L 494 744 
Q 775 591 1075 516 
Q 1375 441 1709 441 
Q 2250 441 2565 725 
Q 2881 1009 2881 1497 
Q 2881 1984 2565 2268 
Q 2250 2553 1709 2553 
Q 1456 2553 1204 2497 
Q 953 2441 691 2322 
L 691 4666 
z
" transform="scale(0.015625)"/>
       </defs>
       <use xlink:href="#DejaVuSans-30"/>
       <use xlink:href="#DejaVuSans-2e" x="63.623047"/>
       <use xlink:href="#DejaVuSans-32" x="95.410156"/>
       <use xlink:href="#DejaVuSans-35" x="159.033203"/>
      </g>
     </g>
    </g>
    <g id="ytick_3">
     <g id="line2d_5">
      <g>
       <use xlink:href="#md22c467999" x="47.81" y="80.190476" style="fill: #585759; stroke: #585759; stroke-width: 0.8"/>
      </g>
     </g>
     <g id="text_6">
      <!-- 0.50 -->
      <g style="fill: #585759" transform="translate(18.544375 83.989695)scale(0.1 -0.1)">
       <use xlink:href="#DejaVuSans-30"/>
       <use xlink:href="#DejaVuSans-2e" x="63.623047"/>
       <use xlink:href="#DejaVuSans-35" x="95.410156"/>
       <use xlink:href="#DejaVuSans-30" x="159.033203"/>
      </g>
     </g>
    </g>
    <g id="ytick_4">
     <g id="line2d_6">
      <g>
       <use xlink:href="#md22c467999" x="47.81" y="53.895238" style="fill: #585759; stroke: #585759; stroke-width: 0.8"/>
      </g>
     </g>
     <g id="text_7">
      <!-- 0.75 -->
      <g style="fill: #585759" transform="translate(18.544375 57.694457)scale(0.1 -0.1)">
       <defs>
        <path id="DejaVuSans-37" d="M 525 4666 
L 3525 4666 
L 3525 4397 
L 1831 0 
L 1172 0 
L 2766 4134 
L 525 4134 
L 525 4666 
z
" transform="scale(0.015625)"/>
       </defs>
       <use xlink:href="#DejaVuSans-30"/>
       <use xlink:href="#DejaVuSans-2e" x="63.623047"/>
       <use xlink:href="#DejaVuSans-37" x="95.410156"/>
       <use xlink:href="#DejaVuSans-35" x="159.033203"/>
      </g>
     </g>
    </g>
    <g id="ytick_5">
     <g id="line2d_7">
      <g>
       <use xlink:href="#md22c467999" x="47.81" y="27.6" style="fill: #585759; stroke: #585759; stroke-width: 0.8"/>
      </g>
     </g>
     <g id="text_8">
      <!-- 1.00 -->
      <g style="fill: #585759" transform="translate(18.544375 31.399219)scale(0.1 -0.1)">
       <use xlink:href="#DejaVuSans-31"/>
       <use xlink:href="#DejaVuSans-2e" x="63.623047"/>
       <use xlink:href="#DejaVuSans-30" x="95.410156"/>
       <use xlink:href="#DejaVuSans-30" x="159.033203"/>
      </g>
     </g>
    </g>
    <g id="text_9">
     <!-- Activation [a.u.] -->
     <g style="fill: #585759" transform="translate(12.464688 122.753594)rotate(-90)scale(0.1 -0.1)">
      <defs>
       <path id="DejaVuSans-41" d="M 2188 4044 
L 1331 1722 
L 3047 1722 
L 2188 4044 
z
M 1831 4666 
L 2547 4666 
L 4325 0 
L 3669 0 
L 3244 1197 
L 1141 1197 
L 716 0 
L 50 0 
L 1831 4666 
z
" transform="scale(0.015625)"/>
       <path id="DejaVuSans-63" d="M 3122 3366 
L 3122 2828 
Q 2878 2963 2633 3030 
Q 2388 3097 2138 3097 
Q 1578 3097 1268 2742 
Q 959 2388 959 1747 
Q 959 1106 1268 751 
Q 1578 397 2138 397 
Q 2388 397 2633 464 
Q 2878 531 3122 666 
L 3122 134 
Q 2881 22 2623 -34 
Q 2366 -91 2075 -91 
Q 1284 -91 818 406 
Q 353 903 353 1747 
Q 353 2603 823 3093 
Q 1294 3584 2113 3584 
Q 2378 3584 2631 3529 
Q 2884 3475 3122 3366 
z
" transform="scale(0.015625)"/>
       <path id="DejaVuSans-74" d="M 1172 4494 
L 1172 3500 
L 2356 3500 
L 2356 3053 
L 1172 3053 
L 1172 1153 
Q 1172 725 1289 603 
Q 1406 481 1766 481 
L 2356 481 
L 2356 0 
L 1766 0 
Q 1100 0 847 248 
Q 594 497 594 1153 
L 594 3053 
L 172 3053 
L 172 3500 
L 594 3500 
L 594 4494 
L 1172 4494 
z
" transform="scale(0.015625)"/>
       <path id="DejaVuSans-76" d="M 191 3500 
L 800 3500 
L 1894 563 
L 2988 3500 
L 3597 3500 
L 2284 0 
L 1503 0 
L 191 3500 
z
" transform="scale(0.015625)"/>
       <path id="DejaVuSans-61" d="M 2194 1759 
Q 1497 1759 1228 1600 
Q 959 1441 959 1056 
Q 959 750 1161 570 
Q 1363 391 1709 391 
Q 2188 391 2477 730 
Q 2766 1069 2766 1631 
L 2766 1759 
L 2194 1759 
z
M 3341 1997 
L 3341 0 
L 2766 0 
L 2766 531 
Q 2569 213 2275 61 
Q 1981 -91 1556 -91 
Q 1019 -91 701 211 
Q 384 513 384 1019 
Q 384 1609 779 1909 
Q 1175 2209 1959 2209 
L 2766 2209 
L 2766 2266 
Q 2766 2663 2505 2880 
Q 2244 3097 1772 3097 
Q 1472 3097 1187 3025 
Q 903 2953 641 2809 
L 641 3341 
Q 956 3463 1253 3523 
Q 1550 3584 1831 3584 
Q 2591 3584 2966 3190 
Q 3341 2797 3341 1997 
z
" transform="scale(0.015625)"/>
       <path id="DejaVuSans-6f" d="M 1959 3097 
Q 1497 3097 1228 2736 
Q 959 2375 959 1747 
Q 959 1119 1226 758 
Q 1494 397 1959 397 
Q 2419 397 2687 759 
Q 2956 1122 2956 1747 
Q 2956 2369 2687 2733 
Q 2419 3097 1959 3097 
z
M 1959 3584 
Q 2709 3584 3137 3096 
Q 3566 2609 3566 1747 
Q 3566 888 3137 398 
Q 2709 -91 1959 -91 
Q 1206 -91 779 398 
Q 353 888 353 1747 
Q 353 2609 779 3096 
Q 1206 3584 1959 3584 
z
" transform="scale(0.015625)"/>
       <path id="DejaVuSans-6e" d="M 3513 2113 
L 3513 0 
L 2938 0 
L 2938 2094 
Q 2938 2591 2744 2837 
Q 2550 3084 2163 3084 
Q 1697 3084 1428 2787 
Q 1159 2491 1159 1978 
L 1159 0 
L 581 0 
L 581 3500 
L 1159 3500 
L 1159 2956 
Q 1366 3272 1645 3428 
Q 1925 3584 2291 3584 
Q 2894 3584 3203 3211 
Q 3513 2838 3513 2113 
z
" transform="scale(0.015625)"/>
       <path id="DejaVuSans-75" d="M 544 1381 
L 544 3500 
L 1119 3500 
L 1119 1403 
Q 1119 906 1312 657 
Q 1506 409 1894 409 
Q 2359 409 2629 706 
Q 2900 1003 2900 1516 
L 2900 3500 
L 3475 3500 
L 3475 0 
L 2900 0 
L 2900 538 
Q 2691 219 2414 64 
Q 2138 -91 1772 -91 
Q 1169 -91 856 284 
Q 544 659 544 1381 
z
M 1991 3584 
L 1991 3584 
z
" transform="scale(0.015625)"/>
      </defs>
      <use xlink:href="#DejaVuSans-41"/>
      <use xlink:href="#DejaVuSans-63" x="66.658203"/>
      <use xlink:href="#DejaVuSans-74" x="121.638672"/>
      <use xlink:href="#DejaVuSans-69" x="160.847656"/>
      <use xlink:href="#DejaVuSans-76" x="188.630859"/>
      <use xlink:href="#DejaVuSans-61" x="247.810547"/>
      <use xlink:href="#DejaVuSans-74" x="309.089844"/>
      <use xlink:href="#DejaVuSans-69" x="348.298828"/>
      <use xlink:href="#DejaVuSans-6f" x="376.082031"/>
      <use xlink:href="#DejaVuSans-6e" x="437.263672"/>
      <use xlink:href="#DejaVuSans-20" x="500.642578"/>
      <use xlink:href="#DejaVuSans-5b" x="532.429688"/>
      <use xlink:href="#DejaVuSans-61" x="571.443359"/>
      <use xlink:href="#DejaVuSans-2e" x="632.722656"/>
      <use xlink:href="#DejaVuSans-75" x="664.509766"/>
      <use xlink:href="#DejaVuSans-2e" x="727.888672"/>
      <use xlink:href="#DejaVuSans-5d" x="759.675781"/>
     </g>
    </g>
   </g>
   <g id="line2d_8">
    <path d="M 51.246477 132.780934 
L 54.818372 132.877481 
L 55.01463 132.888903 
L 55.171636 132.495873 
L 55.564152 131.148469 
L 55.603404 131.167873 
L 55.76041 131.563144 
L 56.074423 132.375312 
L 56.192178 132.327229 
L 56.623945 131.855265 
L 56.663197 131.891235 
L 56.898706 132.394857 
L 57.055713 132.554099 
L 57.173467 132.309883 
L 57.448229 131.441781 
L 57.48748 131.463558 
L 57.683738 131.914836 
L 57.72299 131.845054 
L 57.801493 131.170374 
L 57.958499 126.627392 
L 58.46877 104.398853 
L 58.508022 104.661779 
L 58.665028 108.757315 
L 58.979041 116.518965 
L 59.057544 115.874039 
L 59.293053 112.36506 
L 59.332305 112.5046 
L 59.45006 115.192316 
L 59.881827 130.53924 
L 59.921079 130.422723 
L 60.078085 128.036809 
L 60.313595 125.246063 
L 60.392098 125.527499 
L 60.863117 129.91471 
L 60.980872 129.714545 
L 61.294885 128.287128 
L 61.491143 126.102121 
L 61.962162 118.492641 
L 62.001413 118.532405 
L 62.119168 119.857717 
L 62.66869 131.69647 
L 62.747194 131.573366 
L 63.100458 130.365646 
L 63.257464 130.529171 
L 63.64998 130.985716 
L 63.767735 130.810026 
L 63.963993 129.824863 
L 64.160251 127.579755 
L 64.435012 121.02355 
L 64.788276 114.375867 
L 64.86678 114.134799 
L 64.906031 114.247414 
L 65.023786 115.745006 
L 65.259296 123.626306 
L 65.534057 130.699824 
L 65.573308 130.818155 
L 65.61256 130.737218 
L 65.808818 128.857664 
L 66.005076 127.837192 
L 66.122831 128.175834 
L 66.672353 130.499269 
L 66.790108 130.595958 
L 66.829359 130.561086 
L 66.947114 130.071617 
L 67.10412 127.93555 
L 67.496636 119.773848 
L 67.57514 120.03799 
L 67.771398 123.635765 
L 68.08541 128.620194 
L 68.634933 132.276902 
L 68.791939 132.596995 
L 68.909694 132.370367 
L 69.341461 130.542845 
L 69.419964 130.714356 
L 69.694726 131.933699 
L 69.773229 131.776211 
L 69.890984 130.468378 
L 70.126493 123.908451 
L 70.401254 117.639937 
L 70.440506 117.492107 
L 70.479757 117.51677 
L 70.597512 118.30277 
L 70.872273 122.033072 
L 71.382544 131.557602 
L 71.421796 131.474902 
L 71.578802 129.96718 
L 71.932066 126.655235 
L 72.01057 126.761412 
L 72.167576 127.983311 
L 72.560092 132.627453 
L 72.599343 132.542686 
L 72.717098 130.912917 
L 72.952608 122.388548 
L 73.227369 115.660186 
L 73.305872 116.231405 
L 73.50213 120.886838 
L 73.933898 130.731171 
L 74.169407 132.476265 
L 74.24791 132.454634 
L 74.48342 131.687799 
L 75.032942 130.045076 
L 75.072194 130.072348 
L 75.189949 130.552357 
L 75.46471 132.186331 
L 75.503961 132.054729 
L 75.621716 130.457474 
L 75.857226 122.172443 
L 76.131987 115.406686 
L 76.21049 116.225397 
L 76.95627 130.052698 
L 77.348786 132.123086 
L 77.466541 132.188895 
L 77.584296 131.835023 
L 77.976812 129.366415 
L 78.055315 129.532347 
L 78.369328 131.846286 
L 78.447831 131.418714 
L 78.604837 127.793404 
L 78.997353 116.196004 
L 79.075856 116.890818 
L 79.272114 122.7368 
L 79.586127 130.66568 
L 79.743133 131.442415 
L 79.821636 131.32499 
L 80.135649 130.443691 
L 80.174901 130.512087 
L 80.371159 131.529255 
L 80.528165 132.093821 
L 80.567417 132.045037 
L 80.685172 131.40119 
L 80.920681 129.932703 
L 80.959933 129.998246 
L 81.077687 130.885102 
L 81.273945 132.382308 
L 81.352449 131.692337 
L 81.509455 126.689136 
L 81.862719 112.828684 
L 81.901971 112.835486 
L 82.019726 115.260099 
L 82.529996 130.747776 
L 82.765506 131.760634 
L 83.315028 132.946171 
L 83.432783 132.562682 
L 83.825299 129.537891 
L 83.903802 129.838626 
L 84.178563 132.466026 
L 84.257066 131.981149 
L 84.414073 127.356111 
L 84.806589 113.461597 
L 84.924344 115.823901 
L 85.395363 129.000937 
L 85.787879 130.605644 
L 86.141143 132.844737 
L 86.219646 132.717814 
L 86.376652 131.687725 
L 86.651414 129.705583 
L 86.690665 129.734746 
L 86.80842 130.53032 
L 87.04393 132.948574 
L 87.083181 132.929245 
L 87.161684 132.135648 
L 87.318691 127.348042 
L 87.711207 115.121977 
L 87.78971 115.994461 
L 88.103723 125.052436 
L 88.417735 130.468376 
L 88.653245 131.876875 
L 88.888754 132.143864 
L 89.163516 132.341091 
L 89.28127 131.925112 
L 89.595283 130.012223 
L 89.634535 130.085567 
L 89.752289 131.004815 
L 89.948547 132.85112 
L 89.987799 132.780358 
L 90.105554 130.822839 
L 90.341063 120.118083 
L 90.576573 113.13544 
L 90.655076 113.977874 
L 90.890586 122.296365 
L 91.165347 128.507754 
L 91.793372 132.570814 
L 91.950379 132.902107 
L 92.068133 132.562086 
L 92.342895 130.310409 
L 92.460649 129.758554 
L 92.499901 129.789547 
L 92.617656 130.624676 
L 92.853165 133.147534 
L 92.892417 133.091084 
L 93.010172 131.154056 
L 93.245681 120.371573 
L 93.481191 112.9011 
L 93.520442 113.011371 
L 93.638197 115.604869 
L 94.148468 130.689354 
L 94.383977 131.766758 
L 94.894248 133.024432 
L 94.9335 132.965232 
L 95.051255 132.367068 
L 95.365267 129.725042 
L 95.44377 129.885141 
L 95.640028 132.090555 
L 95.757783 132.766121 
L 95.836286 131.916428 
L 95.993293 126.169852 
L 96.346557 111.266406 
L 96.385809 111.397171 
L 96.503563 114.400741 
L 96.974583 129.694225 
L 97.720363 133.081042 
L 97.759614 133.03799 
L 97.877369 132.514192 
L 98.269885 129.508928 
L 98.348388 129.743565 
L 98.662401 132.390371 
L 98.740904 131.876246 
L 98.897911 127.988443 
L 99.290427 117.394384 
L 99.36893 118.174236 
L 99.643691 125.541843 
L 99.957704 130.953186 
L 100.193213 132.10378 
L 100.664232 132.743677 
L 100.742735 132.700643 
L 100.86049 132.218719 
L 101.174503 129.938934 
L 101.253006 130.07976 
L 101.527767 132.304263 
L 101.60627 131.842716 
L 101.763277 127.339191 
L 102.155793 112.785746 
L 102.234296 113.732194 
L 102.469806 122.634528 
L 102.744567 129.941922 
L 102.980076 131.363534 
L 103.529599 132.900558 
L 103.647353 132.837522 
L 103.80436 132.03437 
L 104.118372 129.826998 
L 104.157624 129.890647 
L 104.31463 131.108718 
L 104.471637 132.139184 
L 104.510888 132.005476 
L 104.628643 130.124581 
L 105.099662 116.068566 
L 105.178165 116.7737 
L 105.413675 123.502176 
L 105.727688 130.727506 
L 105.923946 131.898702 
L 106.0417 131.897378 
L 106.237958 131.853118 
L 106.434216 132.449017 
L 106.551971 132.690163 
L 106.591223 132.653412 
L 106.708978 132.073082 
L 107.02299 129.91889 
L 107.140745 130.692014 
L 107.337003 132.383369 
L 107.376255 132.253155 
L 107.494009 130.010772 
L 107.965029 111.547897 
L 108.043532 112.415438 
L 108.279041 120.822169 
L 108.593054 128.63277 
L 108.907067 131.32561 
L 109.064073 131.656831 
L 109.221079 131.51029 
L 109.613595 131.0049 
L 109.888357 129.98617 
L 109.927608 130.033845 
L 110.045363 130.677736 
L 110.241621 131.977232 
L 110.280873 131.904984 
L 110.398627 130.394568 
L 110.71264 120.048429 
L 110.869646 117.538386 
L 110.908898 117.581122 
L 111.026653 119.070615 
L 111.654678 130.374642 
L 111.772433 130.610138 
L 111.811685 130.575972 
L 112.007943 130.318109 
L 112.047194 130.365895 
L 112.204201 131.092337 
L 112.43971 132.245404 
L 112.518213 132.059535 
L 112.832226 129.897623 
L 112.910729 130.073444 
L 113.146239 131.904578 
L 113.224742 131.567309 
L 113.342497 128.812144 
L 113.813516 110.790876 
L 113.852767 111.170026 
L 114.009774 115.738727 
L 114.40229 126.762802 
L 114.834057 131.490245 
L 114.951812 131.667505 
L 115.108818 131.314269 
L 115.305076 131.039132 
L 115.422831 131.223072 
L 116.090108 132.702019 
L 116.404121 132.790492 
L 119.976016 132.780952 
L 119.976016 132.780952 
" clip-path="url(#pf8439031e9)" style="fill: none; stroke: #7e7b7d; stroke-linecap: square"/>
   </g>
   <g id="patch_2">
    <path d="M 47.81 138.04 
L 47.81 27.6 
" style="fill: none; stroke: #585759; stroke-width: 0.8; stroke-linejoin: miter; stroke-linecap: square"/>
   </g>
   <g id="patch_3">
    <path d="M 47.81 138.04 
L 123.412493 138.04 
" style="fill: none; stroke: #585759; stroke-width: 0.8; stroke-linejoin: miter; stroke-linecap: square"/>
   </g>
   <g id="text_10">
    <!-- Il -->
    <g style="fill: #585759" transform="translate(81.486996 21.6)scale(0.144 -0.144)">
     <defs>
      <path id="DejaVuSans-49" d="M 628 4666 
L 1259 4666 
L 1259 0 
L 628 0 
L 628 4666 
z
" transform="scale(0.015625)"/>
      <path id="DejaVuSans-6c" d="M 603 4863 
L 1178 4863 
L 1178 0 
L 603 0 
L 603 4863 
z
" transform="scale(0.015625)"/>
     </defs>
     <use xlink:href="#DejaVuSans-49"/>
     <use xlink:href="#DejaVuSans-6c" x="29.492188"/>
    </g>
   </g>
  </g>
  <g id="axes_2">
   <g id="patch_4">
    <path d="M 179.981429 138.04 
L 255.583921 138.04 
L 255.583921 27.6 
L 179.981429 27.6 
L 179.981429 138.04 
z
" style="fill: none"/>
   </g>
   <g id="matplotlib.axis_3">
    <g id="xtick_3">
     <g id="line2d_9">
      <g>
       <use xlink:href="#mf11f30c295" x="183.417906" y="138.04" style="fill: #585759; stroke: #585759; stroke-width: 0.8"/>
      </g>
     </g>
     <g id="text_11">
      <!-- 0 -->
      <g style="fill: #585759" transform="translate(180.236656 152.638438)scale(0.1 -0.1)">
       <use xlink:href="#DejaVuSans-30"/>
      </g>
     </g>
    </g>
    <g id="xtick_4">
     <g id="line2d_10">
      <g>
       <use xlink:href="#mf11f30c295" x="252.147444" y="138.04" style="fill: #585759; stroke: #585759; stroke-width: 0.8"/>
      </g>
     </g>
     <g id="text_12">
      <!-- 1000 -->
      <g style="fill: #585759" transform="translate(239.422444 152.638438)scale(0.1 -0.1)">
       <use xlink:href="#DejaVuSans-31"/>
       <use xlink:href="#DejaVuSans-30" x="63.623047"/>
       <use xlink:href="#DejaVuSans-30" x="127.246094"/>
       <use xlink:href="#DejaVuSans-30" x="190.869141"/>
      </g>
     </g>
    </g>
    <g id="text_13">
     <!-- Time [ms] -->
     <g style="fill: #585759" transform="translate(192.583456 166.316563)scale(0.1 -0.1)">
      <use xlink:href="#DejaVuSans-54"/>
      <use xlink:href="#DejaVuSans-69" x="57.958984"/>
      <use xlink:href="#DejaVuSans-6d" x="85.742188"/>
      <use xlink:href="#DejaVuSans-65" x="183.154297"/>
      <use xlink:href="#DejaVuSans-20" x="244.677734"/>
      <use xlink:href="#DejaVuSans-5b" x="276.464844"/>
      <use xlink:href="#DejaVuSans-6d" x="315.478516"/>
      <use xlink:href="#DejaVuSans-73" x="412.890625"/>
      <use xlink:href="#DejaVuSans-5d" x="464.990234"/>
     </g>
    </g>
   </g>
   <g id="matplotlib.axis_4">
    <g id="ytick_6">
     <g id="line2d_11">
      <g>
       <use xlink:href="#md22c467999" x="179.981429" y="132.780952" style="fill: #585759; stroke: #585759; stroke-width: 0.8"/>
      </g>
     </g>
     <g id="text_14">
      <!-- 0.00 -->
      <g style="fill: #585759" transform="translate(150.715804 136.580171)scale(0.1 -0.1)">
       <use xlink:href="#DejaVuSans-30"/>
       <use xlink:href="#DejaVuSans-2e" x="63.623047"/>
       <use xlink:href="#DejaVuSans-30" x="95.410156"/>
       <use xlink:href="#DejaVuSans-30" x="159.033203"/>
      </g>
     </g>
    </g>
    <g id="ytick_7">
     <g id="line2d_12">
      <g>
       <use xlink:href="#md22c467999" x="179.981429" y="106.485714" style="fill: #585759; stroke: #585759; stroke-width: 0.8"/>
      </g>
     </g>
     <g id="text_15">
      <!-- 0.25 -->
      <g style="fill: #585759" transform="translate(150.715804 110.284933)scale(0.1 -0.1)">
       <use xlink:href="#DejaVuSans-30"/>
       <use xlink:href="#DejaVuSans-2e" x="63.623047"/>
       <use xlink:href="#DejaVuSans-32" x="95.410156"/>
       <use xlink:href="#DejaVuSans-35" x="159.033203"/>
      </g>
     </g>
    </g>
    <g id="ytick_8">
     <g id="line2d_13">
      <g>
       <use xlink:href="#md22c467999" x="179.981429" y="80.190476" style="fill: #585759; stroke: #585759; stroke-width: 0.8"/>
      </g>
     </g>
     <g id="text_16">
      <!-- 0.50 -->
      <g style="fill: #585759" transform="translate(150.715804 83.989695)scale(0.1 -0.1)">
       <use xlink:href="#DejaVuSans-30"/>
       <use xlink:href="#DejaVuSans-2e" x="63.623047"/>
       <use xlink:href="#DejaVuSans-35" x="95.410156"/>
       <use xlink:href="#DejaVuSans-30" x="159.033203"/>
      </g>
     </g>
    </g>
    <g id="ytick_9">
     <g id="line2d_14">
      <g>
       <use xlink:href="#md22c467999" x="179.981429" y="53.895238" style="fill: #585759; stroke: #585759; stroke-width: 0.8"/>
      </g>
     </g>
     <g id="text_17">
      <!-- 0.75 -->
      <g style="fill: #585759" transform="translate(150.715804 57.694457)scale(0.1 -0.1)">
       <use xlink:href="#DejaVuSans-30"/>
       <use xlink:href="#DejaVuSans-2e" x="63.623047"/>
       <use xlink:href="#DejaVuSans-37" x="95.410156"/>
       <use xlink:href="#DejaVuSans-35" x="159.033203"/>
      </g>
     </g>
    </g>
    <g id="ytick_10">
     <g id="line2d_15">
      <g>
       <use xlink:href="#md22c467999" x="179.981429" y="27.6" style="fill: #585759; stroke: #585759; stroke-width: 0.8"/>
      </g>
     </g>
     <g id="text_18">
      <!-- 1.00 -->
      <g style="fill: #585759" transform="translate(150.715804 31.399219)scale(0.1 -0.1)">
       <use xlink:href="#DejaVuSans-31"/>
       <use xlink:href="#DejaVuSans-2e" x="63.623047"/>
       <use xlink:href="#DejaVuSans-30" x="95.410156"/>
       <use xlink:href="#DejaVuSans-30" x="159.033203"/>
      </g>
     </g>
    </g>
    <g id="text_19">
     <!--   -->
     <g style="fill: #585759" transform="translate(144.636116 84.409062)rotate(-90)scale(0.1 -0.1)">
      <use xlink:href="#DejaVuSans-20"/>
     </g>
    </g>
   </g>
   <g id="line2d_16">
    <path d="M 183.417906 132.780952 
L 252.147444 132.780952 
L 252.147444 132.780952 
" clip-path="url(#p81d776729b)" style="fill: none; stroke: #7e7b7d; stroke-linecap: square"/>
   </g>
   <g id="patch_5">
    <path d="M 179.981429 138.04 
L 179.981429 27.6 
" style="fill: none; stroke: #585759; stroke-width: 0.8; stroke-linejoin: miter; stroke-linecap: square"/>
   </g>
   <g id="patch_6">
    <path d="M 179.981429 138.04 
L 255.583921 138.04 
" style="fill: none; stroke: #585759; stroke-width: 0.8; stroke-linejoin: miter; stroke-linecap: square"/>
   </g>
   <g id="text_20">
    <!-- GMax -->
    <g style="fill: #585759" transform="translate(197.3178 21.6)scale(0.144 -0.144)">
     <defs>
      <path id="DejaVuSans-47" d="M 3809 666 
L 3809 1919 
L 2778 1919 
L 2778 2438 
L 4434 2438 
L 4434 434 
Q 4069 175 3628 42 
Q 3188 -91 2688 -91 
Q 1594 -91 976 548 
Q 359 1188 359 2328 
Q 359 3472 976 4111 
Q 1594 4750 2688 4750 
Q 3144 4750 3555 4637 
Q 3966 4525 4313 4306 
L 4313 3634 
Q 3963 3931 3569 4081 
Q 3175 4231 2741 4231 
Q 1884 4231 1454 3753 
Q 1025 3275 1025 2328 
Q 1025 1384 1454 906 
Q 1884 428 2741 428 
Q 3075 428 3337 486 
Q 3600 544 3809 666 
z
" transform="scale(0.015625)"/>
      <path id="DejaVuSans-4d" d="M 628 4666 
L 1569 4666 
L 2759 1491 
L 3956 4666 
L 4897 4666 
L 4897 0 
L 4281 0 
L 4281 4097 
L 3078 897 
L 2444 897 
L 1241 4097 
L 1241 0 
L 628 0 
L 628 4666 
z
" transform="scale(0.015625)"/>
      <path id="DejaVuSans-78" d="M 3513 3500 
L 2247 1797 
L 3578 0 
L 2900 0 
L 1881 1375 
L 863 0 
L 184 0 
L 1544 1831 
L 300 3500 
L 978 3500 
L 1906 2253 
L 2834 3500 
L 3513 3500 
z
" transform="scale(0.015625)"/>
     </defs>
     <use xlink:href="#DejaVuSans-47"/>
     <use xlink:href="#DejaVuSans-4d" x="77.490234"/>
     <use xlink:href="#DejaVuSans-61" x="163.769531"/>
     <use xlink:href="#DejaVuSans-78" x="225.048828"/>
    </g>
   </g>
  </g>
  <g id="axes_3">
   <g id="patch_7">
    <path d="M 312.152857 138.04 
L 387.75535 138.04 
L 387.75535 27.6 
L 312.152857 27.6 
L 312.152857 138.04 
z
" style="fill: none"/>
   </g>
   <g id="matplotlib.axis_5">
    <g id="xtick_5">
     <g id="line2d_17">
      <g>
       <use xlink:href="#mf11f30c295" x="315.589334" y="138.04" style="fill: #585759; stroke: #585759; stroke-width: 0.8"/>
      </g>
     </g>
     <g id="text_21">
      <!-- 0 -->
      <g style="fill: #585759" transform="translate(312.408084 152.638438)scale(0.1 -0.1)">
       <use xlink:href="#DejaVuSans-30"/>
      </g>
     </g>
    </g>
    <g id="xtick_6">
     <g id="line2d_18">
      <g>
       <use xlink:href="#mf11f30c295" x="384.318873" y="138.04" style="fill: #585759; stroke: #585759; stroke-width: 0.8"/>
      </g>
     </g>
     <g id="text_22">
      <!-- 1000 -->
      <g style="fill: #585759" transform="translate(371.593873 152.638438)scale(0.1 -0.1)">
       <use xlink:href="#DejaVuSans-31"/>
       <use xlink:href="#DejaVuSans-30" x="63.623047"/>
       <use xlink:href="#DejaVuSans-30" x="127.246094"/>
       <use xlink:href="#DejaVuSans-30" x="190.869141"/>
      </g>
     </g>
    </g>
    <g id="text_23">
     <!-- Time [ms] -->
     <g style="fill: #585759" transform="translate(324.754885 166.316563)scale(0.1 -0.1)">
      <use xlink:href="#DejaVuSans-54"/>
      <use xlink:href="#DejaVuSans-69" x="57.958984"/>
      <use xlink:href="#DejaVuSans-6d" x="85.742188"/>
      <use xlink:href="#DejaVuSans-65" x="183.154297"/>
      <use xlink:href="#DejaVuSans-20" x="244.677734"/>
      <use xlink:href="#DejaVuSans-5b" x="276.464844"/>
      <use xlink:href="#DejaVuSans-6d" x="315.478516"/>
      <use xlink:href="#DejaVuSans-73" x="412.890625"/>
      <use xlink:href="#DejaVuSans-5d" x="464.990234"/>
     </g>
    </g>
   </g>
   <g id="matplotlib.axis_6">
    <g id="ytick_11">
     <g id="line2d_19">
      <g>
       <use xlink:href="#md22c467999" x="312.152857" y="132.780952" style="fill: #585759; stroke: #585759; stroke-width: 0.8"/>
      </g>
     </g>
     <g id="text_24">
      <!-- 0.00 -->
      <g style="fill: #585759" transform="translate(282.887232 136.580171)scale(0.1 -0.1)">
       <use xlink:href="#DejaVuSans-30"/>
       <use xlink:href="#DejaVuSans-2e" x="63.623047"/>
       <use xlink:href="#DejaVuSans-30" x="95.410156"/>
       <use xlink:href="#DejaVuSans-30" x="159.033203"/>
      </g>
     </g>
    </g>
    <g id="ytick_12">
     <g id="line2d_20">
      <g>
       <use xlink:href="#md22c467999" x="312.152857" y="106.485714" style="fill: #585759; stroke: #585759; stroke-width: 0.8"/>
      </g>
     </g>
     <g id="text_25">
      <!-- 0.25 -->
      <g style="fill: #585759" transform="translate(282.887232 110.284933)scale(0.1 -0.1)">
       <use xlink:href="#DejaVuSans-30"/>
       <use xlink:href="#DejaVuSans-2e" x="63.623047"/>
       <use xlink:href="#DejaVuSans-32" x="95.410156"/>
       <use xlink:href="#DejaVuSans-35" x="159.033203"/>
      </g>
     </g>
    </g>
    <g id="ytick_13">
     <g id="line2d_21">
      <g>
       <use xlink:href="#md22c467999" x="312.152857" y="80.190476" style="fill: #585759; stroke: #585759; stroke-width: 0.8"/>
      </g>
     </g>
     <g id="text_26">
      <!-- 0.50 -->
      <g style="fill: #585759" transform="translate(282.887232 83.989695)scale(0.1 -0.1)">
       <use xlink:href="#DejaVuSans-30"/>
       <use xlink:href="#DejaVuSans-2e" x="63.623047"/>
       <use xlink:href="#DejaVuSans-35" x="95.410156"/>
       <use xlink:href="#DejaVuSans-30" x="159.033203"/>
      </g>
     </g>
    </g>
    <g id="ytick_14">
     <g id="line2d_22">
      <g>
       <use xlink:href="#md22c467999" x="312.152857" y="53.895238" style="fill: #585759; stroke: #585759; stroke-width: 0.8"/>
      </g>
     </g>
     <g id="text_27">
      <!-- 0.75 -->
      <g style="fill: #585759" transform="translate(282.887232 57.694457)scale(0.1 -0.1)">
       <use xlink:href="#DejaVuSans-30"/>
       <use xlink:href="#DejaVuSans-2e" x="63.623047"/>
       <use xlink:href="#DejaVuSans-37" x="95.410156"/>
       <use xlink:href="#DejaVuSans-35" x="159.033203"/>
      </g>
     </g>
    </g>
    <g id="ytick_15">
     <g id="line2d_23">
      <g>
       <use xlink:href="#md22c467999" x="312.152857" y="27.6" style="fill: #585759; stroke: #585759; stroke-width: 0.8"/>
      </g>
     </g>
     <g id="text_28">
      <!-- 1.00 -->
      <g style="fill: #585759" transform="translate(282.887232 31.399219)scale(0.1 -0.1)">
       <use xlink:href="#DejaVuSans-31"/>
       <use xlink:href="#DejaVuSans-2e" x="63.623047"/>
       <use xlink:href="#DejaVuSans-30" x="95.410156"/>
       <use xlink:href="#DejaVuSans-30" x="159.033203"/>
      </g>
     </g>
    </g>
    <g id="text_29">
     <!--   -->
     <g style="fill: #585759" transform="translate(276.807545 84.409062)rotate(-90)scale(0.1 -0.1)">
      <use xlink:href="#DejaVuSans-20"/>
     </g>
    </g>
   </g>
   <g id="line2d_24">
    <path d="M 315.589334 132.780954 
L 319.43599 132.678008 
L 319.907009 132.560882 
L 321.006054 132.586018 
L 321.280815 132.707134 
L 321.477073 132.391756 
L 321.634079 132.206472 
L 321.673331 132.242794 
L 321.791086 132.63119 
L 322.026595 133.728575 
L 322.065847 133.69437 
L 322.183602 132.774422 
L 322.615369 126.356441 
L 322.693872 126.640524 
L 322.772376 126.936886 
L 322.811627 126.903462 
L 322.89013 126.172084 
L 323.086388 120.496017 
L 323.282646 116.16086 
L 323.321898 116.211381 
L 323.439653 118.03127 
L 323.753665 123.526515 
L 324.028427 124.838279 
L 324.734955 132.609209 
L 324.931213 132.7602 
L 324.970465 132.727134 
L 325.08822 132.31588 
L 325.284478 130.297592 
L 325.755497 122.315276 
L 326.069509 116.794685 
L 326.148013 117.217589 
L 326.933044 128.494028 
L 327.207806 132.578595 
L 327.286309 132.657786 
L 327.443315 131.972717 
L 327.678825 131.292651 
L 327.835831 131.633328 
L 328.032089 132.009154 
L 328.071341 131.989154 
L 328.189095 131.69032 
L 328.424605 130.236011 
L 328.895624 126.540749 
L 328.934876 126.590222 
L 329.05263 127.298287 
L 329.405895 129.853777 
L 329.562901 129.878546 
L 329.680656 129.982203 
L 329.837662 130.607969 
L 330.308681 132.676325 
L 330.465688 132.671003 
L 330.858204 132.501033 
L 331.01521 132.443302 
L 331.132965 132.144381 
L 331.329223 130.785973 
L 331.800242 126.751683 
L 331.878745 126.800467 
L 332.035751 127.506351 
L 332.703029 131.970808 
L 332.781532 131.91163 
L 333.017041 131.784649 
L 333.213299 132.105132 
L 333.645067 132.822415 
L 333.762822 132.807217 
L 333.880576 132.445455 
L 334.037583 131.090241 
L 334.626357 123.422666 
L 334.70486 123.647503 
L 334.901118 125.778841 
L 335.254382 129.019973 
L 335.960911 132.76671 
L 336.000162 132.754536 
L 336.19642 132.441781 
L 336.392678 132.263004 
L 336.549685 132.467176 
L 336.745943 132.655439 
L 336.863697 132.261339 
L 337.059955 130.287856 
L 337.530974 124.71311 
L 337.609478 124.803403 
L 337.766484 125.934787 
L 338.512264 132.387266 
L 338.708522 132.823793 
L 338.865529 132.694174 
L 339.179541 132.386855 
L 339.336548 132.566434 
L 339.611309 133.094981 
L 339.65056 133.053054 
L 339.768315 132.48294 
L 339.964573 129.795103 
L 340.396341 123.214535 
L 340.435592 123.201507 
L 340.514096 123.597439 
L 340.749605 126.85983 
L 341.063618 129.931322 
L 341.691643 132.477898 
L 341.887901 132.595712 
L 342.35892 132.366274 
L 342.59443 132.594008 
L 342.712185 132.205208 
L 342.908443 130.132262 
L 343.300959 125.494411 
L 343.34021 125.461871 
L 343.379462 125.530953 
L 343.536468 126.595534 
L 344.203745 132.370306 
L 344.400003 132.656222 
L 345.028029 132.476943 
L 345.263538 132.819595 
L 345.420545 133.00692 
L 345.459796 132.976898 
L 345.577551 132.537211 
L 345.773809 130.416725 
L 346.205576 125.175732 
L 346.28408 125.088849 
L 346.323331 125.162966 
L 346.480338 126.008686 
L 346.872854 129.765728 
L 347.226118 132.690761 
L 347.343873 132.825906 
L 347.383124 132.796689 
L 347.893395 132.181461 
L 347.932647 132.214331 
L 348.128905 132.640158 
L 348.325162 133.106082 
L 348.364414 133.090978 
L 348.482169 132.582047 
L 348.678427 129.869327 
L 349.110194 123.449922 
L 349.149446 123.461894 
L 349.267201 124.175275 
L 350.130736 132.100655 
L 350.366245 132.818587 
L 350.484 132.720984 
L 350.837264 132.293934 
L 350.994271 132.593862 
L 351.22978 133.142979 
L 351.269032 133.110443 
L 351.386787 132.547586 
L 351.583045 129.768795 
L 352.093315 121.575098 
L 352.171819 121.765969 
L 352.328825 123.308985 
L 353.113857 132.728627 
L 353.231612 132.689096 
L 353.663379 132.214016 
L 353.820385 132.369874 
L 354.17365 133.062716 
L 354.212901 132.988236 
L 354.330656 132.275381 
L 354.566166 128.662123 
L 354.880178 124.528908 
L 354.91943 124.480577 
L 354.958682 124.553579 
L 355.115688 125.779434 
L 355.586707 129.786782 
L 356.136229 132.770781 
L 356.253984 132.686212 
L 356.6465 132.190722 
L 356.803507 132.479736 
L 357.039016 133.073281 
L 357.078268 133.054272 
L 357.196022 132.509398 
L 357.39228 129.614502 
L 357.8633 121.440643 
L 357.902551 121.349772 
L 357.941803 121.377494 
L 358.059557 122.065277 
L 358.334319 125.648704 
L 358.844589 132.53508 
L 358.962344 132.691707 
L 359.158602 132.270281 
L 359.35486 132.056344 
L 359.511866 132.210205 
L 359.825879 132.961529 
L 359.982886 133.153703 
L 360.061389 132.940264 
L 360.218395 131.468877 
L 360.728666 124.244783 
L 360.767917 124.352636 
L 360.924924 125.883073 
L 361.356691 130.418758 
L 361.866962 132.687124 
L 362.023968 132.793238 
L 362.220226 132.564161 
L 362.455736 132.360511 
L 362.612742 132.536668 
L 362.848252 132.931952 
L 362.887503 132.910213 
L 363.005258 132.496551 
L 363.201516 130.457764 
L 363.711787 124.32887 
L 363.829542 124.078445 
L 363.868793 124.124208 
L 363.986548 124.698811 
L 364.182806 127.211348 
L 364.575322 132.277491 
L 364.653825 132.341799 
L 364.693077 132.28244 
L 365.007089 131.657151 
L 365.046341 131.680826 
L 365.321102 132.157558 
L 365.792121 133.141304 
L 365.831373 133.065372 
L 365.949128 132.295875 
L 366.184637 128.209826 
L 366.49865 123.321095 
L 366.537902 123.246818 
L 366.577153 123.315941 
L 366.694908 124.2558 
L 367.362185 131.396953 
L 367.676198 132.590298 
L 367.872456 132.674073 
L 368.382726 132.468947 
L 368.696739 132.885013 
L 368.735991 132.813408 
L 368.853746 132.186083 
L 369.089255 128.98868 
L 369.560274 122.608917 
L 369.638777 122.496067 
L 369.678029 122.579936 
L 369.795784 123.405199 
L 370.031293 127.321404 
L 370.384558 132.545496 
L 370.463061 132.714534 
L 370.502312 132.688567 
L 370.93408 131.842985 
L 371.012583 131.920197 
L 371.287344 132.48851 
L 371.562105 133.162132 
L 371.601357 133.138371 
L 371.719112 132.594459 
L 371.91537 129.713223 
L 372.386389 121.705184 
L 372.42564 121.706631 
L 372.543395 122.500216 
L 373.446182 132.535456 
L 373.603188 132.667217 
L 373.799446 132.425863 
L 374.034956 132.210189 
L 374.191962 132.416255 
L 374.505975 133.038813 
L 374.62373 132.604259 
L 374.819988 130.330831 
L 375.408762 122.199625 
L 375.487265 122.319669 
L 375.644271 123.846989 
L 376.272297 132.778534 
L 376.311548 132.762421 
L 376.547058 132.175515 
L 376.743316 131.965679 
L 376.939574 132.067404 
L 377.135832 132.466531 
L 377.410593 133.234895 
L 377.449844 133.177627 
L 377.567599 132.382296 
L 377.763857 128.678617 
L 378.156373 120.978866 
L 378.195625 120.952561 
L 378.274128 121.429616 
L 378.509637 125.460296 
L 378.82365 129.674176 
L 379.255418 131.949849 
L 379.530179 132.574815 
L 379.687185 132.513557 
L 380.040449 132.292483 
L 380.275959 132.498977 
L 380.668475 132.797705 
L 381.728268 132.781394 
L 384.318873 132.78095 
L 384.318873 132.78095 
" clip-path="url(#p19192c05f1)" style="fill: none; stroke: #7e7b7d; stroke-linecap: square"/>
   </g>
   <g id="patch_8">
    <path d="M 312.152857 138.04 
L 312.152857 27.6 
" style="fill: none; stroke: #585759; stroke-width: 0.8; stroke-linejoin: miter; stroke-linecap: square"/>
   </g>
   <g id="patch_9">
    <path d="M 312.152857 138.04 
L 387.75535 138.04 
" style="fill: none; stroke: #585759; stroke-width: 0.8; stroke-linejoin: miter; stroke-linecap: square"/>
   </g>
   <g id="text_30">
    <!-- RF -->
    <g style="fill: #585759" transform="translate(340.810104 21.6)scale(0.144 -0.144)">
     <defs>
      <path id="DejaVuSans-52" d="M 2841 2188 
Q 3044 2119 3236 1894 
Q 3428 1669 3622 1275 
L 4263 0 
L 3584 0 
L 2988 1197 
Q 2756 1666 2539 1819 
Q 2322 1972 1947 1972 
L 1259 1972 
L 1259 0 
L 628 0 
L 628 4666 
L 2053 4666 
Q 2853 4666 3247 4331 
Q 3641 3997 3641 3322 
Q 3641 2881 3436 2590 
Q 3231 2300 2841 2188 
z
M 1259 4147 
L 1259 2491 
L 2053 2491 
Q 2509 2491 2742 2702 
Q 2975 2913 2975 3322 
Q 2975 3731 2742 3939 
Q 2509 4147 2053 4147 
L 1259 4147 
z
" transform="scale(0.015625)"/>
      <path id="DejaVuSans-46" d="M 628 4666 
L 3309 4666 
L 3309 4134 
L 1259 4134 
L 1259 2759 
L 3109 2759 
L 3109 2228 
L 1259 2228 
L 1259 0 
L 628 0 
L 628 4666 
z
" transform="scale(0.015625)"/>
     </defs>
     <use xlink:href="#DejaVuSans-52"/>
     <use xlink:href="#DejaVuSans-46" x="69.482422"/>
    </g>
   </g>
  </g>
  <g id="axes_4">
   <g id="patch_10">
    <path d="M 444.324286 138.04 
L 519.926779 138.04 
L 519.926779 27.6 
L 444.324286 27.6 
L 444.324286 138.04 
z
" style="fill: none"/>
   </g>
   <g id="matplotlib.axis_7">
    <g id="xtick_7">
     <g id="line2d_25">
      <g>
       <use xlink:href="#mf11f30c295" x="447.760763" y="138.04" style="fill: #585759; stroke: #585759; stroke-width: 0.8"/>
      </g>
     </g>
     <g id="text_31">
      <!-- 0 -->
      <g style="fill: #585759" transform="translate(444.579513 152.638438)scale(0.1 -0.1)">
       <use xlink:href="#DejaVuSans-30"/>
      </g>
     </g>
    </g>
    <g id="xtick_8">
     <g id="line2d_26">
      <g>
       <use xlink:href="#mf11f30c295" x="516.490302" y="138.04" style="fill: #585759; stroke: #585759; stroke-width: 0.8"/>
      </g>
     </g>
     <g id="text_32">
      <!-- 1000 -->
      <g style="fill: #585759" transform="translate(503.765302 152.638438)scale(0.1 -0.1)">
       <use xlink:href="#DejaVuSans-31"/>
       <use xlink:href="#DejaVuSans-30" x="63.623047"/>
       <use xlink:href="#DejaVuSans-30" x="127.246094"/>
       <use xlink:href="#DejaVuSans-30" x="190.869141"/>
      </g>
     </g>
    </g>
    <g id="text_33">
     <!-- Time [ms] -->
     <g style="fill: #585759" transform="translate(456.926313 166.316563)scale(0.1 -0.1)">
      <use xlink:href="#DejaVuSans-54"/>
      <use xlink:href="#DejaVuSans-69" x="57.958984"/>
      <use xlink:href="#DejaVuSans-6d" x="85.742188"/>
      <use xlink:href="#DejaVuSans-65" x="183.154297"/>
      <use xlink:href="#DejaVuSans-20" x="244.677734"/>
      <use xlink:href="#DejaVuSans-5b" x="276.464844"/>
      <use xlink:href="#DejaVuSans-6d" x="315.478516"/>
      <use xlink:href="#DejaVuSans-73" x="412.890625"/>
      <use xlink:href="#DejaVuSans-5d" x="464.990234"/>
     </g>
    </g>
   </g>
   <g id="matplotlib.axis_8">
    <g id="ytick_16">
     <g id="line2d_27">
      <g>
       <use xlink:href="#md22c467999" x="444.324286" y="132.780952" style="fill: #585759; stroke: #585759; stroke-width: 0.8"/>
      </g>
     </g>
     <g id="text_34">
      <!-- 0.00 -->
      <g style="fill: #585759" transform="translate(415.058661 136.580171)scale(0.1 -0.1)">
       <use xlink:href="#DejaVuSans-30"/>
       <use xlink:href="#DejaVuSans-2e" x="63.623047"/>
       <use xlink:href="#DejaVuSans-30" x="95.410156"/>
       <use xlink:href="#DejaVuSans-30" x="159.033203"/>
      </g>
     </g>
    </g>
    <g id="ytick_17">
     <g id="line2d_28">
      <g>
       <use xlink:href="#md22c467999" x="444.324286" y="106.485714" style="fill: #585759; stroke: #585759; stroke-width: 0.8"/>
      </g>
     </g>
     <g id="text_35">
      <!-- 0.25 -->
      <g style="fill: #585759" transform="translate(415.058661 110.284933)scale(0.1 -0.1)">
       <use xlink:href="#DejaVuSans-30"/>
       <use xlink:href="#DejaVuSans-2e" x="63.623047"/>
       <use xlink:href="#DejaVuSans-32" x="95.410156"/>
       <use xlink:href="#DejaVuSans-35" x="159.033203"/>
      </g>
     </g>
    </g>
    <g id="ytick_18">
     <g id="line2d_29">
      <g>
       <use xlink:href="#md22c467999" x="444.324286" y="80.190476" style="fill: #585759; stroke: #585759; stroke-width: 0.8"/>
      </g>
     </g>
     <g id="text_36">
      <!-- 0.50 -->
      <g style="fill: #585759" transform="translate(415.058661 83.989695)scale(0.1 -0.1)">
       <use xlink:href="#DejaVuSans-30"/>
       <use xlink:href="#DejaVuSans-2e" x="63.623047"/>
       <use xlink:href="#DejaVuSans-35" x="95.410156"/>
       <use xlink:href="#DejaVuSans-30" x="159.033203"/>
      </g>
     </g>
    </g>
    <g id="ytick_19">
     <g id="line2d_30">
      <g>
       <use xlink:href="#md22c467999" x="444.324286" y="53.895238" style="fill: #585759; stroke: #585759; stroke-width: 0.8"/>
      </g>
     </g>
     <g id="text_37">
      <!-- 0.75 -->
      <g style="fill: #585759" transform="translate(415.058661 57.694457)scale(0.1 -0.1)">
       <use xlink:href="#DejaVuSans-30"/>
       <use xlink:href="#DejaVuSans-2e" x="63.623047"/>
       <use xlink:href="#DejaVuSans-37" x="95.410156"/>
       <use xlink:href="#DejaVuSans-35" x="159.033203"/>
      </g>
     </g>
    </g>
    <g id="ytick_20">
     <g id="line2d_31">
      <g>
       <use xlink:href="#md22c467999" x="444.324286" y="27.6" style="fill: #585759; stroke: #585759; stroke-width: 0.8"/>
      </g>
     </g>
     <g id="text_38">
      <!-- 1.00 -->
      <g style="fill: #585759" transform="translate(415.058661 31.399219)scale(0.1 -0.1)">
       <use xlink:href="#DejaVuSans-31"/>
       <use xlink:href="#DejaVuSans-2e" x="63.623047"/>
       <use xlink:href="#DejaVuSans-30" x="95.410156"/>
       <use xlink:href="#DejaVuSans-30" x="159.033203"/>
      </g>
     </g>
    </g>
    <g id="text_39">
     <!--   -->
     <g style="fill: #585759" transform="translate(408.978973 84.409062)rotate(-90)scale(0.1 -0.1)">
      <use xlink:href="#DejaVuSans-20"/>
     </g>
    </g>
   </g>
   <g id="line2d_32">
    <path d="M 447.760763 132.780953 
L 452.235444 132.674766 
L 452.667212 132.651541 
L 453.60925 132.77043 
L 453.84476 132.544637 
L 454.041018 132.464951 
L 454.198024 132.800443 
L 454.35503 133.178362 
L 454.394282 133.162996 
L 454.472785 132.853752 
L 454.629791 130.651422 
L 454.904553 121.617385 
L 455.33632 108.369005 
L 455.414823 109.309823 
L 455.57183 115.655199 
L 455.925094 130.021592 
L 455.964346 130.214031 
L 456.003597 130.149993 
L 456.199855 128.099924 
L 456.31761 127.386934 
L 456.356861 127.409133 
L 456.474616 128.183529 
L 456.827881 131.028748 
L 456.906384 130.900068 
L 457.102642 130.318112 
L 457.141893 130.348976 
L 457.259648 130.948984 
L 457.455906 132.304877 
L 457.495158 132.205643 
L 457.612912 130.092651 
L 457.80917 118.641439 
L 458.201686 90.665115 
L 458.240938 90.746908 
L 458.358693 95.898559 
L 458.868963 131.785451 
L 458.908215 131.536569 
L 459.300731 125.280672 
L 459.379234 125.528154 
L 460.399776 132.241751 
L 460.439027 132.16104 
L 460.596034 131.062478 
L 461.106304 124.813688 
L 461.184807 125.127242 
L 461.341814 127.443207 
L 461.695078 132.624435 
L 461.773581 132.700435 
L 461.812833 132.619738 
L 462.2446 131.344378 
L 462.283852 131.35761 
L 462.676368 131.742832 
L 462.951129 132.341407 
L 463.147387 132.676328 
L 463.186639 132.660959 
L 463.304393 132.362126 
L 463.500651 131.021039 
L 463.97167 127.536957 
L 464.050174 127.818637 
L 464.246432 129.948711 
L 464.521193 132.510917 
L 464.599696 132.579369 
L 464.638948 132.521583 
L 465.070715 131.596261 
L 465.345476 131.919535 
L 465.737992 132.569515 
L 465.973502 132.8437 
L 466.091256 132.583358 
L 466.405269 130.854133 
L 466.797785 128.06116 
L 466.994043 127.018717 
L 467.072546 127.371708 
L 467.268804 130.042096 
L 467.543565 132.675387 
L 467.622069 132.602562 
L 468.093088 131.308357 
L 468.132339 131.327555 
L 468.289346 131.580096 
L 468.721113 132.51513 
L 468.87812 132.152374 
L 469.427642 130.060819 
L 469.663151 125.969003 
L 469.859409 123.476814 
L 469.937913 123.959958 
L 470.134171 128.466678 
L 470.36968 132.759548 
L 470.408932 132.863628 
L 470.448183 132.805008 
L 470.60519 131.573915 
L 470.879951 129.945155 
L 470.958454 130.042855 
L 471.193964 131.06781 
L 471.625731 132.718569 
L 471.782737 132.850995 
L 471.900492 132.659077 
L 472.136002 131.561539 
L 472.724776 128.247017 
L 472.764027 128.300483 
L 472.881782 128.985791 
L 473.31355 132.616155 
L 473.352801 132.58372 
L 473.509808 132.008004 
L 473.745317 131.328174 
L 473.863072 131.433714 
L 474.569601 132.690757 
L 474.765859 132.875816 
L 474.883613 132.668476 
L 475.04062 131.748588 
L 475.511639 128.205171 
L 475.590142 128.468921 
L 475.7864 130.407006 
L 476.061161 132.709825 
L 476.139664 132.765839 
L 476.178916 132.70713 
L 476.610683 131.706175 
L 476.649935 131.738702 
L 477.631225 132.841605 
L 477.74898 132.755332 
L 477.905986 131.96958 
L 478.416257 127.844131 
L 478.455508 127.928806 
L 478.612515 129.074979 
L 479.005031 132.30669 
L 479.122785 132.350797 
L 479.554553 131.923233 
L 480.182578 132.546226 
L 480.535843 132.958972 
L 480.575094 132.919868 
L 480.692849 132.527334 
L 480.889107 130.881527 
L 481.360126 126.786466 
L 481.438629 126.910435 
L 481.595636 128.274871 
L 481.988152 132.318568 
L 482.066655 132.260431 
L 482.459171 131.090223 
L 482.498422 131.127612 
L 482.733932 131.731776 
L 483.047945 132.311449 
L 483.479712 132.869654 
L 483.518964 132.836378 
L 483.636718 132.449964 
L 483.832976 130.701216 
L 484.225492 127.242136 
L 484.303996 127.491731 
L 484.500254 129.483873 
L 484.814266 132.062702 
L 484.932021 132.099924 
L 485.285285 131.819323 
L 486.38433 132.835269 
L 486.502085 132.544516 
L 486.698343 130.984599 
L 487.13011 127.131095 
L 487.208613 127.434847 
L 487.404871 129.703586 
L 487.679633 132.453176 
L 487.758136 132.530375 
L 487.797387 132.465397 
L 488.189903 131.347771 
L 488.229155 131.37603 
L 488.425413 131.817006 
L 488.739426 132.422597 
L 489.328199 132.838393 
L 489.445954 132.45897 
L 489.642212 130.775894 
L 490.034728 127.44319 
L 490.113231 127.675203 
L 490.309489 129.62427 
L 490.623502 132.256209 
L 490.702005 132.302993 
L 490.741257 132.259706 
L 491.094521 131.737614 
L 491.133773 131.762052 
L 491.840301 132.627857 
L 492.075811 133.00057 
L 492.115063 132.978369 
L 492.232817 132.645655 
L 492.54683 130.48125 
L 492.978598 127.182507 
L 493.174856 125.903757 
L 493.253359 126.313372 
L 493.488868 130.100847 
L 493.685126 132.029517 
L 493.763629 131.93894 
L 494.116894 130.379693 
L 494.156145 130.423873 
L 494.352403 131.174884 
L 494.666416 132.179874 
L 495.137435 132.867617 
L 495.176687 132.823698 
L 495.294442 132.387646 
L 495.490699 130.545728 
L 495.843964 127.262405 
L 495.922467 127.443525 
L 496.079473 128.992559 
L 496.432738 132.467203 
L 496.511241 132.50517 
L 496.550493 132.446945 
L 496.903757 131.769086 
L 496.943008 131.791783 
L 497.21777 132.234446 
L 497.610286 132.613093 
L 497.96355 132.906926 
L 498.081305 132.604544 
L 498.316814 131.030447 
L 498.787833 127.922135 
L 498.866336 127.830085 
L 498.905588 127.889816 
L 499.023343 128.553953 
L 499.45511 132.132756 
L 499.494362 132.095814 
L 499.69062 131.348099 
L 499.886878 130.987592 
L 500.043884 131.363034 
L 500.4364 132.421042 
L 500.946671 132.811016 
L 501.064426 132.506473 
L 501.260684 130.986088 
L 501.6532 127.40875 
L 501.692451 127.41806 
L 501.810206 128.067768 
L 502.320477 132.905703 
L 502.359728 132.89488 
L 502.516735 132.472135 
L 502.791496 131.857875 
L 502.948502 131.960127 
L 503.851289 132.964712 
L 503.969044 132.578854 
L 504.165302 130.699913 
L 504.518566 127.151719 
L 504.557817 127.153362 
L 504.675572 127.821255 
L 505.146591 132.032007 
L 505.264346 131.761461 
L 505.499856 131.271024 
L 505.61761 131.519372 
L 506.010126 132.617045 
L 506.167133 132.510841 
L 506.363391 132.417755 
L 506.520397 132.639153 
L 506.755907 132.943585 
L 506.873661 132.604561 
L 507.069919 130.900242 
L 507.462435 127.387399 
L 507.540938 127.564081 
L 507.697945 128.940721 
L 508.090461 132.39576 
L 508.208216 132.454031 
L 508.639983 132.141572 
L 509.582021 132.936302 
L 509.621273 132.88884 
L 509.778279 132.285023 
L 510.445556 127.804148 
L 510.52406 127.900697 
L 510.681066 129.018091 
L 511.073582 132.144834 
L 511.191337 131.876044 
L 511.505349 131.056064 
L 511.623104 131.272352 
L 512.172626 132.60894 
L 512.525891 132.672105 
L 513.664187 132.779852 
L 516.490302 132.780955 
L 516.490302 132.780955 
" clip-path="url(#p60e76c5ff3)" style="fill: none; stroke: #7e7b7d; stroke-linecap: square"/>
   </g>
   <g id="patch_11">
    <path d="M 444.324286 138.04 
L 444.324286 27.6 
" style="fill: none; stroke: #585759; stroke-width: 0.8; stroke-linejoin: miter; stroke-linecap: square"/>
   </g>
   <g id="patch_12">
    <path d="M 444.324286 138.04 
L 519.926779 138.04 
" style="fill: none; stroke: #585759; stroke-width: 0.8; stroke-linejoin: miter; stroke-linecap: square"/>
   </g>
   <g id="text_40">
    <!-- ST -->
    <g style="fill: #585759" transform="translate(473.157032 21.6)scale(0.144 -0.144)">
     <defs>
      <path id="DejaVuSans-53" d="M 3425 4513 
L 3425 3897 
Q 3066 4069 2747 4153 
Q 2428 4238 2131 4238 
Q 1616 4238 1336 4038 
Q 1056 3838 1056 3469 
Q 1056 3159 1242 3001 
Q 1428 2844 1947 2747 
L 2328 2669 
Q 3034 2534 3370 2195 
Q 3706 1856 3706 1288 
Q 3706 609 3251 259 
Q 2797 -91 1919 -91 
Q 1588 -91 1214 -16 
Q 841 59 441 206 
L 441 856 
Q 825 641 1194 531 
Q 1563 422 1919 422 
Q 2459 422 2753 634 
Q 3047 847 3047 1241 
Q 3047 1584 2836 1778 
Q 2625 1972 2144 2069 
L 1759 2144 
Q 1053 2284 737 2584 
Q 422 2884 422 3419 
Q 422 4038 858 4394 
Q 1294 4750 2059 4750 
Q 2388 4750 2728 4690 
Q 3069 4631 3425 4513 
z
" transform="scale(0.015625)"/>
     </defs>
     <use xlink:href="#DejaVuSans-53"/>
     <use xlink:href="#DejaVuSans-54" x="63.476562"/>
    </g>
   </g>
  </g>
  <g id="axes_5">
   <g id="patch_13">
    <path d="M 576.495714 138.04 
L 652.098207 138.04 
L 652.098207 27.6 
L 576.495714 27.6 
L 576.495714 138.04 
z
" style="fill: none"/>
   </g>
   <g id="matplotlib.axis_9">
    <g id="xtick_9">
     <g id="line2d_33">
      <g>
       <use xlink:href="#mf11f30c295" x="579.932191" y="138.04" style="fill: #585759; stroke: #585759; stroke-width: 0.8"/>
      </g>
     </g>
     <g id="text_41">
      <!-- 0 -->
      <g style="fill: #585759" transform="translate(576.750941 152.638438)scale(0.1 -0.1)">
       <use xlink:href="#DejaVuSans-30"/>
      </g>
     </g>
    </g>
    <g id="xtick_10">
     <g id="line2d_34">
      <g>
       <use xlink:href="#mf11f30c295" x="648.66173" y="138.04" style="fill: #585759; stroke: #585759; stroke-width: 0.8"/>
      </g>
     </g>
     <g id="text_42">
      <!-- 1000 -->
      <g style="fill: #585759" transform="translate(635.93673 152.638438)scale(0.1 -0.1)">
       <use xlink:href="#DejaVuSans-31"/>
       <use xlink:href="#DejaVuSans-30" x="63.623047"/>
       <use xlink:href="#DejaVuSans-30" x="127.246094"/>
       <use xlink:href="#DejaVuSans-30" x="190.869141"/>
      </g>
     </g>
    </g>
    <g id="text_43">
     <!-- Time [ms] -->
     <g style="fill: #585759" transform="translate(589.097742 166.316563)scale(0.1 -0.1)">
      <use xlink:href="#DejaVuSans-54"/>
      <use xlink:href="#DejaVuSans-69" x="57.958984"/>
      <use xlink:href="#DejaVuSans-6d" x="85.742188"/>
      <use xlink:href="#DejaVuSans-65" x="183.154297"/>
      <use xlink:href="#DejaVuSans-20" x="244.677734"/>
      <use xlink:href="#DejaVuSans-5b" x="276.464844"/>
      <use xlink:href="#DejaVuSans-6d" x="315.478516"/>
      <use xlink:href="#DejaVuSans-73" x="412.890625"/>
      <use xlink:href="#DejaVuSans-5d" x="464.990234"/>
     </g>
    </g>
   </g>
   <g id="matplotlib.axis_10">
    <g id="ytick_21">
     <g id="line2d_35">
      <g>
       <use xlink:href="#md22c467999" x="576.495714" y="132.780952" style="fill: #585759; stroke: #585759; stroke-width: 0.8"/>
      </g>
     </g>
     <g id="text_44">
      <!-- 0.00 -->
      <g style="fill: #585759" transform="translate(547.230089 136.580171)scale(0.1 -0.1)">
       <use xlink:href="#DejaVuSans-30"/>
       <use xlink:href="#DejaVuSans-2e" x="63.623047"/>
       <use xlink:href="#DejaVuSans-30" x="95.410156"/>
       <use xlink:href="#DejaVuSans-30" x="159.033203"/>
      </g>
     </g>
    </g>
    <g id="ytick_22">
     <g id="line2d_36">
      <g>
       <use xlink:href="#md22c467999" x="576.495714" y="106.485714" style="fill: #585759; stroke: #585759; stroke-width: 0.8"/>
      </g>
     </g>
     <g id="text_45">
      <!-- 0.25 -->
      <g style="fill: #585759" transform="translate(547.230089 110.284933)scale(0.1 -0.1)">
       <use xlink:href="#DejaVuSans-30"/>
       <use xlink:href="#DejaVuSans-2e" x="63.623047"/>
       <use xlink:href="#DejaVuSans-32" x="95.410156"/>
       <use xlink:href="#DejaVuSans-35" x="159.033203"/>
      </g>
     </g>
    </g>
    <g id="ytick_23">
     <g id="line2d_37">
      <g>
       <use xlink:href="#md22c467999" x="576.495714" y="80.190476" style="fill: #585759; stroke: #585759; stroke-width: 0.8"/>
      </g>
     </g>
     <g id="text_46">
      <!-- 0.50 -->
      <g style="fill: #585759" transform="translate(547.230089 83.989695)scale(0.1 -0.1)">
       <use xlink:href="#DejaVuSans-30"/>
       <use xlink:href="#DejaVuSans-2e" x="63.623047"/>
       <use xlink:href="#DejaVuSans-35" x="95.410156"/>
       <use xlink:href="#DejaVuSans-30" x="159.033203"/>
      </g>
     </g>
    </g>
    <g id="ytick_24">
     <g id="line2d_38">
      <g>
       <use xlink:href="#md22c467999" x="576.495714" y="53.895238" style="fill: #585759; stroke: #585759; stroke-width: 0.8"/>
      </g>
     </g>
     <g id="text_47">
      <!-- 0.75 -->
      <g style="fill: #585759" transform="translate(547.230089 57.694457)scale(0.1 -0.1)">
       <use xlink:href="#DejaVuSans-30"/>
       <use xlink:href="#DejaVuSans-2e" x="63.623047"/>
       <use xlink:href="#DejaVuSans-37" x="95.410156"/>
       <use xlink:href="#DejaVuSans-35" x="159.033203"/>
      </g>
     </g>
    </g>
    <g id="ytick_25">
     <g id="line2d_39">
      <g>
       <use xlink:href="#md22c467999" x="576.495714" y="27.6" style="fill: #585759; stroke: #585759; stroke-width: 0.8"/>
      </g>
     </g>
     <g id="text_48">
      <!-- 1.00 -->
      <g style="fill: #585759" transform="translate(547.230089 31.399219)scale(0.1 -0.1)">
       <use xlink:href="#DejaVuSans-31"/>
       <use xlink:href="#DejaVuSans-2e" x="63.623047"/>
       <use xlink:href="#DejaVuSans-30" x="95.410156"/>
       <use xlink:href="#DejaVuSans-30" x="159.033203"/>
      </g>
     </g>
    </g>
    <g id="text_49">
     <!--   -->
     <g style="fill: #585759" transform="translate(541.150402 84.409062)rotate(-90)scale(0.1 -0.1)">
      <use xlink:href="#DejaVuSans-20"/>
     </g>
    </g>
   </g>
   <g id="line2d_40">
    <path d="M 579.932191 132.780954 
L 583.857351 132.673617 
L 584.720886 132.572062 
L 585.466666 132.532452 
L 585.662924 132.580132 
L 585.976937 132.73302 
L 586.173194 132.342117 
L 586.330201 132.120649 
L 586.408704 132.277806 
L 586.683465 133.83746 
L 586.761968 133.575948 
L 586.879723 131.115018 
L 587.075981 119.079048 
L 587.429245 75.868444 
L 587.704007 51.003924 
L 587.743258 51.481203 
L 587.861013 61.039766 
L 588.29278 112.253378 
L 588.332032 112.172427 
L 588.567542 107.089672 
L 588.646045 107.897804 
L 588.803051 115.152661 
L 589.156316 131.700182 
L 589.234819 132.143561 
L 589.27407 132.009122 
L 589.902096 126.621596 
L 590.059102 117.988472 
L 590.530121 80.181179 
L 590.569373 80.825998 
L 590.687128 88.316519 
L 591.118895 120.772522 
L 591.158147 120.735617 
L 591.354405 119.066947 
L 591.393656 119.211455 
L 591.511411 121.377974 
L 591.98243 132.76319 
L 592.100185 132.102128 
L 592.374946 130.317497 
L 592.453449 130.370567 
L 592.688959 130.911444 
L 592.72821 130.841636 
L 592.845965 130.031523 
L 593.081475 125.730653 
L 593.356236 121.254282 
L 593.395488 121.22263 
L 593.473991 121.776682 
L 593.7095 126.781182 
L 593.94501 130.095651 
L 593.984261 130.148398 
L 594.023513 130.097456 
L 594.259023 129.417784 
L 594.298274 129.476507 
L 594.455281 130.407024 
L 594.808545 132.74916 
L 594.9263 132.758649 
L 595.67208 131.472888 
L 595.986093 128.776559 
L 596.221602 127.708645 
L 596.339357 128.140652 
L 596.888879 131.24239 
L 597.16364 131.692902 
L 597.63466 132.943564 
L 597.673911 132.917655 
L 597.830918 132.446978 
L 598.066427 131.629384 
L 598.14493 131.851921 
L 598.341188 133.797025 
L 598.458943 134.430501 
L 598.537446 133.500604 
L 598.694453 126.233096 
L 599.12622 93.888602 
L 599.204723 94.825484 
L 599.36173 104.617479 
L 599.714994 125.074636 
L 599.872 126.028524 
L 599.989755 126.520074 
L 600.186013 129.312965 
L 600.460774 132.673821 
L 600.500026 132.719652 
L 600.539277 132.660508 
L 600.735535 131.50785 
L 600.931793 130.829007 
L 601.049548 131.196148 
L 601.324309 132.524301 
L 601.363561 132.438 
L 601.481316 131.293871 
L 601.716825 125.115361 
L 602.030838 117.987236 
L 602.07009 117.992905 
L 602.187844 119.490977 
L 602.698115 129.176791 
L 602.933625 128.702494 
L 602.972876 128.799261 
L 603.129883 129.932772 
L 603.483147 132.768406 
L 603.56165 132.788745 
L 603.718656 132.253406 
L 603.914914 131.616768 
L 603.954166 131.634703 
L 604.071921 132.073535 
L 604.268179 133.090704 
L 604.30743 133.040188 
L 604.385934 132.357279 
L 604.54294 127.998994 
L 604.935456 113.204147 
L 604.974707 113.350117 
L 605.092462 116.340017 
L 605.52423 130.011296 
L 605.641985 129.271836 
L 605.798991 128.27127 
L 605.838242 128.296996 
L 605.955997 129.135694 
L 606.348513 132.756103 
L 606.427016 132.667373 
L 606.741029 131.932322 
L 606.780281 131.960415 
L 607.01579 132.195398 
L 607.055042 132.140223 
L 607.212048 131.491977 
L 607.486809 130.303213 
L 607.565313 130.363249 
L 607.879325 131.066545 
L 607.918577 131.035887 
L 608.193338 130.69022 
L 608.23259 130.752472 
L 608.468099 131.6829 
L 608.664357 132.033754 
L 608.860615 131.700849 
L 608.97837 131.611427 
L 609.017621 131.642663 
L 609.174628 132.042381 
L 609.410137 132.590998 
L 609.527892 132.459876 
L 609.72415 132.141172 
L 609.763402 132.186066 
L 609.881157 132.674884 
L 610.077414 133.640971 
L 610.116666 133.523778 
L 610.234421 131.725146 
L 610.430679 123.008598 
L 610.744692 109.059001 
L 610.783943 109.058497 
L 610.901698 112.040073 
L 611.372717 128.710717 
L 611.490472 128.117096 
L 611.608227 127.612723 
L 611.647478 127.654995 
L 611.765233 128.520775 
L 612.197001 132.752341 
L 612.275504 132.595783 
L 612.628768 131.21496 
L 612.66802 131.301585 
L 612.825026 132.316973 
L 612.982032 133.274896 
L 613.021284 133.205633 
L 613.139039 131.524266 
L 613.335297 122.82071 
L 613.649309 108.330492 
L 613.688561 108.322258 
L 613.806316 111.476148 
L 614.238083 128.844894 
L 614.277335 128.843824 
L 614.512844 127.339771 
L 614.591348 127.523645 
L 614.748354 129.365998 
L 615.062367 132.91215 
L 615.14087 132.954091 
L 615.297876 132.293284 
L 615.533386 131.387369 
L 615.611889 131.519092 
L 615.88665 132.809857 
L 615.925902 132.733023 
L 616.043657 131.32917 
L 616.239915 124.343772 
L 616.593179 111.982595 
L 616.671682 112.81887 
L 616.86794 120.165481 
L 617.142701 127.889226 
L 617.181953 128.020392 
L 617.221204 127.98124 
L 617.417462 127.202244 
L 617.456714 127.250036 
L 617.574469 128.126757 
L 618.006236 132.89956 
L 618.045488 132.895657 
L 618.163243 132.481144 
L 618.438004 131.413519 
L 618.516507 131.573538 
L 618.791268 132.73064 
L 618.83052 132.617731 
L 618.948274 131.226796 
L 619.183784 123.707238 
L 619.458545 116.57815 
L 619.497797 116.631104 
L 619.615552 118.627149 
L 620.086571 129.457213 
L 620.165074 129.384697 
L 620.282829 129.170068 
L 620.32208 129.189125 
L 620.439835 129.688554 
L 620.910854 132.925619 
L 620.950106 132.872086 
L 621.107112 132.173248 
L 621.30337 131.340241 
L 621.342622 131.361619 
L 621.460376 132.003252 
L 621.695886 134.073315 
L 621.735138 133.956469 
L 621.852892 131.567443 
L 622.04915 119.699172 
L 622.363163 101.324112 
L 622.402415 101.440969 
L 622.520169 105.662959 
L 622.951937 126.443712 
L 622.991189 126.586105 
L 623.069692 126.459196 
L 623.148195 126.287917 
L 623.187446 126.330569 
L 623.305201 127.25957 
L 623.736969 132.537576 
L 623.77622 132.501508 
L 623.933227 131.793084 
L 624.168736 131.029013 
L 624.286491 131.237168 
L 624.600504 132.198297 
L 624.639755 132.142918 
L 624.75751 131.443873 
L 624.953768 128.305672 
L 625.307032 122.541135 
L 625.346284 122.575231 
L 625.464039 123.7617 
L 625.935058 130.606313 
L 626.013561 130.519036 
L 626.209819 130.191716 
L 626.327574 130.530001 
L 626.759341 132.92859 
L 626.837845 132.836925 
L 627.151857 131.647287 
L 627.230361 131.917921 
L 627.505122 134.419434 
L 627.583625 133.858608 
L 627.70138 129.887832 
L 627.936889 110.716624 
L 628.172399 95.76948 
L 628.21165 95.697845 
L 628.290154 97.983544 
L 628.800424 125.73001 
L 628.878927 125.393338 
L 628.996682 124.757899 
L 629.035934 124.797183 
L 629.153689 126.017046 
L 629.585456 132.609106 
L 629.663959 132.408737 
L 630.017224 130.845852 
L 630.134978 131.148577 
L 630.370488 131.761078 
L 630.448991 131.545898 
L 630.605998 130.233415 
L 631.037765 126.137657 
L 631.116268 126.272622 
L 631.273275 127.367169 
L 631.862048 132.106369 
L 632.058306 132.459325 
L 632.411571 132.663298 
L 632.607829 132.76882 
L 632.764835 132.302607 
L 632.961093 131.760093 
L 633.039596 132.066493 
L 633.314357 134.980315 
L 633.392861 134.577981 
L 633.510615 130.683414 
L 633.746125 110.764949 
L 633.981635 95.409376 
L 634.020886 95.453124 
L 634.138641 100.516677 
L 634.570408 126.099285 
L 634.60966 126.044557 
L 634.84517 124.215674 
L 634.884421 124.390434 
L 635.041428 127.012706 
L 635.35544 132.647172 
L 635.394692 132.765589 
L 635.433943 132.751295 
L 635.551698 132.148311 
L 635.826459 130.642166 
L 635.904963 130.71479 
L 636.218975 131.825586 
L 636.258227 131.738182 
L 636.375982 130.726352 
L 636.611491 125.491575 
L 636.886252 120.629985 
L 636.925504 120.668528 
L 637.043259 122.024283 
L 637.553529 130.525343 
L 638.338561 132.820535 
L 638.456316 132.609335 
L 638.731077 131.748338 
L 638.770329 131.766663 
L 638.888084 132.321972 
L 639.123593 134.440378 
L 639.202096 134.12594 
L 639.319851 131.000427 
L 639.555361 114.509221 
L 639.830122 99.802733 
L 639.908625 101.217632 
L 640.104883 113.828787 
L 640.379644 127.217573 
L 640.418896 127.398324 
L 640.458147 127.247364 
L 640.732908 124.539365 
L 640.77216 124.703999 
L 640.929166 127.075708 
L 641.282431 132.425716 
L 641.360934 132.504455 
L 641.400186 132.43194 
L 641.831953 131.414651 
L 641.949708 131.337768 
L 642.106714 130.80017 
L 642.577733 128.612124 
L 642.695488 128.766834 
L 642.891746 129.558156 
L 643.48052 132.592793 
L 643.637526 132.34634 
L 643.873036 132.028412 
L 644.030042 132.161908 
L 644.501061 132.719745 
L 645.560854 132.778543 
L 648.66173 132.780954 
L 648.66173 132.780954 
" clip-path="url(#pe0f727b18e)" style="fill: none; stroke: #7e7b7d; stroke-linecap: square"/>
   </g>
   <g id="patch_14">
    <path d="M 576.495714 138.04 
L 576.495714 27.6 
" style="fill: none; stroke: #585759; stroke-width: 0.8; stroke-linejoin: miter; stroke-linecap: square"/>
   </g>
   <g id="patch_15">
    <path d="M 576.495714 138.04 
L 652.098207 138.04 
" style="fill: none; stroke: #585759; stroke-width: 0.8; stroke-linejoin: miter; stroke-linecap: square"/>
   </g>
   <g id="text_50">
    <!-- VLat -->
    <g style="fill: #585759" transform="translate(598.125086 21.6)scale(0.144 -0.144)">
     <defs>
      <path id="DejaVuSans-56" d="M 1831 0 
L 50 4666 
L 709 4666 
L 2188 738 
L 3669 4666 
L 4325 4666 
L 2547 0 
L 1831 0 
z
" transform="scale(0.015625)"/>
      <path id="DejaVuSans-4c" d="M 628 4666 
L 1259 4666 
L 1259 531 
L 3531 531 
L 3531 0 
L 628 0 
L 628 4666 
z
" transform="scale(0.015625)"/>
     </defs>
     <use xlink:href="#DejaVuSans-56"/>
     <use xlink:href="#DejaVuSans-4c" x="68.408203"/>
     <use xlink:href="#DejaVuSans-61" x="124.121094"/>
     <use xlink:href="#DejaVuSans-74" x="185.400391"/>
    </g>
   </g>
  </g>
  <g id="axes_6">
   <g id="patch_16">
    <path d="M 708.667143 138.04 
L 784.269636 138.04 
L 784.269636 27.6 
L 708.667143 27.6 
L 708.667143 138.04 
z
" style="fill: none"/>
   </g>
   <g id="matplotlib.axis_11">
    <g id="xtick_11">
     <g id="line2d_41">
      <g>
       <use xlink:href="#mf11f30c295" x="712.10362" y="138.04" style="fill: #585759; stroke: #585759; stroke-width: 0.8"/>
      </g>
     </g>
     <g id="text_51">
      <!-- 0 -->
      <g style="fill: #585759" transform="translate(708.92237 152.638438)scale(0.1 -0.1)">
       <use xlink:href="#DejaVuSans-30"/>
      </g>
     </g>
    </g>
    <g id="xtick_12">
     <g id="line2d_42">
      <g>
       <use xlink:href="#mf11f30c295" x="780.833159" y="138.04" style="fill: #585759; stroke: #585759; stroke-width: 0.8"/>
      </g>
     </g>
     <g id="text_52">
      <!-- 1000 -->
      <g style="fill: #585759" transform="translate(768.108159 152.638438)scale(0.1 -0.1)">
       <use xlink:href="#DejaVuSans-31"/>
       <use xlink:href="#DejaVuSans-30" x="63.623047"/>
       <use xlink:href="#DejaVuSans-30" x="127.246094"/>
       <use xlink:href="#DejaVuSans-30" x="190.869141"/>
      </g>
     </g>
    </g>
    <g id="text_53">
     <!-- Time [ms] -->
     <g style="fill: #585759" transform="translate(721.269171 166.316563)scale(0.1 -0.1)">
      <use xlink:href="#DejaVuSans-54"/>
      <use xlink:href="#DejaVuSans-69" x="57.958984"/>
      <use xlink:href="#DejaVuSans-6d" x="85.742188"/>
      <use xlink:href="#DejaVuSans-65" x="183.154297"/>
      <use xlink:href="#DejaVuSans-20" x="244.677734"/>
      <use xlink:href="#DejaVuSans-5b" x="276.464844"/>
      <use xlink:href="#DejaVuSans-6d" x="315.478516"/>
      <use xlink:href="#DejaVuSans-73" x="412.890625"/>
      <use xlink:href="#DejaVuSans-5d" x="464.990234"/>
     </g>
    </g>
   </g>
   <g id="matplotlib.axis_12">
    <g id="ytick_26">
     <g id="line2d_43">
      <g>
       <use xlink:href="#md22c467999" x="708.667143" y="132.780952" style="fill: #585759; stroke: #585759; stroke-width: 0.8"/>
      </g>
     </g>
     <g id="text_54">
      <!-- 0.00 -->
      <g style="fill: #585759" transform="translate(679.401518 136.580171)scale(0.1 -0.1)">
       <use xlink:href="#DejaVuSans-30"/>
       <use xlink:href="#DejaVuSans-2e" x="63.623047"/>
       <use xlink:href="#DejaVuSans-30" x="95.410156"/>
       <use xlink:href="#DejaVuSans-30" x="159.033203"/>
      </g>
     </g>
    </g>
    <g id="ytick_27">
     <g id="line2d_44">
      <g>
       <use xlink:href="#md22c467999" x="708.667143" y="106.485714" style="fill: #585759; stroke: #585759; stroke-width: 0.8"/>
      </g>
     </g>
     <g id="text_55">
      <!-- 0.25 -->
      <g style="fill: #585759" transform="translate(679.401518 110.284933)scale(0.1 -0.1)">
       <use xlink:href="#DejaVuSans-30"/>
       <use xlink:href="#DejaVuSans-2e" x="63.623047"/>
       <use xlink:href="#DejaVuSans-32" x="95.410156"/>
       <use xlink:href="#DejaVuSans-35" x="159.033203"/>
      </g>
     </g>
    </g>
    <g id="ytick_28">
     <g id="line2d_45">
      <g>
       <use xlink:href="#md22c467999" x="708.667143" y="80.190476" style="fill: #585759; stroke: #585759; stroke-width: 0.8"/>
      </g>
     </g>
     <g id="text_56">
      <!-- 0.50 -->
      <g style="fill: #585759" transform="translate(679.401518 83.989695)scale(0.1 -0.1)">
       <use xlink:href="#DejaVuSans-30"/>
       <use xlink:href="#DejaVuSans-2e" x="63.623047"/>
       <use xlink:href="#DejaVuSans-35" x="95.410156"/>
       <use xlink:href="#DejaVuSans-30" x="159.033203"/>
      </g>
     </g>
    </g>
    <g id="ytick_29">
     <g id="line2d_46">
      <g>
       <use xlink:href="#md22c467999" x="708.667143" y="53.895238" style="fill: #585759; stroke: #585759; stroke-width: 0.8"/>
      </g>
     </g>
     <g id="text_57">
      <!-- 0.75 -->
      <g style="fill: #585759" transform="translate(679.401518 57.694457)scale(0.1 -0.1)">
       <use xlink:href="#DejaVuSans-30"/>
       <use xlink:href="#DejaVuSans-2e" x="63.623047"/>
       <use xlink:href="#DejaVuSans-37" x="95.410156"/>
       <use xlink:href="#DejaVuSans-35" x="159.033203"/>
      </g>
     </g>
    </g>
    <g id="ytick_30">
     <g id="line2d_47">
      <g>
       <use xlink:href="#md22c467999" x="708.667143" y="27.6" style="fill: #585759; stroke: #585759; stroke-width: 0.8"/>
      </g>
     </g>
     <g id="text_58">
      <!-- 1.00 -->
      <g style="fill: #585759" transform="translate(679.401518 31.399219)scale(0.1 -0.1)">
       <use xlink:href="#DejaVuSans-31"/>
       <use xlink:href="#DejaVuSans-2e" x="63.623047"/>
       <use xlink:href="#DejaVuSans-30" x="95.410156"/>
       <use xlink:href="#DejaVuSans-30" x="159.033203"/>
      </g>
     </g>
    </g>
    <g id="text_59">
     <!--   -->
     <g style="fill: #585759" transform="translate(673.32183 84.409062)rotate(-90)scale(0.1 -0.1)">
      <use xlink:href="#DejaVuSans-20"/>
     </g>
    </g>
   </g>
   <g id="line2d_48">
    <path d="M 712.10362 132.780953 
L 716.578301 132.674766 
L 717.010069 132.651541 
L 717.952107 132.77043 
L 718.187617 132.544637 
L 718.383875 132.464951 
L 718.540881 132.800443 
L 718.697887 133.178362 
L 718.737139 133.162996 
L 718.815642 132.853752 
L 718.972649 130.651422 
L 719.24741 121.617385 
L 719.679177 108.369005 
L 719.75768 109.309823 
L 719.914687 115.655199 
L 720.267951 130.021592 
L 720.307203 130.214031 
L 720.346454 130.149993 
L 720.542712 128.099924 
L 720.660467 127.386934 
L 720.699719 127.409133 
L 720.817473 128.183529 
L 721.170738 131.028748 
L 721.249241 130.900068 
L 721.445499 130.318112 
L 721.48475 130.348976 
L 721.602505 130.948984 
L 721.798763 132.304877 
L 721.838015 132.205643 
L 721.95577 130.092651 
L 722.152028 118.641439 
L 722.544543 90.665115 
L 722.583795 90.746908 
L 722.70155 95.898559 
L 723.211821 131.785451 
L 723.251072 131.536569 
L 723.643588 125.280672 
L 723.722091 125.528154 
L 724.742633 132.241751 
L 724.781884 132.16104 
L 724.938891 131.062478 
L 725.449161 124.813688 
L 725.527665 125.127242 
L 725.684671 127.443207 
L 726.037935 132.624435 
L 726.116438 132.700435 
L 726.15569 132.619738 
L 726.587458 131.344378 
L 726.626709 131.35761 
L 727.019225 131.742832 
L 727.293986 132.341407 
L 727.490244 132.676328 
L 727.529496 132.660959 
L 727.647251 132.362126 
L 727.843509 131.021039 
L 728.314528 127.536957 
L 728.393031 127.818637 
L 728.589289 129.948711 
L 728.86405 132.510917 
L 728.942553 132.579369 
L 728.981805 132.521583 
L 729.413572 131.596261 
L 729.688333 131.919535 
L 730.080849 132.569515 
L 730.316359 132.8437 
L 730.434114 132.583358 
L 730.748126 130.854133 
L 731.140642 128.06116 
L 731.3369 127.018717 
L 731.415403 127.371708 
L 731.611661 130.042096 
L 731.886423 132.675387 
L 731.964926 132.602562 
L 732.435945 131.308357 
L 732.475196 131.327555 
L 732.632203 131.580096 
L 733.06397 132.51513 
L 733.220977 132.152374 
L 733.770499 130.060819 
L 734.006009 125.969003 
L 734.202267 123.476814 
L 734.28077 123.959958 
L 734.477028 128.466678 
L 734.712537 132.759548 
L 734.751789 132.863628 
L 734.79104 132.805008 
L 734.948047 131.573915 
L 735.222808 129.945155 
L 735.301311 130.042855 
L 735.536821 131.06781 
L 735.968588 132.718569 
L 736.125595 132.850995 
L 736.243349 132.659077 
L 736.478859 131.561539 
L 737.067633 128.247017 
L 737.106884 128.300483 
L 737.224639 128.985791 
L 737.656407 132.616155 
L 737.695658 132.58372 
L 737.852665 132.008004 
L 738.088174 131.328174 
L 738.205929 131.433714 
L 738.912458 132.690757 
L 739.108716 132.875816 
L 739.22647 132.668476 
L 739.383477 131.748588 
L 739.854496 128.205171 
L 739.932999 128.468921 
L 740.129257 130.407006 
L 740.404018 132.709825 
L 740.482521 132.765839 
L 740.521773 132.70713 
L 740.953541 131.706175 
L 740.992792 131.738702 
L 741.974082 132.841605 
L 742.091837 132.755332 
L 742.248843 131.96958 
L 742.759114 127.844131 
L 742.798365 127.928806 
L 742.955372 129.074979 
L 743.347888 132.30669 
L 743.465642 132.350797 
L 743.89741 131.923233 
L 744.525435 132.546226 
L 744.8787 132.958972 
L 744.917951 132.919868 
L 745.035706 132.527334 
L 745.231964 130.881527 
L 745.702983 126.786466 
L 745.781486 126.910435 
L 745.938493 128.274871 
L 746.331009 132.318568 
L 746.409512 132.260431 
L 746.802028 131.090223 
L 746.841279 131.127612 
L 747.076789 131.731776 
L 747.390802 132.311449 
L 747.822569 132.869654 
L 747.861821 132.836378 
L 747.979576 132.449964 
L 748.175834 130.701216 
L 748.56835 127.242136 
L 748.646853 127.491731 
L 748.843111 129.483873 
L 749.157123 132.062702 
L 749.274878 132.099924 
L 749.628143 131.819323 
L 750.727187 132.835269 
L 750.844942 132.544516 
L 751.0412 130.984599 
L 751.472967 127.131095 
L 751.551471 127.434847 
L 751.747729 129.703586 
L 752.02249 132.453176 
L 752.100993 132.530375 
L 752.140244 132.465397 
L 752.53276 131.347771 
L 752.572012 131.37603 
L 752.76827 131.817006 
L 753.082283 132.422597 
L 753.671057 132.838393 
L 753.788811 132.45897 
L 753.985069 130.775894 
L 754.377585 127.44319 
L 754.456088 127.675203 
L 754.652346 129.62427 
L 754.966359 132.256209 
L 755.044862 132.302993 
L 755.084114 132.259706 
L 755.437378 131.737614 
L 755.47663 131.762052 
L 756.183159 132.627857 
L 756.418668 133.00057 
L 756.45792 132.978369 
L 756.575674 132.645655 
L 756.889687 130.48125 
L 757.321455 127.182507 
L 757.517713 125.903757 
L 757.596216 126.313372 
L 757.831725 130.100847 
L 758.027983 132.029517 
L 758.106487 131.93894 
L 758.459751 130.379693 
L 758.499002 130.423873 
L 758.69526 131.174884 
L 759.009273 132.179874 
L 759.480292 132.867617 
L 759.519544 132.823698 
L 759.637299 132.387646 
L 759.833557 130.545728 
L 760.186821 127.262405 
L 760.265324 127.443525 
L 760.422331 128.992559 
L 760.775595 132.467203 
L 760.854098 132.50517 
L 760.89335 132.446945 
L 761.246614 131.769086 
L 761.285866 131.791783 
L 761.560627 132.234446 
L 761.953143 132.613093 
L 762.306407 132.906926 
L 762.424162 132.604544 
L 762.659671 131.030447 
L 763.13069 127.922135 
L 763.209194 127.830085 
L 763.248445 127.889816 
L 763.3662 128.553953 
L 763.797968 132.132756 
L 763.837219 132.095814 
L 764.033477 131.348099 
L 764.229735 130.987592 
L 764.386741 131.363034 
L 764.779257 132.421042 
L 765.289528 132.811016 
L 765.407283 132.506473 
L 765.603541 130.986088 
L 765.996057 127.40875 
L 766.035308 127.41806 
L 766.153063 128.067768 
L 766.663334 132.905703 
L 766.702585 132.89488 
L 766.859592 132.472135 
L 767.134353 131.857875 
L 767.291359 131.960127 
L 768.194146 132.964712 
L 768.311901 132.578854 
L 768.508159 130.699913 
L 768.861423 127.151719 
L 768.900675 127.153362 
L 769.018429 127.821255 
L 769.489448 132.032007 
L 769.607203 131.761461 
L 769.842713 131.271024 
L 769.960468 131.519372 
L 770.352984 132.617045 
L 770.50999 132.510841 
L 770.706248 132.417755 
L 770.863254 132.639153 
L 771.098764 132.943585 
L 771.216519 132.604561 
L 771.412777 130.900242 
L 771.805292 127.387399 
L 771.883796 127.564081 
L 772.040802 128.940721 
L 772.433318 132.39576 
L 772.551073 132.454031 
L 772.98284 132.141572 
L 773.924878 132.936302 
L 773.96413 132.88884 
L 774.121136 132.285023 
L 774.788413 127.804148 
L 774.866917 127.900697 
L 775.023923 129.018091 
L 775.416439 132.144834 
L 775.534194 131.876044 
L 775.848206 131.056064 
L 775.965961 131.272352 
L 776.515484 132.60894 
L 776.868748 132.672105 
L 778.007044 132.779852 
L 780.833159 132.780955 
L 780.833159 132.780955 
" clip-path="url(#p7e5cbbef1c)" style="fill: none; stroke: #7e7b7d; stroke-linecap: square"/>
   </g>
   <g id="patch_17">
    <path d="M 708.667143 138.04 
L 708.667143 27.6 
" style="fill: none; stroke: #585759; stroke-width: 0.8; stroke-linejoin: miter; stroke-linecap: square"/>
   </g>
   <g id="patch_18">
    <path d="M 708.667143 138.04 
L 784.269636 138.04 
" style="fill: none; stroke: #585759; stroke-width: 0.8; stroke-linejoin: miter; stroke-linecap: square"/>
   </g>
   <g id="text_60">
    <!-- BF -->
    <g style="fill: #585759" transform="translate(737.387389 21.6)scale(0.144 -0.144)">
     <defs>
      <path id="DejaVuSans-42" d="M 1259 2228 
L 1259 519 
L 2272 519 
Q 2781 519 3026 730 
Q 3272 941 3272 1375 
Q 3272 1813 3026 2020 
Q 2781 2228 2272 2228 
L 1259 2228 
z
M 1259 4147 
L 1259 2741 
L 2194 2741 
Q 2656 2741 2882 2914 
Q 3109 3088 3109 3444 
Q 3109 3797 2882 3972 
Q 2656 4147 2194 4147 
L 1259 4147 
z
M 628 4666 
L 2241 4666 
Q 2963 4666 3353 4366 
Q 3744 4066 3744 3513 
Q 3744 3084 3544 2831 
Q 3344 2578 2956 2516 
Q 3422 2416 3680 2098 
Q 3938 1781 3938 1306 
Q 3938 681 3513 340 
Q 3088 0 2303 0 
L 628 0 
L 628 4666 
z
" transform="scale(0.015625)"/>
     </defs>
     <use xlink:href="#DejaVuSans-42"/>
     <use xlink:href="#DejaVuSans-46" x="68.603516"/>
    </g>
   </g>
  </g>
  <g id="axes_7">
   <g id="patch_19">
    <path d="M 840.838571 138.04 
L 916.441064 138.04 
L 916.441064 27.6 
L 840.838571 27.6 
L 840.838571 138.04 
z
" style="fill: none"/>
   </g>
   <g id="matplotlib.axis_13">
    <g id="xtick_13">
     <g id="line2d_49">
      <g>
       <use xlink:href="#mf11f30c295" x="844.275048" y="138.04" style="fill: #585759; stroke: #585759; stroke-width: 0.8"/>
      </g>
     </g>
     <g id="text_61">
      <!-- 0 -->
      <g style="fill: #585759" transform="translate(841.093798 152.638438)scale(0.1 -0.1)">
       <use xlink:href="#DejaVuSans-30"/>
      </g>
     </g>
    </g>
    <g id="xtick_14">
     <g id="line2d_50">
      <g>
       <use xlink:href="#mf11f30c295" x="913.004587" y="138.04" style="fill: #585759; stroke: #585759; stroke-width: 0.8"/>
      </g>
     </g>
     <g id="text_62">
      <!-- 1000 -->
      <g style="fill: #585759" transform="translate(900.279587 152.638438)scale(0.1 -0.1)">
       <use xlink:href="#DejaVuSans-31"/>
       <use xlink:href="#DejaVuSans-30" x="63.623047"/>
       <use xlink:href="#DejaVuSans-30" x="127.246094"/>
       <use xlink:href="#DejaVuSans-30" x="190.869141"/>
      </g>
     </g>
    </g>
    <g id="text_63">
     <!-- Time [ms] -->
     <g style="fill: #585759" transform="translate(853.440599 166.316563)scale(0.1 -0.1)">
      <use xlink:href="#DejaVuSans-54"/>
      <use xlink:href="#DejaVuSans-69" x="57.958984"/>
      <use xlink:href="#DejaVuSans-6d" x="85.742188"/>
      <use xlink:href="#DejaVuSans-65" x="183.154297"/>
      <use xlink:href="#DejaVuSans-20" x="244.677734"/>
      <use xlink:href="#DejaVuSans-5b" x="276.464844"/>
      <use xlink:href="#DejaVuSans-6d" x="315.478516"/>
      <use xlink:href="#DejaVuSans-73" x="412.890625"/>
      <use xlink:href="#DejaVuSans-5d" x="464.990234"/>
     </g>
    </g>
   </g>
   <g id="matplotlib.axis_14">
    <g id="ytick_31">
     <g id="line2d_51">
      <g>
       <use xlink:href="#md22c467999" x="840.838571" y="132.780952" style="fill: #585759; stroke: #585759; stroke-width: 0.8"/>
      </g>
     </g>
     <g id="text_64">
      <!-- 0.00 -->
      <g style="fill: #585759" transform="translate(811.572946 136.580171)scale(0.1 -0.1)">
       <use xlink:href="#DejaVuSans-30"/>
       <use xlink:href="#DejaVuSans-2e" x="63.623047"/>
       <use xlink:href="#DejaVuSans-30" x="95.410156"/>
       <use xlink:href="#DejaVuSans-30" x="159.033203"/>
      </g>
     </g>
    </g>
    <g id="ytick_32">
     <g id="line2d_52">
      <g>
       <use xlink:href="#md22c467999" x="840.838571" y="106.485714" style="fill: #585759; stroke: #585759; stroke-width: 0.8"/>
      </g>
     </g>
     <g id="text_65">
      <!-- 0.25 -->
      <g style="fill: #585759" transform="translate(811.572946 110.284933)scale(0.1 -0.1)">
       <use xlink:href="#DejaVuSans-30"/>
       <use xlink:href="#DejaVuSans-2e" x="63.623047"/>
       <use xlink:href="#DejaVuSans-32" x="95.410156"/>
       <use xlink:href="#DejaVuSans-35" x="159.033203"/>
      </g>
     </g>
    </g>
    <g id="ytick_33">
     <g id="line2d_53">
      <g>
       <use xlink:href="#md22c467999" x="840.838571" y="80.190476" style="fill: #585759; stroke: #585759; stroke-width: 0.8"/>
      </g>
     </g>
     <g id="text_66">
      <!-- 0.50 -->
      <g style="fill: #585759" transform="translate(811.572946 83.989695)scale(0.1 -0.1)">
       <use xlink:href="#DejaVuSans-30"/>
       <use xlink:href="#DejaVuSans-2e" x="63.623047"/>
       <use xlink:href="#DejaVuSans-35" x="95.410156"/>
       <use xlink:href="#DejaVuSans-30" x="159.033203"/>
      </g>
     </g>
    </g>
    <g id="ytick_34">
     <g id="line2d_54">
      <g>
       <use xlink:href="#md22c467999" x="840.838571" y="53.895238" style="fill: #585759; stroke: #585759; stroke-width: 0.8"/>
      </g>
     </g>
     <g id="text_67">
      <!-- 0.75 -->
      <g style="fill: #585759" transform="translate(811.572946 57.694457)scale(0.1 -0.1)">
       <use xlink:href="#DejaVuSans-30"/>
       <use xlink:href="#DejaVuSans-2e" x="63.623047"/>
       <use xlink:href="#DejaVuSans-37" x="95.410156"/>
       <use xlink:href="#DejaVuSans-35" x="159.033203"/>
      </g>
     </g>
    </g>
    <g id="ytick_35">
     <g id="line2d_55">
      <g>
       <use xlink:href="#md22c467999" x="840.838571" y="27.6" style="fill: #585759; stroke: #585759; stroke-width: 0.8"/>
      </g>
     </g>
     <g id="text_68">
      <!-- 1.00 -->
      <g style="fill: #585759" transform="translate(811.572946 31.399219)scale(0.1 -0.1)">
       <use xlink:href="#DejaVuSans-31"/>
       <use xlink:href="#DejaVuSans-2e" x="63.623047"/>
       <use xlink:href="#DejaVuSans-30" x="95.410156"/>
       <use xlink:href="#DejaVuSans-30" x="159.033203"/>
      </g>
     </g>
    </g>
    <g id="text_69">
     <!--   -->
     <g style="fill: #585759" transform="translate(805.493259 84.409062)rotate(-90)scale(0.1 -0.1)">
      <use xlink:href="#DejaVuSans-20"/>
     </g>
    </g>
   </g>
   <g id="line2d_56">
    <path d="M 844.275048 132.780951 
L 848.317962 132.681454 
L 848.74973 132.650237 
L 849.613265 132.732807 
L 851.340335 132.577439 
L 852.086115 132.623257 
L 852.831896 132.660574 
L 853.420669 132.611298 
L 853.852437 132.659518 
L 854.323456 132.565296 
L 854.637469 132.571514 
L 855.265494 132.355652 
L 855.972023 132.710485 
L 856.443042 132.714657 
L 856.87481 132.683393 
L 857.306577 132.668891 
L 857.856099 132.742013 
L 858.523377 132.571865 
L 859.11215 132.721592 
L 859.975685 132.711198 
L 860.446705 132.685238 
L 864.646625 132.5902 
L 864.921386 132.607227 
L 865.392405 132.739503 
L 866.138186 132.73658 
L 866.49145 132.690963 
L 866.923217 132.637274 
L 867.826004 132.672841 
L 869.317565 132.697138 
L 869.670829 132.64606 
L 870.024093 132.660262 
L 870.377358 132.638778 
L 870.809125 132.568699 
L 871.711912 132.647758 
L 872.182931 132.666624 
L 873.124969 132.733623 
L 876.147342 132.575017 
L 876.500606 132.59577 
L 876.932374 132.698654 
L 877.599651 132.655289 
L 879.444476 132.700834 
L 879.954746 132.71562 
L 881.132294 132.685099 
L 881.838823 132.693663 
L 883.958409 132.733018 
L 884.704189 132.684639 
L 885.332214 132.707286 
L 886.038743 132.649404 
L 891.023695 132.703205 
L 891.769476 132.741171 
L 892.711514 132.635282 
L 893.378791 132.603285 
L 893.810558 132.7192 
L 894.909603 132.692111 
L 895.302119 132.678475 
L 896.204906 132.597391 
L 897.814221 132.746434 
L 899.109524 132.660996 
L 899.619794 132.686593 
L 900.01231 132.702181 
L 900.444078 132.726506 
L 900.9936 132.695744 
L 901.464619 132.691913 
L 901.97489 132.687345 
L 903.034683 132.697807 
L 904.604746 132.64313 
L 905.743043 132.71877 
L 906.331817 132.644504 
L 906.881339 132.706578 
L 907.39161 132.689742 
L 907.823377 132.678975 
L 909.393441 132.785633 
L 913.004587 132.780952 
L 913.004587 132.780952 
" clip-path="url(#p63ad36ad21)" style="fill: none; stroke: #7e7b7d; stroke-linecap: square"/>
   </g>
   <g id="patch_20">
    <path d="M 840.838571 138.04 
L 840.838571 27.6 
" style="fill: none; stroke: #585759; stroke-width: 0.8; stroke-linejoin: miter; stroke-linecap: square"/>
   </g>
   <g id="patch_21">
    <path d="M 840.838571 138.04 
L 916.441064 138.04 
" style="fill: none; stroke: #585759; stroke-width: 0.8; stroke-linejoin: miter; stroke-linecap: square"/>
   </g>
   <g id="text_70">
    <!-- MG -->
    <g style="fill: #585759" transform="translate(866.848693 21.6)scale(0.144 -0.144)">
     <use xlink:href="#DejaVuSans-4d"/>
     <use xlink:href="#DejaVuSans-47" x="86.279297"/>
    </g>
   </g>
  </g>
 </g>
 <defs>
  <clipPath id="pf8439031e9">
   <rect x="47.81" y="27.6" width="75.602493" height="110.44"/>
  </clipPath>
  <clipPath id="p81d776729b">
   <rect x="179.981429" y="27.6" width="75.602493" height="110.44"/>
  </clipPath>
  <clipPath id="p19192c05f1">
   <rect x="312.152857" y="27.6" width="75.602493" height="110.44"/>
  </clipPath>
  <clipPath id="p60e76c5ff3">
   <rect x="444.324286" y="27.6" width="75.602493" height="110.44"/>
  </clipPath>
  <clipPath id="pe0f727b18e">
   <rect x="576.495714" y="27.6" width="75.602493" height="110.44"/>
  </clipPath>
  <clipPath id="p7e5cbbef1c">
   <rect x="708.667143" y="27.6" width="75.602493" height="110.44"/>
  </clipPath>
  <clipPath id="p63ad36ad21">
   <rect x="840.838571" y="27.6" width="75.602493" height="110.44"/>
  </clipPath>
 </defs>
</svg>
